<svg xmlns="http://www.w3.org/2000/svg" xmlns:xlink="http://www.w3.org/1999/xlink" viewBox="0 0 1938 558">
  <defs>
    <style>
      .cls-1 {
        fill: #fff;
      }

      .cls-2 {
        fill: url(#linear-gradient);
      }

      .cls-3 {
        filter: url(#Rectangle_51);
      }

      .cls-4 {
        filter: url(#Rectangle_50);
      }
    </style>
    <filter id="Rectangle_50" x="0" y="0" width="1938" height="558" filterUnits="userSpaceOnUse">
      <feOffset dy="3" input="SourceAlpha"/>
      <feGaussianBlur stdDeviation="3" result="blur"/>
      <feFlood flood-opacity="0.161"/>
      <feComposite operator="in" in2="blur"/>
      <feComposite in="SourceGraphic"/>
    </filter>
    <linearGradient id="linear-gradient" x1="0.5" x2="0.5" y2="1" gradientUnits="objectBoundingBox">
      <stop offset="0" stop-color="#20d860"/>
      <stop offset="1" stop-color="#4eff8c"/>
    </linearGradient>
    <filter id="Rectangle_51" x="597" y="29" width="1341" height="500" filterUnits="userSpaceOnUse">
      <feOffset dy="3" input="SourceAlpha"/>
      <feGaussianBlur stdDeviation="3" result="blur-2"/>
      <feFlood flood-opacity="0.161"/>
      <feComposite operator="in" in2="blur-2"/>
      <feComposite in="SourceGraphic"/>
    </filter>
  </defs>
  <g id="Group_420" data-name="Group 420" transform="translate(9 -3809)">
    <g class="cls-4" transform="matrix(1, 0, 0, 1, -9, 3809)">
      <rect id="Rectangle_50-2" data-name="Rectangle 50" class="cls-1" width="1920" height="540" transform="translate(9 6)"/>
    </g>
    <g class="cls-3" transform="matrix(1, 0, 0, 1, -9, 3809)">
      <path id="Rectangle_51-2" data-name="Rectangle 51" class="cls-2" d="M76,0H1323a0,0,0,0,1,0,0V482a0,0,0,0,1,0,0H76A76,76,0,0,1,0,406V76A76,76,0,0,1,76,0Z" transform="translate(606 35)"/>
    </g>
  </g>
</svg>
