<svg xmlns="http://www.w3.org/2000/svg" xmlns:xlink="http://www.w3.org/1999/xlink" viewBox="0 0 377 377">
  <defs>
    <style>
      .cls-1 {
        fill: #fff;
      }

      .cls-2 {
        fill: #20d860;
      }

      .cls-3 {
        fill: #165ab7;
        font-size: 23px;
        font-family: SegoeUI, Segoe UI;
      }

      .cls-4 {
        filter: url(#Rectangle_33);
      }
    </style>
    <filter id="Rectangle_33" x="0" y="0" width="377" height="377" filterUnits="userSpaceOnUse">
      <feOffset dy="6" input="SourceAlpha"/>
      <feGaussianBlur stdDeviation="8.5" result="blur"/>
      <feFlood flood-opacity="0.251"/>
      <feComposite operator="in" in2="blur"/>
      <feComposite in="SourceGraphic"/>
    </filter>
  </defs>
  <g id="Group_409" data-name="Group 409" transform="translate(-201.5 -149.5)">
    <g class="cls-4" transform="matrix(1, 0, 0, 1, 201.5, 149.5)">
      <rect id="Rectangle_33-2" data-name="Rectangle 33" class="cls-1" width="326" height="326" rx="10" transform="translate(25.5 19.5)"/>
    </g>
    <g id="Group_293" data-name="Group 293" transform="translate(22 -1611)">
      <g id="_001-planet-earth" data-name="001-planet-earth" transform="translate(310.225 1866)">
        <g id="Group_184" data-name="Group 184">
          <g id="Group_183" data-name="Group 183">
            <path id="Path_371" data-name="Path 371" class="cls-2" d="M58.784,0a58.784,58.784,0,1,0,58.784,58.784A58.851,58.851,0,0,0,58.784,0Zm33.7,16.208A54.817,54.817,0,0,1,100.479,24a8.628,8.628,0,0,0-3.569.074,7.5,7.5,0,0,0-4.963,4.163,1.352,1.352,0,0,1-1.365.757,1.337,1.337,0,0,1-1.218-1.267C89.248,23.315,91.169,18.778,92.486,16.208Zm-71.13,3.239a54.5,54.5,0,0,1,16.2-10.665A64.388,64.388,0,0,1,52,22.334a3.434,3.434,0,0,1-1.327,5.178c-5.345,2.446-12.429,6.24-15.817,10.424a3.176,3.176,0,0,1-3.232,1.1c-4.521-1.147-8.154.222-10.229,3.853-2.621,4.586,1.033,9.049,4.257,12.987.367.448.735.9,1.1,1.35a20.539,20.539,0,0,1-7.708-7.764C16.047,44.021,14.044,34.4,21.355,19.447ZM4.46,58.784a54,54,0,0,1,8.418-29.016c-2.29,10.025-.3,17.192,2.256,21.846A26.089,26.089,0,0,0,28.143,62.933a4.222,4.222,0,0,1,2.431,2.849s.128.549.183.822a28.566,28.566,0,0,1,.269,8.921,15.62,15.62,0,0,0,6.621,14.617l4.44,3.1c-.277,3.164-.662,11.153,1.635,17.744A54.422,54.422,0,0,1,4.46,58.784ZM111.576,67.87a8.345,8.345,0,0,0-3.078-6.006,8.23,8.23,0,0,0-6.426-1.737l-.193.029A6.489,6.489,0,0,1,97,58.9a6.627,6.627,0,0,1-2.587-4.454,32.077,32.077,0,0,1-.273-5.6,2.23,2.23,0,0,0-4.455-.2,36.526,36.526,0,0,0,.307,6.386,11.054,11.054,0,0,0,4.319,7.428,10.915,10.915,0,0,0,8.217,2.11l.234-.035a3.711,3.711,0,0,1,2.935.8,3.877,3.877,0,0,1,1.431,2.79,24.958,24.958,0,0,0,2.447,9.946A54.312,54.312,0,0,1,52.5,112.743c.741-.754,1.626-1.664,2.674-2.752a2.23,2.23,0,1,0-3.213-3.093c-1.548,1.608-2.739,2.822-3.621,3.711-3.06-7.178-1.7-18.037-1.689-18.158a2.23,2.23,0,0,0-.935-2.118L40.2,86.483a11.165,11.165,0,0,1-4.742-10.445,34.107,34.107,0,0,0-.126-9.143,69.7,69.7,0,0,1,10.39-1.9A6.59,6.59,0,0,1,51,66.776c3.232,3.1,8.237,6.719,14.875,10.751a7.95,7.95,0,0,1,2.037,11.82c-1.981,2.42-4.4,5.2-7.2,8.271a2.23,2.23,0,1,0,3.3,3c2.85-3.127,5.324-5.97,7.354-8.451A12.409,12.409,0,0,0,68.19,73.715a86.152,86.152,0,0,1-14.1-10.157,11.036,11.036,0,0,0-8.847-3,74.964,74.964,0,0,0-10.484,1.874c-.807-3.457-3.349-6.564-5.654-9.379-2.98-3.64-4.858-6.16-3.836-7.949.66-1.154,1.923-2.591,5.261-1.743a7.65,7.65,0,0,0,7.794-2.62c2.219-2.74,7.264-6,14.207-9.175a7.894,7.894,0,0,0,3.048-11.9A66.148,66.148,0,0,0,42.61,6.919a54.282,54.282,0,0,1,46.226,6.634c-1.53,2.852-4.083,8.51-3.93,14.292a5.809,5.809,0,0,0,5.209,5.585,5.75,5.75,0,0,0,.6.032,5.86,5.86,0,0,0,5.223-3.236,2.988,2.988,0,0,1,2.031-1.819c.995-.243,3.269-.186,7.5,2.766a22.332,22.332,0,0,1-3.111-.161,6.7,6.7,0,0,0-4.751,1.2,16.865,16.865,0,0,0-2.523,2.238,2.23,2.23,0,0,0,3.272,3.03,12.413,12.413,0,0,1,1.853-1.647,2.258,2.258,0,0,1,1.6-.391,26.82,26.82,0,0,0,6.041.055,54.311,54.311,0,0,1,3.985,34.968Q111.652,69.222,111.576,67.87Z"/>
            <path id="Path_372" data-name="Path 372" class="cls-2" d="M192.165,342.759a2.034,2.034,0,0,0-.2-.384,2.284,2.284,0,0,0-.618-.618,2.25,2.25,0,0,0-.384-.205,2.316,2.316,0,0,0-.416-.125,2.164,2.164,0,0,0-.874,0,2.3,2.3,0,0,0-.416.125,2.25,2.25,0,0,0-.384.205,2.2,2.2,0,0,0-.339.279,2.05,2.05,0,0,0-.279.339,2.237,2.237,0,0,0-.205.384,2.306,2.306,0,0,0-.125.416,2.178,2.178,0,0,0-.045.437,2.15,2.15,0,0,0,.045.434,2.338,2.338,0,0,0,.125.419,2.378,2.378,0,0,0,.205.384,2.2,2.2,0,0,0,.279.339,2.014,2.014,0,0,0,.339.276,2.056,2.056,0,0,0,.384.205,2.317,2.317,0,0,0,.416.128,2.166,2.166,0,0,0,.874,0,2.318,2.318,0,0,0,.416-.128,2.056,2.056,0,0,0,.384-.205,1.924,1.924,0,0,0,.339-.276,2.2,2.2,0,0,0,.279-.339,2.269,2.269,0,0,0,.375-1.237,2.2,2.2,0,0,0-.044-.437A2.109,2.109,0,0,0,192.165,342.759Z" transform="translate(-132.021 -239.888)"/>
            <path id="Path_373" data-name="Path 373" class="cls-2" d="M191.469,23.623c-.362-.325-3.853-3.2-14.983-4.132a2.463,2.463,0,0,0-2.509,1.3c-.814,1.584.2,2.778,1.74,4.587,1.777,2.089,4.75,5.585,5.211,9.114a2.23,2.23,0,0,0,3.98,1.068l6.838-8.919A2.229,2.229,0,0,0,191.469,23.623Zm-7.5,5.829a26.836,26.836,0,0,0-3.181-4.943,29.511,29.511,0,0,1,5.816,1.506Z" transform="translate(-122.05 -13.688)"/>
            <path id="Path_374" data-name="Path 374" class="cls-2" d="M309.124,134.606a2.3,2.3,0,0,0-.387-.205,2.2,2.2,0,0,0-1.7,0,2.287,2.287,0,0,0-.387.205,2.333,2.333,0,0,0-.339.276,2.357,2.357,0,0,0-.277.339,2.384,2.384,0,0,0-.2.386,2.273,2.273,0,0,0-.128.416,2.413,2.413,0,0,0-.042.437,2.357,2.357,0,0,0,.042.434,2.306,2.306,0,0,0,.128.419,2.248,2.248,0,0,0,.482.722,2.244,2.244,0,0,0,1.579.654,2.152,2.152,0,0,0,.434-.045,2.248,2.248,0,0,0,.416-.128,2.091,2.091,0,0,0,.386-.205,2.152,2.152,0,0,0,.339-.277,2.253,2.253,0,0,0,.61-1.142,2.127,2.127,0,0,0,.042-.434,2.255,2.255,0,0,0-.651-1.579A2.317,2.317,0,0,0,309.124,134.606Z" transform="translate(-214.784 -94.323)"/>
          </g>
        </g>
      </g>
      <text id="Globalization" class="cls-3" transform="translate(368 2017.472)"><tspan x="-66.574" y="0">Globalization</tspan></text>
    </g>
  </g>
</svg>
