<svg xmlns="http://www.w3.org/2000/svg" xmlns:xlink="http://www.w3.org/1999/xlink" viewBox="0 0 377 377">
  <defs>
    <style>
      .cls-1 {
        fill: #fff;
      }

      .cls-2 {
        fill: #20d860;
      }

      .cls-3 {
        fill: #165ab7;
        font-size: 23px;
        font-family: SegoeUI, Segoe UI;
      }

      .cls-4 {
        filter: url(#Rectangle_34);
      }
    </style>
    <filter id="Rectangle_34" x="0" y="0" width="377" height="377" filterUnits="userSpaceOnUse">
      <feOffset dy="6" input="SourceAlpha"/>
      <feGaussianBlur stdDeviation="8.5" result="blur"/>
      <feFlood flood-opacity="0.251"/>
      <feComposite operator="in" in2="blur"/>
      <feComposite in="SourceGraphic"/>
    </filter>
  </defs>
  <g id="Group_410" data-name="Group 410" transform="translate(-581.5 -149.5)">
    <g class="cls-4" transform="matrix(1, 0, 0, 1, 581.5, 149.5)">
      <rect id="Rectangle_34-2" data-name="Rectangle 34" class="cls-1" width="326" height="326" rx="10" transform="translate(25.5 19.5)"/>
    </g>
    <g id="Group_292" data-name="Group 292" transform="translate(19 -1610)">
      <g id="_002-education" data-name="002-education" transform="translate(692.465 1865)">
        <g id="Group_186" data-name="Group 186" transform="translate(0 0)">
          <g id="Group_185" data-name="Group 185">
            <path id="Path_375" data-name="Path 375" class="cls-2" d="M116.03,0H1.967A1.966,1.966,0,0,0,0,1.966H0V41.3H3.933V3.933H114.063V47.2H45.232v3.933h70.8A1.966,1.966,0,0,0,118,49.166h0V1.967A1.966,1.966,0,0,0,116.03,0Z" transform="translate(0 0)"/>
          </g>
        </g>
        <g id="Group_188" data-name="Group 188" transform="translate(64.898 9.833)">
          <g id="Group_187" data-name="Group 187">
            <rect id="Rectangle_41" data-name="Rectangle 41" class="cls-2" width="39.332" height="3.933"/>
          </g>
        </g>
        <g id="Group_190" data-name="Group 190" transform="translate(70.797 21.633)">
          <g id="Group_189" data-name="Group 189">
            <rect id="Rectangle_42" data-name="Rectangle 42" class="cls-2" width="39.332" height="3.933"/>
          </g>
        </g>
        <g id="Group_192" data-name="Group 192" transform="translate(62.931 33.432)">
          <g id="Group_191" data-name="Group 191">
            <rect id="Rectangle_43" data-name="Rectangle 43" class="cls-2" width="39.332" height="3.933"/>
          </g>
        </g>
        <g id="Group_194" data-name="Group 194" transform="translate(0 7.866)">
          <g id="Group_193" data-name="Group 193">
            <path id="Path_376" data-name="Path 376" class="cls-2" d="M62.774,41.089a6.346,6.346,0,0,0-8.3-3.422l-.165.071L38.366,46.011a9.725,9.725,0,0,0,.966-4.178,9.833,9.833,0,1,0-17.649,5.9H21.6A13.5,13.5,0,0,0,9.065,56.463L3.815,74.558a6.3,6.3,0,1,0,11.828,4.333L17.7,72.346v28.462A9.8,9.8,0,0,0,4.938,115.646,9.06,9.06,0,0,0,0,123.683v16.48a1.966,1.966,0,0,0,1.966,1.967H21.633a1.966,1.966,0,0,0,1.967-1.966h0v-16.48a9.039,9.039,0,0,0-3.509-7.119H34.975a9.038,9.038,0,0,0-3.509,7.119v16.48a1.966,1.966,0,0,0,1.966,1.967H53.1a1.966,1.966,0,0,0,1.967-1.966h0v-16.48a9.06,9.06,0,0,0-4.938-8.036A9.824,9.824,0,0,0,41.3,98.99V58.76l18.054-9.374A6.346,6.346,0,0,0,62.774,41.089ZM29.5,35.933a5.9,5.9,0,1,1-5.9,5.9A5.9,5.9,0,0,1,29.5,35.933ZM11.8,102.724a5.9,5.9,0,1,1-5.9,5.9A5.9,5.9,0,0,1,11.8,102.724ZM19.666,138.2H3.933V123.683a5.16,5.16,0,0,1,5.154-5.153h5.425a5.16,5.16,0,0,1,5.154,5.153Zm31.466-14.513V138.2H35.4V123.683a5.16,5.16,0,0,1,5.154-5.153h5.425A5.16,5.16,0,0,1,51.131,123.683Zm-7.866-20.958a5.9,5.9,0,1,1-5.9,5.9A5.906,5.906,0,0,1,43.265,102.724ZM59.176,44.37a2.529,2.529,0,0,1-1.485,1.456L38.427,55.82a1.967,1.967,0,0,0-1.061,1.746v43.242a9.7,9.7,0,0,0-3.06,11.822h-2.84V79.2H27.532V112.63H20.759a9.742,9.742,0,0,0,.866-3.933h.007V59.532a1.967,1.967,0,0,0-3.843-.589L11.918,77.629a2.365,2.365,0,0,1-3.28,1.308,2.414,2.414,0,0,1-1.1-3.123l5.25-18.095A9.5,9.5,0,0,1,21.6,51.666H35.526a1.959,1.959,0,0,0,.906-.221L55.977,41.3a2.421,2.421,0,0,1,3.095,1.147A2.393,2.393,0,0,1,59.176,44.37Z" transform="translate(0 -32)"/>
          </g>
        </g>
        <g id="Group_196" data-name="Group 196" transform="translate(62.931 74.637)">
          <g id="Group_195" data-name="Group 195">
            <path id="Path_377" data-name="Path 377" class="cls-2" d="M274.661,320.494a9.833,9.833,0,1,0-13.9-.181q.09.092.181.181A9.06,9.06,0,0,0,256,328.531v16.48a1.966,1.966,0,0,0,1.966,1.967h19.667a1.966,1.966,0,0,0,1.967-1.966h0v-16.48A9.06,9.06,0,0,0,274.661,320.494ZM267.8,307.572a5.9,5.9,0,1,1-5.9,5.9A5.9,5.9,0,0,1,267.8,307.572Zm7.866,35.472H259.933V328.531a5.16,5.16,0,0,1,5.154-5.153h5.425a5.16,5.16,0,0,1,5.154,5.153Z" transform="translate(-256 -303.618)"/>
          </g>
        </g>
        <g id="Group_198" data-name="Group 198" transform="translate(94.397 74.637)">
          <g id="Group_197" data-name="Group 197">
            <path id="Path_378" data-name="Path 378" class="cls-2" d="M402.661,320.494a9.833,9.833,0,1,0-13.9-.181q.09.092.181.181A9.06,9.06,0,0,0,384,328.531v16.48a1.966,1.966,0,0,0,1.966,1.967h19.667a1.966,1.966,0,0,0,1.967-1.966h0v-16.48A9.06,9.06,0,0,0,402.661,320.494ZM395.8,307.572a5.9,5.9,0,1,1-5.9,5.9A5.9,5.9,0,0,1,395.8,307.572Zm7.866,35.472H387.933V328.531a5.16,5.16,0,0,1,5.154-5.153h5.425a5.16,5.16,0,0,1,5.154,5.153Z" transform="translate(-384 -303.618)"/>
          </g>
        </g>
      </g>
      <text id="Mentorship" class="cls-3" transform="translate(751 2014.707)"><tspan x="-58.415" y="0">Mentorship</tspan></text>
    </g>
  </g>
</svg>
