<svg xmlns="http://www.w3.org/2000/svg" xmlns:xlink="http://www.w3.org/1999/xlink" viewBox="0 0 377 377">
  <defs>
    <style>
      .cls-1 {
        fill: #fff;
      }

      .cls-2 {
        fill: #165ab7;
        font-size: 19px;
        font-family: SegoeUI, Segoe UI;
      }

      .cls-3 {
        fill: #20d860;
      }

      .cls-4 {
        filter: url(#Rectangle_45);
      }
    </style>
    <filter id="Rectangle_45" x="0" y="0" width="377" height="377" filterUnits="userSpaceOnUse">
      <feOffset dy="6" input="SourceAlpha"/>
      <feGaussianBlur stdDeviation="8.5" result="blur"/>
      <feFlood flood-opacity="0.251"/>
      <feComposite operator="in" in2="blur"/>
      <feComposite in="SourceGraphic"/>
    </filter>
  </defs>
  <g id="Group_415" data-name="Group 415" transform="translate(-581.5 -532.5)">
    <g class="cls-4" transform="matrix(1, 0, 0, 1, 581.5, 532.5)">
      <rect id="Rectangle_45-2" data-name="Rectangle 45" class="cls-1" width="326" height="326" rx="10" transform="translate(25.5 19.5)"/>
    </g>
    <g id="Group_290" data-name="Group 290" transform="translate(34 -1608.873)">
      <text id="Workshop_Festivals" data-name="Workshop &amp;
Festivals" class="cls-2" transform="translate(734.607 2373.209)"><tspan x="-52.858" y="0">Workshop &amp;</tspan><tspan x="-34.874" y="25">Festivals</tspan></text>
      <g id="_006-marketing" data-name="006-marketing" transform="translate(674 2247.873)">
        <g id="Group_252" data-name="Group 252" transform="translate(0 0)">
          <g id="Group_251" data-name="Group 251">
            <path id="Path_419" data-name="Path 419" class="cls-3" d="M98.037,55.342a7.32,7.32,0,0,0-6.678-.9L59.5,65.867a2.438,2.438,0,1,0,1.646,4.589L93,59.027a2.438,2.438,0,0,1,3.261,2.295v70.306A2.438,2.438,0,0,1,93,133.922l-1.757-.63V108.257a2.438,2.438,0,0,0-4.875,0v23.286L34.111,112.8V80.152l10.558-3.787a2.438,2.438,0,1,0-1.646-4.589L31.25,76H12.188A12.2,12.2,0,0,0,0,88.187v16.576a12.2,12.2,0,0,0,12.188,12.188h.24l11.917,32.177a5.164,5.164,0,0,0,4.823,3.357H41.382a5.143,5.143,0,0,0,4.822-6.928l-9.926-26.8,55.08,19.757a7.313,7.313,0,0,0,9.782-6.884V61.322A7.319,7.319,0,0,0,98.037,55.342ZM12.188,112.076a7.321,7.321,0,0,1-7.313-7.313V88.187a7.321,7.321,0,0,1,7.313-7.313H29.236v31.2H12.188ZM41.633,147.25a.267.267,0,0,1-.251.36H29.167a.268.268,0,0,1-.251-.175l-11.29-30.484H30.412Z" transform="translate(0 -54.01)"/>
          </g>
        </g>
        <g id="Group_254" data-name="Group 254" transform="translate(49.393 14.76)">
          <g id="Group_253" data-name="Group 253">
            <path id="Path_420" data-name="Path 420" class="cls-3" d="M206.791,115.273a2.436,2.436,0,1,0,.714,1.723A2.446,2.446,0,0,0,206.791,115.273Z" transform="translate(-202.63 -114.559)"/>
          </g>
        </g>
        <g id="Group_256" data-name="Group 256" transform="translate(106.493 31.118)">
          <g id="Group_255" data-name="Group 255">
            <path id="Path_421" data-name="Path 421" class="cls-3" d="M441.037,182.383a2.438,2.438,0,1,0-3.448,3.447,10.161,10.161,0,0,1,0,14.371,2.438,2.438,0,1,0,3.447,3.448,15.037,15.037,0,0,0,0-21.266Z" transform="translate(-436.875 -181.669)"/>
          </g>
        </g>
        <g id="Group_258" data-name="Group 258" transform="translate(113.386 24.226)">
          <g id="Group_257" data-name="Group 257">
            <path id="Path_422" data-name="Path 422" class="cls-3" d="M469.311,154.108a2.438,2.438,0,1,0-3.448,3.447,19.909,19.909,0,0,1,0,28.155,2.438,2.438,0,1,0,3.447,3.448,24.784,24.784,0,0,0,0-35.05Z" transform="translate(-465.149 -153.394)"/>
          </g>
        </g>
        <g id="Group_260" data-name="Group 260" transform="translate(39.069 20.053)">
          <g id="Group_259" data-name="Group 259">
            <path id="Path_423" data-name="Path 423" class="cls-3" d="M210.167,136.274h-5.462a2.436,2.436,0,0,0-.391,4.841l-17.322,17.323-8.366-8.366a2.438,2.438,0,0,0-3.448,0l-14.19,14.19a2.438,2.438,0,1,0,3.447,3.448L176.9,155.243l8.366,8.366a2.438,2.438,0,0,0,3.448,0l19.048-19.048a2.436,2.436,0,0,0,4.842-.387v-5.462A2.438,2.438,0,0,0,210.167,136.274Z" transform="translate(-160.274 -136.274)"/>
          </g>
        </g>
        <g id="Group_262" data-name="Group 262" transform="translate(86.372 41.712)">
          <g id="Group_261" data-name="Group 261">
            <path id="Path_424" data-name="Path 424" class="cls-3" d="M358.491,225.843a2.436,2.436,0,1,0,.715,1.723A2.451,2.451,0,0,0,358.491,225.843Z" transform="translate(-354.33 -225.129)"/>
          </g>
        </g>
      </g>
    </g>
  </g>
</svg>
