<svg xmlns="http://www.w3.org/2000/svg" xmlns:xlink="http://www.w3.org/1999/xlink" viewBox="0 0 377 377">
  <defs>
    <style>
      .cls-1 {
        fill: #fff;
      }

      .cls-2 {
        fill: #165ab7;
        font-size: 22px;
        font-family: SegoeUI, Segoe UI;
      }

      .cls-3 {
        fill: #20d860;
      }

      .cls-4 {
        filter: url(#Rectangle_46);
      }
    </style>
    <filter id="Rectangle_46" x="0" y="0" width="377" height="377" filterUnits="userSpaceOnUse">
      <feOffset dy="6" input="SourceAlpha"/>
      <feGaussianBlur stdDeviation="8.5" result="blur"/>
      <feFlood flood-opacity="0.251"/>
      <feComposite operator="in" in2="blur"/>
      <feComposite in="SourceGraphic"/>
    </filter>
  </defs>
  <g id="Group_414" data-name="Group 414" transform="translate(-961.5 -532.5)">
    <g class="cls-4" transform="matrix(1, 0, 0, 1, 961.5, 532.5)">
      <rect id="Rectangle_46-2" data-name="Rectangle 46" class="cls-1" width="326" height="326" rx="10" transform="translate(25.5 19.5)"/>
    </g>
    <g id="Group_291" data-name="Group 291" transform="translate(17 -1600.501)">
      <text id="Tools" class="cls-2" transform="translate(1133.291 2388.162)"><tspan x="-24.911" y="0">Tools</tspan></text>
      <g id="_007-innovation" data-name="007-innovation" transform="translate(1086 2239.501)">
        <g id="Group_264" data-name="Group 264" transform="translate(22.075 22.075)">
          <g id="Group_263" data-name="Group 263">
            <path id="Path_425" data-name="Path 425" class="cls-3" d="M194.769,115.223h-5.25a18.261,18.261,0,0,0-1.22-2.948l3.712-3.712a2.457,2.457,0,0,0,0-3.474l-4.369-4.369a2.46,2.46,0,0,0-3.474,0l-3.712,3.712a18.251,18.251,0,0,0-2.948-1.22v-5.25A2.46,2.46,0,0,0,175.05,95.5h-6.179a2.459,2.459,0,0,0-2.457,2.457v5.25a18.275,18.275,0,0,0-2.948,1.22l-3.713-3.713a2.46,2.46,0,0,0-3.474,0l-4.369,4.368a2.456,2.456,0,0,0,0,3.474l3.712,3.712a18.252,18.252,0,0,0-1.22,2.948h-5.25a2.459,2.459,0,0,0-2.457,2.457v6.179a2.459,2.459,0,0,0,2.457,2.457h5.25a18.264,18.264,0,0,0,1.22,2.948l-3.712,3.712a2.459,2.459,0,0,0,0,3.474l4.369,4.369a2.459,2.459,0,0,0,3.474,0l3.712-3.712a18.254,18.254,0,0,0,2.948,1.22v5.25a2.459,2.459,0,0,0,2.457,2.457h6.179a2.46,2.46,0,0,0,2.457-2.457v-5.25a18.259,18.259,0,0,0,2.948-1.22l3.712,3.712a2.46,2.46,0,0,0,3.474,0l4.368-4.369a2.457,2.457,0,0,0,0-3.474l-3.712-3.712a18.253,18.253,0,0,0,1.22-2.948h5.25a2.46,2.46,0,0,0,2.457-2.457V117.68A2.459,2.459,0,0,0,194.769,115.223Zm-1.01,7.625H188.2a1.734,1.734,0,0,0-1.688,1.339,14.823,14.823,0,0,1-1.844,4.453,1.734,1.734,0,0,0,.247,2.141l3.932,3.932-2.94,2.94-3.932-3.932a1.733,1.733,0,0,0-2.141-.247,14.836,14.836,0,0,1-4.453,1.844,1.733,1.733,0,0,0-1.339,1.688v5.561h-4.157v-5.561a1.734,1.734,0,0,0-1.339-1.688,14.816,14.816,0,0,1-4.453-1.844,1.735,1.735,0,0,0-2.141.247l-3.932,3.932-2.94-2.94,3.932-3.932a1.734,1.734,0,0,0,.247-2.141,14.827,14.827,0,0,1-1.844-4.453,1.733,1.733,0,0,0-1.688-1.339h-5.561v-4.157h5.561a1.734,1.734,0,0,0,1.688-1.339,14.828,14.828,0,0,1,1.844-4.453,1.734,1.734,0,0,0-.247-2.141l-3.932-3.932,2.94-2.94,3.932,3.932a1.733,1.733,0,0,0,2.141.247,14.822,14.822,0,0,1,4.453-1.844,1.733,1.733,0,0,0,1.339-1.688V98.972h4.157v5.561a1.734,1.734,0,0,0,1.339,1.688,14.83,14.83,0,0,1,4.453,1.844,1.735,1.735,0,0,0,2.141-.247l3.932-3.932,2.94,2.94-3.932,3.932a1.733,1.733,0,0,0-.247,2.141,14.829,14.829,0,0,1,1.844,4.453,1.733,1.733,0,0,0,1.688,1.339h5.561Z" transform="translate(-146.697 -95.505)"/>
          </g>
        </g>
        <g id="Group_266" data-name="Group 266" transform="translate(38.052 38.052)">
          <g id="Group_265" data-name="Group 265">
            <path id="Path_426" data-name="Path 426" class="cls-3" d="M225.107,164.628a9.287,9.287,0,1,0,9.287,9.287A9.3,9.3,0,0,0,225.107,164.628Zm0,15.107a5.82,5.82,0,1,1,5.82-5.82A5.827,5.827,0,0,1,225.107,179.735Z" transform="translate(-215.82 -164.628)"/>
          </g>
        </g>
        <g id="Group_268" data-name="Group 268" transform="translate(0 45.605)">
          <g id="Group_267" data-name="Group 267">
            <path id="Path_427" data-name="Path 427" class="cls-3" d="M58.677,197.308H52.926a1.734,1.734,0,1,0,0,3.467h5.751a1.734,1.734,0,1,0,0-3.467Z" transform="translate(-51.192 -197.308)"/>
          </g>
        </g>
        <g id="Group_270" data-name="Group 270" transform="translate(85.46 45.605)">
          <g id="Group_269" data-name="Group 269">
            <path id="Path_428" data-name="Path 428" class="cls-3" d="M428.412,197.308h-5.751a1.734,1.734,0,1,0,0,3.467h5.751a1.734,1.734,0,0,0,0-3.467Z" transform="translate(-420.927 -197.308)"/>
          </g>
        </g>
        <g id="Group_272" data-name="Group 272" transform="translate(13.357 73.787)">
          <g id="Group_271" data-name="Group 271" transform="translate(0)">
            <path id="Path_429" data-name="Path 429" class="cls-3" d="M116.007,319.74a1.734,1.734,0,0,0-2.452,0l-4.067,4.067a1.734,1.734,0,0,0,2.452,2.452l4.067-4.067A1.734,1.734,0,0,0,116.007,319.74Z" transform="translate(-108.981 -319.232)"/>
          </g>
        </g>
        <g id="Group_274" data-name="Group 274" transform="translate(73.786 13.358)">
          <g id="Group_273" data-name="Group 273">
            <path id="Path_430" data-name="Path 430" class="cls-3" d="M377.45,58.3a1.734,1.734,0,0,0-2.452,0l-4.067,4.067a1.734,1.734,0,0,0,2.452,2.452l4.067-4.067A1.734,1.734,0,0,0,377.45,58.3Z" transform="translate(-370.423 -57.791)"/>
          </g>
        </g>
        <g id="Group_276" data-name="Group 276" transform="translate(45.606 0)">
          <g id="Group_275" data-name="Group 275">
            <path id="Path_431" data-name="Path 431" class="cls-3" d="M250.235,0A1.733,1.733,0,0,0,248.5,1.734V7.485a1.734,1.734,0,0,0,3.467,0V1.734A1.733,1.733,0,0,0,250.235,0Z" transform="translate(-248.501 0)"/>
          </g>
        </g>
        <g id="Group_278" data-name="Group 278" transform="translate(73.786 73.787)">
          <g id="Group_277" data-name="Group 277">
            <path id="Path_432" data-name="Path 432" class="cls-3" d="M377.45,323.807l-4.067-4.067a1.734,1.734,0,1,0-2.452,2.452L375,326.258a1.734,1.734,0,1,0,2.452-2.452Z" transform="translate(-370.423 -319.232)"/>
          </g>
        </g>
        <g id="Group_280" data-name="Group 280" transform="translate(13.357 13.358)">
          <g id="Group_279" data-name="Group 279" transform="translate(0)">
            <path id="Path_433" data-name="Path 433" class="cls-3" d="M116.007,62.366,111.941,58.3a1.734,1.734,0,1,0-2.452,2.452l4.067,4.067a1.734,1.734,0,0,0,2.452-2.452Z" transform="translate(-108.981 -57.791)"/>
          </g>
        </g>
        <g id="Group_282" data-name="Group 282" transform="translate(49.65 12.607)">
          <g id="Group_281" data-name="Group 281">
            <path id="Path_434" data-name="Path 434" class="cls-3" d="M298.273,85.03a34.864,34.864,0,0,0-30.33-30.472,1.734,1.734,0,1,0-.42,3.442,31.224,31.224,0,0,1,27.306,27.433,1.734,1.734,0,0,0,1.719,1.532,1.8,1.8,0,0,0,.2-.012A1.733,1.733,0,0,0,298.273,85.03Z" transform="translate(-265.999 -54.545)"/>
          </g>
        </g>
        <g id="Group_284" data-name="Group 284" transform="translate(12.513 12.61)">
          <g id="Group_283" data-name="Group 283">
            <path id="Path_435" data-name="Path 435" class="cls-3" d="M173.2,91.61a1.732,1.732,0,0,0-1.938,1.5,31.239,31.239,0,0,1-14.456,22.6,11.663,11.663,0,0,0-5.511,9.92v7.135H129.015v-7.292a11.416,11.416,0,0,0-5.341-9.656,31.361,31.361,0,0,1,12.648-57.806,1.734,1.734,0,0,0-.426-3.441,34.825,34.825,0,0,0-14.047,64.195,7.924,7.924,0,0,1,3.7,6.708v7.545a4.512,4.512,0,0,0-3.034,4.255v2.471a4.482,4.482,0,0,0,.962,2.774,4.48,4.48,0,0,0-.962,2.774v2.471a4.513,4.513,0,0,0,4.507,4.507h5.45v3.919a4.1,4.1,0,0,0,4.1,4.1h7.165a4.1,4.1,0,0,0,4.1-4.1V152.27h5.45a4.513,4.513,0,0,0,4.507-4.507v-2.471a4.481,4.481,0,0,0-.962-2.774,4.48,4.48,0,0,0,.962-2.774v-2.471a4.512,4.512,0,0,0-3.034-4.255V125.63a8.214,8.214,0,0,1,3.888-6.983,34.693,34.693,0,0,0,16.052-25.1A1.732,1.732,0,0,0,173.2,91.61Zm-28.829,64.578a.641.641,0,0,1-.632.633h-7.165a.641.641,0,0,1-.632-.633V152.27h8.429Zm9.958-8.426a1.054,1.054,0,0,1-1.04,1.04H127.022a1.054,1.054,0,0,1-1.04-1.04v-2.471a1.054,1.054,0,0,1,1.04-1.04h26.265a1.054,1.054,0,0,1,1.04,1.04Zm0-8.019a1.054,1.054,0,0,1-1.04,1.04H127.022a1.054,1.054,0,0,1-1.04-1.04v-2.471a1.054,1.054,0,0,1,1.04-1.04h26.265a1.054,1.054,0,0,1,1.04,1.04Z" transform="translate(-105.328 -54.556)"/>
          </g>
        </g>
      </g>
    </g>
  </g>
</svg>
