<svg xmlns="http://www.w3.org/2000/svg" xmlns:xlink="http://www.w3.org/1999/xlink" viewBox="0 0 510 349">
  <defs>
    <style>
      .cls-1, .cls-3 {
        fill: #fff;
      }

      .cls-1 {
        stroke: #89ff00;
        stroke-width: 4px;
      }

      .cls-2 {
        fill: #f7f7f7;
      }

      .cls-4 {
        fill: #b9b9b9;
      }

      .cls-5 {
        font-size: 29px;
      }

      .cls-5, .cls-6, .cls-7 {
        font-family: SegoeUI, Segoe UI;
      }

      .cls-6 {
        fill: #00265a;
        font-size: 23px;
      }

      .cls-7 {
        fill: #3b8eff;
        font-size: 11px;
      }

      .cls-8 {
        stroke: none;
      }

      .cls-9 {
        fill: none;
      }

      .cls-10 {
        filter: url(#Ellipse_43);
      }

      .cls-11 {
        filter: url(#Rectangle_53);
      }

      .cls-12 {
        filter: url(#Rectangle_52);
      }
    </style>
    <filter id="Rectangle_52" x="0" y="0" width="510" height="349" filterUnits="userSpaceOnUse">
      <feOffset dx="-2" dy="8" input="SourceAlpha"/>
      <feGaussianBlur stdDeviation="5.5" result="blur"/>
      <feFlood flood-opacity="0.686"/>
      <feComposite operator="in" in2="blur"/>
      <feComposite in="SourceGraphic"/>
    </filter>
    <filter id="Rectangle_53" x="6" y="214" width="502" height="120" filterUnits="userSpaceOnUse">
      <feOffset dy="-3" input="SourceAlpha"/>
      <feGaussianBlur stdDeviation="5.5" result="blur-2"/>
      <feFlood flood-opacity="0.11"/>
      <feComposite operator="in" in2="blur-2"/>
      <feComposite in="SourceGraphic"/>
    </filter>
    <filter id="Ellipse_43" x="29.5" y="248.5" width="68" height="68" filterUnits="userSpaceOnUse">
      <feOffset dy="3" input="SourceAlpha"/>
      <feGaussianBlur stdDeviation="3" result="blur-3"/>
      <feFlood flood-opacity="0.161"/>
      <feComposite operator="in" in2="blur-3"/>
      <feComposite in="SourceGraphic"/>
    </filter>
  </defs>
  <g id="Group_419" data-name="Group 419" transform="translate(-515.5 -3918.5)">
    <g class="cls-12" transform="matrix(1, 0, 0, 1, 515.5, 3918.5)">
      <g id="Rectangle_52-2" data-name="Rectangle 52" class="cls-1" transform="translate(18.5 8.5)">
        <rect class="cls-8" width="477" height="316" rx="10"/>
        <rect class="cls-9" x="2" y="2" width="473" height="312" rx="8"/>
      </g>
    </g>
    <g class="cls-11" transform="matrix(1, 0, 0, 1, 515.5, 3918.5)">
      <path id="Rectangle_53-2" data-name="Rectangle 53" class="cls-2" d="M0,0H469a0,0,0,0,1,0,0V77a10,10,0,0,1-10,10H10A10,10,0,0,1,0,77V0A0,0,0,0,1,0,0Z" transform="translate(22.5 233.5)"/>
    </g>
    <g class="cls-10" transform="matrix(1, 0, 0, 1, 515.5, 3918.5)">
      <circle id="Ellipse_43-2" data-name="Ellipse 43" class="cls-3" cx="25" cy="25" r="25" transform="translate(38.5 254.5)"/>
    </g>
    <path id="Path_450" data-name="Path 450" class="cls-4" d="M-857.316,3660.805h-10.331v17.829h10.331v-9.021h-6.051V3663.8h6.051Z" transform="translate(1416.634 285.602)"/>
    <path id="Path_451" data-name="Path 451" class="cls-4" d="M-857.316,3660.805h-10.331v17.829h10.331v-9.021h-6.051V3663.8h6.051Z" transform="translate(1427.998 285.602)"/>
    <text id="Shaskjdnak_ldkalsdkm_lkdmalsdmasld_a_alksdma_lsd_as_daklsndas_amdalksmdlaksdmla" data-name="Shaskjdnak ldkalsdkm
lkdmalsdmasld;a
alksdma;lsd;as,daklsndas
amdalksmdlaksdmla" class="cls-5" transform="translate(595 4003)"><tspan x="0" y="0">Shaskjdnak ldkalsdkm</tspan><tspan x="0" y="35">lkdmalsdmasld;a</tspan><tspan x="0" y="70">alksdma;lsd;as,daklsndas</tspan><tspan x="0" y="105">amdalksmdlaksdmla</tspan></text>
    <text id="Dr._Keith_Miller" data-name="Dr. Keith Miller" class="cls-6" transform="translate(621 4198)"><tspan x="0" y="0">Dr. Keith Miller</tspan></text>
    <text id="Rector_at_Virginia_State_Univfersity" data-name="Rector at Virginia State Univfersity" class="cls-7" transform="translate(622 4214)"><tspan x="0" y="0">Rector at Virginia State Univfersity</tspan></text>
  </g>
</svg>
