<svg xmlns="http://www.w3.org/2000/svg" viewBox="0 0 194.49 98.245"><defs><style>.a,.b{fill:#fff;}.b{font-size:15px;font-family:ArialMT, Arial;}.c{fill:none;stroke:#fff;}</style></defs><g transform="translate(-320 -233.322)"><g transform="translate(320 233.322)"><g transform="translate(0.012 0)"><path class="a" d="M142.643,62.577c-.174.068-.164.222-.164.367v.724c0,2.965,0,5.92.01,8.884a.548.548,0,0,1-.357.579c-2.163.975-4.317,1.97-6.47,2.955-1.526.7-3.042,1.41-4.568,2.115-2.173,1-4.355,2-6.538,3-1.091.5-2.173,1-3.264,1.506-1.922.888-3.843,1.767-5.775,2.656-1.062.493-2.125.985-3.2,1.468-1.574.724-3.148,1.449-4.713,2.192a1.219,1.219,0,0,1-.956.058c-.773-.232-1.564-.425-2.347-.628a1.261,1.261,0,0,0-.193,0c-.01.106-.039.2-.039.3,0,.56-.01,1.12,0,1.68a.425.425,0,0,1-.28.464q-2.042.927-4.066,1.873l-1.42.637c-.077,0-.164-.01-.241-.01H84.924c-.763-.29-1.516-.57-2.279-.859-2.163-.83-4.326-1.671-6.48-2.5-1.854-.715-3.7-1.439-5.553-2.154-2.144-.83-4.3-1.661-6.441-2.491-1.835-.715-3.679-1.42-5.514-2.134-2.086-.811-4.172-1.613-6.258-2.424Q48.734,79.419,45.06,78l-7.822-3.013c-1.429-.55-2.858-1.111-4.278-1.661-.367-.145-.367-.145-.367-.55v-13.7c-.232.039-.241-.309-.483-.251v-.56c.155-.048.3-.087.464-.135v-6.9c-.135-.058-.261-.116-.386-.174-.029-.183-.058-.377-.087-.56.84-.367,1.68-.744,2.52-1.111.782-.338,1.564-.676,2.356-1A.348.348,0,0,0,37.238,48c-.01-.106.01-.212,0-.319a1.255,1.255,0,0,1,.4-.966c.328.164.676.309.985.5a.946.946,0,0,0,.995.039c1.632-.724,3.274-1.42,4.915-2.125.4-.164.782-.348,1.178-.5a.439.439,0,0,0,.319-.493c-.019-.155.01-.319-.01-.483a1.267,1.267,0,0,1,.5-1.1,2.829,2.829,0,0,1,1.391.512,1.048,1.048,0,0,0,1.168.116C50.4,42.549,51.762,42,53.1,41.419c1.207-.521,2.424-1.043,3.631-1.564,1.3-.56,2.617-1.13,3.921-1.7,1.226-.531,2.443-1.053,3.67-1.584,1.3-.56,2.617-1.13,3.921-1.7,1.226-.531,2.443-1.053,3.67-1.584,1.323-.57,2.636-1.14,3.959-1.709,1.439-.628,2.887-1.255,4.326-1.873,1.294-.56,2.6-1.111,3.892-1.68.29-.126.57-.28.85-.425H98.308c.5.27.995.56,1.506.821q2.187,1.13,4.375,2.24c.7.357.7.357.686,1.14,0,.077-.019.155-.029.261-.145-.048-.27-.087-.425-.135-.019.164-.039.319-.058.5-.2-.019-.28.068-.28.29.01,1.516.01,3.042,0,4.558a.408.408,0,0,0,.328.425c1.98.782,3.959,1.584,5.929,2.376,1.207.483,2.434.937,3.631,1.458a3.05,3.05,0,0,0,1.516.222c.435-.039.869-.106,1.3-.135,1.091-.068,2.182-.116,3.264-.183a1.041,1.041,0,0,1,.946.483,4.753,4.753,0,0,1,.744,1.835,3.389,3.389,0,0,1,.087.628.432.432,0,0,0,.319.406c2.627,1.043,5.244,2.1,7.87,3.129a1.518,1.518,0,0,0,.628.068c.406-.029.821-.1,1.226-.135.647-.048,1.3-.068,1.951-.116a.527.527,0,0,1,.541.328,3.645,3.645,0,0,1,.357,1.3.584.584,0,0,0,.425.589c1.883.744,3.766,1.478,5.63,2.26a15.267,15.267,0,0,1,1.593.9c.1.048.183.106.28.155v.637c-.261.039-.164.241-.164.377-.01,2.578,0,5.147,0,7.726a.678.678,0,0,0,.01.241c.029.058.106.1.155.145A1.363,1.363,0,0,0,142.643,62.577ZM65.33,36.726c.1-.039.183-.087.28-.126-.01-.029-.029-.058-.039-.087l-.232.116c-.106.039-.212.068-.319.106-.106.058-.212.106-.328.164-.183.077-.377.164-.56.241-.155.058-.309.126-.464.183a1,1,0,0,1,.039.1c.145-.068.28-.145.425-.212.183-.077.377-.155.56-.232.135-.048.27-.106.406-.155A1.666,1.666,0,0,1,65.33,36.726Zm51.781,6.557c.116.039.241.077.357.116l.029-.087c-.126-.039-.261-.068-.386-.106-.106-.058-.212-.106-.319-.164l-.406-.145c-.135-.058-.27-.106-.4-.164s-.27-.106-.406-.155-.27-.106-.4-.155a.342.342,0,0,0-.357-.126l-.029.087c.126.039.251.068.386.106s.27.106.4.155.27.106.4.164.27.106.4.155c.106.058.212.106.319.164A3.414,3.414,0,0,1,117.11,43.283Zm18.174,7.05c-.135-.039-.28-.087-.415-.126a.282.282,0,0,0-.019.087c.145.039.29.087.435.126a.389.389,0,0,0,.406.135C135.517,50.458,135.4,50.4,135.285,50.332ZM66.035,53.77c-.077,0-.145.01-.222.01-.27.039-.55.068-.821.106,0,.039.01.077.01.126a3.659,3.659,0,0,0,1.062-.145c.1-.01.2-.01.3-.019H66.6C66.382,53.674,66.218,53.654,66.035,53.77ZM50.922,56.262c-.212.029-.425.048-.637.077-.1.019-.232-.058-.309.183.145-.048.222-.068.309-.1l.637-.087c.174-.019.357.058.541-.116C51.25,56.233,51.086,56.252,50.922,56.262Zm3.361-14.891c.183-.077.377-.164.56-.241s.377-.164.56-.241.377-.164.56-.241a1.577,1.577,0,0,0,.763-.319,1.852,1.852,0,0,0-.464.145,2.5,2.5,0,0,0-.3.183c-.183.077-.377.164-.56.241s-.377.164-.56.241-.377.155-.56.232c-.116.029-.222.058-.338.077.01.029.029.068.039.1C54.079,41.487,54.186,41.429,54.282,41.371ZM84.46,29.048a.411.411,0,0,0,.406-.212c-.135.048-.27.087-.406.135-.319.155-.637.319-.966.473-.183.077-.377.164-.56.241-.135.058-.27.106-.406.164-.106.029-.2.039-.309.077-.406.155-.811.319-1.217.483-.348.164-.7.328-1.053.493.01.029.029.058.039.087.367-.164.734-.328,1.091-.493.512-.212,1.014-.425,1.526-.637.106-.058.212-.106.319-.164.183-.077.377-.164.56-.241M58.29,55.383c.106-.01.2-.01.309-.019.241-.029.483-.048.724-.077l.56-.087c.183-.019.367-.048.55-.068.116-.019.222-.039.338-.068.126-.01.261-.01.386-.019.183-.029.377-.048.56-.077.106-.01.241.039.28-.193-.222.039-.415.077-.618.106-.1.01-.2.01-.3.019-.183.029-.377.048-.56.077-.106.019-.222.048-.328.068s-.2.01-.309.019c-.212.029-.425.048-.637.077-.135.019-.27.039-.406.068s-.27.048-.406.077c-.106,0-.2.01-.309.01l-.27.029c0,.029.01.058.01.087A.38.38,0,0,0,58.29,55.383Zm-3.843,0c-.183.029-.377.048-.56.077s-.377.048-.56.077c-.212.029-.425.048-.637.077l-.28.058c.01.039.019.068.029.106.087-.029.164-.058.251-.087.212-.029.425-.058.637-.077.183-.029.377-.058.56-.077s.377-.058.56-.077c.212-.029.425-.048.637-.077.174-.01.357.039.512-.145-.193.029-.357.048-.512.068C54.871,55.325,54.659,55.354,54.446,55.383Zm3.438-.406c.183-.029.377-.048.56-.077s.377-.048.56-.077.377-.048.56-.077.415.048.57-.145c-.193.019-.377.048-.57.068s-.377.048-.56.077-.377.048-.56.077-.377.048-.56.077-.377.048-.56.077c-.212.029-.425.058-.637.077l-.821.145c.01.039.01.068.019.106.27-.058.541-.106.811-.164l.637-.087C57.508,55.035,57.7,55.006,57.884,54.977Zm68.033-7.832a.271.271,0,0,0-.386-.048c.126.039.261.068.386.106a.367.367,0,0,0,.357.126.669.669,0,0,1,.029-.077C126.178,47.213,126.043,47.175,125.918,47.146Zm1.043.454a.358.358,0,0,0,.348.126.665.665,0,0,1,.029-.077c-.126-.039-.251-.068-.386-.106a.367.367,0,0,0-.357-.126l-.029.087C126.709,47.532,126.835,47.571,126.96,47.6Zm-2.4-1.024c-.1-.029-.2-.068-.3-.1-.164-.077-.338-.145-.5-.222-.348-.135-.7-.27-1.043-.4-.415-.174-.83-.348-1.255-.5-.753-.29-1.506-.57-2.269-.859-.792-.319-1.574-.647-2.366-.956q-4.215-1.666-8.431-3.312c-.328-.126-.666-.261-1-.386-.1.232-.039.348.164.425.9.338,1.787.686,2.685,1.024q3.636,1.391,7.272,2.762c.493.183,1,.357,1.5.531.241.106.483.222.724.309.937.348,1.864.7,2.8,1.043.348.135.7.27,1.043.4.193.077.377.155.57.232.1.029.2.068.3.1.116.048.222.1.338.145.145.058.28.155.464.039-.126-.039-.251-.087-.377-.126A3.149,3.149,0,0,0,124.556,46.576Zm-70.032,9.28c.193-.019.406.058.57-.135-.193.019-.377.039-.57.068s-.377.048-.56.077c-.212.029-.425.058-.637.077-.183.029-.377.048-.56.077-.222.029-.435.068-.657.1,0,.029.01.048.01.077.212-.029.425-.068.637-.1.183-.029.377-.048.56-.077.212-.029.425-.048.637-.077Zm-6.084.724c-.183.029-.377.048-.56.077-.212.029-.425.048-.637.077-.193.029-.377.058-.57.1,0,.029.01.058.01.1.183-.039.367-.068.56-.106.212-.029.425-.058.637-.077.183-.029.377-.058.56-.077.212-.029.425-.058.637-.077.193-.019.406.058.589-.135-.212.019-.406.039-.589.058C48.865,56.523,48.652,56.552,48.44,56.58Zm13.925-1.835v.145l.328-.058c.106,0,.2-.01.309-.01.3-.048.6-.1.9-.135.541-.068,1.082-.116,1.622-.183.309-.039.618-.106.937-.155a4.734,4.734,0,0,0,.521-.039l2.25-.29,2.134-.261c.773-.1,1.555-.2,2.327-.3.512-.068,1.024-.126,1.545-.193l2.211-.29c.724-.087,1.449-.174,2.173-.27s1.42-.193,2.134-.28c.734-.1,1.478-.174,2.211-.261.261-.029.521-.077.782-.126.2-.039.222-.155.116-.338-.126.01-.261.019-.386.039l-1.42.2-2.134.29c-.859.116-1.709.241-2.569.348-.7.1-1.4.174-2.1.27l-2.047.29c-.879.116-1.767.222-2.646.348s-1.738.251-2.6.377c-.995.135-2,.27-2.994.415-.435.058-.859.106-1.294.164-.589.077-1.168.155-1.758.241A3.8,3.8,0,0,0,62.365,54.746Zm70.274-4.973c.183.077.377.155.56.241.135.058.27.106.4.164.29.106.589.212.879.319a2.216,2.216,0,0,0,1.033.338c-.386-.155-.7-.29-1.033-.425-.27-.106-.531-.212-.8-.319-.164-.058-.319-.106-.483-.164-.184-.077-.377-.155-.56-.241-.164-.048-.328-.1-.492-.135a.282.282,0,0,0-.019.087C132.3,49.685,132.465,49.734,132.639,49.772ZM51,55.856c-.212.029-.425.048-.637.077a7.766,7.766,0,0,0-1.236.241,2.4,2.4,0,0,0,.589-.01c.241-.039.483-.1.724-.155.183-.029.377-.058.56-.077s.406.058.589-.135C51.375,55.827,51.192,55.837,51,55.856Zm62.77-14.012c-.164-.077-.328-.145-.5-.222-.1-.029-.2-.068-.3-.1-.164-.077-.338-.145-.5-.222-.29-.126-.579-.251-.879-.357-.579-.212-1.168-.415-1.748-.618a.865.865,0,0,0-.183-.145c-.4-.164-.792-.319-1.188-.473-.444-.174-.9-.338-1.342-.5a.51.51,0,0,0-.464-.1l.367.183c.183.077.357.164.541.241.753.3,1.506.589,2.25.879.821.319,1.651.647,2.472.966.193.077.377.155.57.232.1.029.2.068.3.1.164.077.338.145.5.222.1.029.2.068.3.1a1.072,1.072,0,0,0,.579.212c-.126-.232-.338-.212-.492-.3A1.9,1.9,0,0,0,113.769,41.844ZM69.4,34.881c-.183.077-.377.155-.56.241-.183.068-.406.068-.589.328a1.035,1.035,0,0,0,.6-.241c.183-.077.377-.155.56-.241.174-.058.348-.126.521-.183-.01-.039-.029-.068-.039-.106A.886.886,0,0,0,69.4,34.881Zm2.269-.859.464-.174.724-.319c.531-.212,1.053-.425,1.584-.647.734-.309,1.458-.637,2.182-.946.676-.27,1.352-.541,2.028-.821,1.506-.628,3.013-1.275,4.519-1.912.512-.212,1.033-.435,1.545-.647.116-.048.261-.087.164-.3a1.139,1.139,0,0,0-.193.039c-.377.164-.763.328-1.14.483-1.41.6-2.81,1.2-4.22,1.806-.966.415-1.922.84-2.887,1.265-.4.164-.782.319-1.168.483-.859.367-1.729.744-2.588,1.12-.222.1-.444.2-.666.3l-.464.174c-.183.077-.377.164-.56.241-.328.135-.657.27-.995.415.01.029.019.048.029.077a2.913,2.913,0,0,0,1.053-.406C71.3,34.176,71.481,34.1,71.674,34.022ZM64.306,54.108c.164-.01.319-.01.531-.019a.337.337,0,0,0-.406-.126c-.126.019-.261.048-.386.068l-.7.116A1.814,1.814,0,0,0,64.306,54.108Zm3.515-.483a2.209,2.209,0,0,0,.357-.01l2.269-.319h.164c.7-.106,1.42-.212,2.125-.309l2.134-.29c.859-.116,1.709-.241,2.569-.348.7-.1,1.4-.174,2.1-.27.869-.116,1.738-.251,2.607-.367s1.709-.222,2.569-.328c.155-.019.251-.077.183-.319-.222.029-.454.048-.686.087l-2.443.348c-.85.126-1.709.251-2.559.367s-1.68.241-2.52.367-1.661.232-2.482.357c-.85.126-1.709.241-2.559.367-.415.058-.84.126-1.255.193-.483.077-.956.155-1.439.222s-.966.126-1.449.183l-.7.116c.01.039.01.068.019.106A4.438,4.438,0,0,0,67.821,53.625Zm-30.2-4.558c-1.439.589-2.868,1.2-4.307,1.777a.453.453,0,0,0-.338.493q.014,3.216.01,6.422c0,.1.019.2.029.328.174-.029.309-.048.454-.068.319-.048.647-.106.966-.155l1.574-.2c.512-.068,1.024-.135,1.535-.212.087-.029.164-.048.251-.077.686-.087,1.371-.174,2.047-.27.84-.116,1.68-.241,2.52-.367s1.651-.251,2.482-.367c.521-.077,1.053-.135,1.584-.2.116-.029.232-.058.338-.087q7.779-1.13,15.557-2.25V38.879a2.22,2.22,0,0,0-.251.068c-1.371.56-2.733,1.12-4.1,1.69-2.144.888-4.278,1.767-6.422,2.656-1.6.666-3.2,1.333-4.8,1.989-.087.029-.164.048-.251.077-.3.135-.608.27-.908.4-1.12.464-2.231.917-3.351,1.381-1.487.608-2.965,1.226-4.452,1.835A.917.917,0,0,1,37.624,49.067Zm0,25.668h.1c.155.077.309.164.464.232q3.172,1.231,6.354,2.453c.676.261,1.371.5,2.057.753.058.029.116.058.164.087.608.241,1.217.473,1.825.715,1.864.724,3.718,1.449,5.582,2.163,2.279.879,4.568,1.767,6.856,2.646.406.155.811.309,1.255.483V55.248c-.589.068-1.149.135-1.719.2l-2.134.261c-.753.1-1.5.2-2.25.29-.724.1-1.449.183-2.173.27s-1.42.193-2.134.28c-.734.1-1.478.174-2.211.261-.966.126-1.922.251-2.878.386a1.169,1.169,0,0,0-.183.01l-1.729.232c-.55.068-1.1.145-1.651.212-.7.087-1.42.174-2.125.27l-1.613.2-1.651.2c-.193.029-.377.048-.57.077-.715.087-1.42.164-2.134.28-.7.106-1.42.126-2.105.3V72.949C34.543,73.557,36.088,74.147,37.624,74.736Zm47.261,18.29c.087-.657.058-40.318-.029-40.637-.415.048-.83.087-1.255.145-.734.087-1.478.193-2.211.28s-1.449.174-2.173.27-1.42.193-2.134.28c-.734.1-1.478.174-2.221.261-.782.1-1.555.2-2.327.3-.715.087-1.42.183-2.134.27l-2.25.29c-.715.087-1.42.174-2.134.27l-2.289.29c-.367.048-.724.1-1.1.155V84.4Q73.736,88.719,84.885,93.026Zm22.481-29.618V88.729c.56-.261,1.072-.5,1.593-.744l5.736-2.636,3.448-1.593q2.723-1.246,5.447-2.5c1.2-.55,2.395-1.111,3.592-1.661,1.97-.908,3.95-1.816,5.92-2.723,1.053-.483,2.105-.975,3.158-1.458,1.825-.84,3.66-1.68,5.485-2.511a.509.509,0,0,0,.348-.541q-.014-4.621-.01-9.242c0-.116-.019-.232-.029-.4-.386.029-.744.068-1.1.068l-4.317.087c-1.439.029-2.878.058-4.317.077s-2.849.058-4.278.077-2.849.058-4.278.077-2.849.058-4.278.077-2.849.058-4.278.077c-1.535.029-3.061.058-4.6.077-.946.01-1.893.01-2.839.019A1.609,1.609,0,0,1,107.367,63.408ZM88.458,93.055V78.734c0-.531-.019-1.053.019-1.574.676-.087,6.074-.048,6.383.039V92.553c0,.56-.077.579.6.579h2c.657,0,.6.019.6-.618V52.65a2.809,2.809,0,0,0-.039-.3c-.7-.087-12.457-.048-12.728.039-.077.666-.048,40.4.039,40.675A14.118,14.118,0,0,0,88.458,93.055Zm18.9-30.555h.521q6.765-.029,13.52-.068,4.78-.014,9.56-.01c3.544,0,7.1-.01,10.642-.01.154,0,.309-.01.473-.019.01-.155.019-.261.019-.367v-7.88c0-.386,0-.386-.386-.531-1.651-.628-3.3-1.265-4.964-1.893q-5.548-2.1-11.086-4.2c-3.11-1.178-6.219-2.376-9.329-3.563q-4.288-1.637-8.585-3.264a2.913,2.913,0,0,0-.377-.116C107.357,47.9,107.357,55.171,107.357,62.5ZM84.9,29.531q-11.183,4.621-22.269,9.2V53.8c7.436-1.082,14.843-2.154,22.269-3.235Zm13.133-.087H85.706c-.116,0-.241.01-.357.019-.01,0-.019.019-.029.019l-.029.029c-.077.811-.039,20.695.048,21.023.126.01.27.019.415.019H97.835a.211.211,0,0,0,.222-.232V29.879C98.057,29.753,98.038,29.618,98.038,29.444Zm.377,22.926a2.658,2.658,0,0,0-.029.28q.014,20.135.019,40.26c0,.01.01.019.019.029s.029.01.068.029c1.738-.811,3.5-1.622,5.244-2.434.087-1.3.048-37.054-.048-37.372C101.949,52.9,100.2,52.64,98.414,52.37Zm8.6,36.387v-25c-.01-.338-.029-.357-.367-.367-.666-.01-1.333-.01-2-.01-.56,0-.56,0-.56.57V87.7c0,.319.01.319.319.406l2.269.608A1.917,1.917,0,0,0,107.019,88.757Zm-8.6-38.213c1.767.309,3.525.608,5.321.927.01-.183.019-.319.019-.444q0-9.213.01-18.435a.515.515,0,0,0-.328-.55c-1.545-.753-3.081-1.526-4.616-2.289-.116-.058-.232-.1-.4-.164C98.414,36.6,98.414,43.553,98.414,50.545Zm5.949,2.685c-.348-.01-.28.232-.28.425v8.6c0,.164.077.241.251.241h2.443a.215.215,0,0,0,.241-.241V40.936c0-.126-.019-.251-.029-.406-.2.029-.357.058-.512.087l-1.989.435c-.4.087-.415.1-.415.493v9.6c0,.377.039.415.435.473a.581.581,0,0,1,.193.029c.058.039.145.106.145.164a2.738,2.738,0,0,1-.029.888h-.425C104.392,52.863,104.373,53.017,104.363,53.23ZM89.907,78.463V92.842c-.01.193.068.3.28.3h2.955c.183,0,.27-.077.27-.27V78.8c0-.338-.029-.367-.367-.367H90.167C90.1,78.434,90.032,78.454,89.907,78.463Zm3.824,14.679h.579a.2.2,0,0,0,.222-.222V77.951c0-.155-.01-.309-.019-.454H88.777V92.64c0,.512.029.541.541.5a1.449,1.449,0,0,0,.261-.077V78.144h4.143C93.731,83.137,93.731,88.1,93.731,93.142Zm4.288-64.76c.048-.415.029-.435-.319-.444H85.619c-.367,0-.4.048-.3.444Zm.01,22.53H85.291v.357H98.028C98.028,51.144,98.028,51.037,98.028,50.912Zm-.01,1.082c.01-.338.01-.348-.232-.367a2.013,2.013,0,0,0-.241,0H85.783a2.708,2.708,0,0,0-.28,0c-.222.019-.241.058-.183.367Zm23.544-6.982a6.844,6.844,0,0,0-.415-2.086,2.329,2.329,0,0,0-.57-.946.465.465,0,0,0-.8.077,2,2,0,0,0-.183.309,4.494,4.494,0,0,0-.348,1.758C120.017,44.413,120.761,44.7,121.562,45.011ZM104.17,40.057c.8-.174,1.6-.357,2.414-.531.01-.029.01-.058.019-.077-.811-.444-1.593-.956-2.434-1.371A5.454,5.454,0,0,0,104.17,40.057ZM98.453,50.9c-.1.386-.077.425.251.473l1.178.174c1.516.251,3.042.5,4.558.744a.474.474,0,0,0,.1-.039c-.01-.087-.01-.183-.019-.3C102.47,51.607,100.462,51.26,98.453,50.9Zm-.019-22.8c-.058.367-.058.367.27.531,1.825.917,3.65,1.825,5.466,2.743.1.048.212.087.319.135.126-.28-.077-.328-.222-.406-1.082-.56-2.153-1.111-3.235-1.661-.28-.145-.56-.3-.85-.454Zm20.115,13.732c-1.014.087-1.989.174-2.965.251,0,.029-.01.048-.01.077l2.491.985C118.24,42.7,118.385,42.3,118.549,41.834ZM103.958,52.853c.077-.328-.164-.309-.3-.338-.406-.077-.811-.126-1.217-.183-1.072-.174-2.144-.367-3.225-.521-.261-.039-.531-.174-.8-.068-.068.183,0,.27.164.3.27.048.55.087.821.135.811.126,1.622.251,2.443.367C102.548,52.65,103.243,52.747,103.958,52.853ZM98.434,28.884c-.126.3.087.338.232.415,1.709.84,3.409,1.68,5.118,2.53.058.029.116.039.183.068.039-.261-.155-.29-.28-.357q-2.448-1.246-4.915-2.491A2.779,2.779,0,0,0,98.434,28.884Zm35.509,19.208a2.121,2.121,0,0,0-.386,1.642c.27.106.55.212.869.348A3.689,3.689,0,0,0,133.942,48.092Zm-15.055-4.181a5.1,5.1,0,0,1,.618-2.105c-.367,0-.464.039-.618.27a3.1,3.1,0,0,0-.444,1.265C118.366,43.785,118.366,43.8,118.887,43.911ZM97.97,28.788a.058.058,0,0,1,.01-.039H85.358v.039Zm35,19.353c-.628.048-1.217.106-1.873.155a5.185,5.185,0,0,0,1.671.637C132.822,48.681,132.89,48.43,132.967,48.14ZM47.281,43.109v.744a1.611,1.611,0,0,0,.782-.309C47.773,43.389,47.551,43.264,47.281,43.109Zm83.929,5.63c-.01.029-.029.058-.039.087.493.193.975.435,1.487.579.01-.029.019-.048.029-.077C132.195,49.135,131.7,48.942,131.21,48.739ZM56.957,55.586a1.132,1.132,0,0,0-.937.106C56.378,55.653,56.667,55.624,56.957,55.586ZM79.516,31.173c-.01-.039-.019-.068-.029-.106l-.9.377a.667.667,0,0,0,.029.077Q79.081,31.361,79.516,31.173ZM38.2,47.368v.473c.155-.077.27-.145.435-.232C38.474,47.522,38.377,47.464,38.2,47.368Zm14.621-5.427a1.185,1.185,0,0,0,.84-.367C53.384,41.7,53.1,41.825,52.824,41.941ZM63.051,54.3c0-.029-.01-.068-.01-.1-.232.019-.464.048-.7.068,0,.029.01.058.01.1C62.587,54.35,62.819,54.33,63.051,54.3Zm-1.42.193a.635.635,0,0,0-.589-.01c0,.029.01.058.01.087C61.245,54.543,61.438,54.514,61.631,54.495Zm68.207-6.18c-.232-.232-.232-.232-.541-.222C129.5,48.179,129.664,48.247,129.838,48.314Zm3.341.869h-.087a.262.262,0,0,0,.087.367ZM66.16,36.388c-.01-.039-.029-.077-.039-.116-.135.058-.27.106-.406.164a.227.227,0,0,1,.019.077C65.88,36.465,66.015,36.426,66.16,36.388Zm.56-.241c-.01-.029-.019-.068-.029-.1-.164-.01-.28.106-.415.212C66.431,36.224,66.575,36.185,66.72,36.146Zm64.238,12.6a.662.662,0,0,1,.029-.077c-.135-.058-.28-.126-.415-.183a.665.665,0,0,1-.029.077C130.678,48.623,130.814,48.681,130.958,48.749Zm-1.188-.029c.019-.029.029-.048.048-.077a.4.4,0,0,0-.425-.068C129.568,48.642,129.674,48.681,129.771,48.72ZM46.392,56.957c0-.029.01-.058.01-.087l-.473.058c0,.019.01.048.01.068C46.083,56.986,46.238,56.976,46.392,56.957Zm81.659-9c.155.155.155.155.377.106C128.264,48.015,128.158,47.986,128.052,47.957ZM67.28,35.9c-.193-.145-.3.039-.435.116ZM57.285,55.422v.106c.1-.01.193-.01.29-.019v-.087ZM67.754,35.577c.019.029.029.068.048.1.077-.048.164-.087.241-.135A.574.574,0,0,0,68,35.461C67.918,35.5,67.831,35.538,67.754,35.577ZM57.662,39.893c.01.029.029.048.039.077.106-.058.212-.106.328-.164-.01-.029-.029-.048-.039-.077C57.875,39.787,57.768,39.835,57.662,39.893Zm-.193.155c-.01-.029-.029-.048-.039-.077-.106.058-.222.106-.328.164.01.029.029.048.039.077C57.247,40.154,57.363,40.1,57.469,40.048ZM133.3,48.575c-.029,0-.058-.01-.087-.01l-.087.348c.029.01.058.01.1.019C133.247,48.816,133.266,48.691,133.3,48.575Zm-9.358-2.607c.01-.019.029-.048.039-.068a.341.341,0,0,0-.126-.077.726.726,0,0,0-.145,0c0,.019-.01.039-.01.068C123.783,45.919,123.861,45.939,123.938,45.967Zm-.608-.328c-.01.019-.019.048-.029.068a.267.267,0,0,0,.261.068.123.123,0,0,1,.01-.058A2.33,2.33,0,0,1,123.329,45.639ZM51.849,55.769c0,.029.01.048.01.077a1.782,1.782,0,0,0,.222-.039c-.01-.029-.01-.058-.019-.087C51.993,55.74,51.926,55.75,51.849,55.769Zm3.679-.126c0,.039-.01.068-.01.106h.222c0-.019.01-.048.01-.068A2.153,2.153,0,0,0,55.528,55.644Zm67.608-9.995c.01-.019.029-.048.039-.068a.341.341,0,0,0-.126-.077.726.726,0,0,0-.145,0c0,.019-.01.039-.01.068A1.765,1.765,0,0,1,123.136,45.649ZM62.954,37.74c-.183-.039-.183-.039-.3.106C62.771,37.807,62.867,37.769,62.954,37.74ZM62.075,38c.01.019.019.048.029.068.1-.039.193-.068.29-.106a1,1,0,0,1-.039-.1A1.856,1.856,0,0,1,62.075,38Zm60.443,7.32c-.01.019-.019.048-.029.068a.72.72,0,0,0,.116.068.731.731,0,0,0,.145.01c0-.019.01-.039.01-.068C122.692,45.378,122.605,45.349,122.518,45.32ZM60.694,54.649c0-.039.01-.068.01-.106-.077-.01-.145-.01-.222-.019,0,.029-.01.058-.01.087A1.784,1.784,0,0,0,60.694,54.649Zm66.971-6.866a.391.391,0,0,0-.048.087l.261.087c.01-.019.019-.048.029-.068A1.824,1.824,0,0,1,127.665,47.783Zm1.449.56a.393.393,0,0,0-.048.087c.087.029.174.058.251.087.01-.019.019-.048.029-.068A1.7,1.7,0,0,1,129.114,48.343Zm-2.926-1.5c-.087-.106-.174-.2-.348-.116C125.995,46.788,126.091,46.817,126.188,46.846Zm3.94,1.922a.471.471,0,0,0-.029.068c.039.019.077.048.116.068a.731.731,0,0,0,.145.01c0-.019.01-.039.01-.058A1.027,1.027,0,0,0,130.128,48.768Zm1.275.56a.179.179,0,0,0,.019-.068c-.106-.039-.212-.077-.319-.106-.01.029-.019.048-.029.077C131.19,49.261,131.3,49.3,131.4,49.328Zm-9.049-4,.029-.087a2.1,2.1,0,0,1-.232-.068.227.227,0,0,0-.019.077A1.5,1.5,0,0,0,122.354,45.33Zm6.557,3.042.029-.087a2.1,2.1,0,0,1-.232-.068.227.227,0,0,0-.019.077A2.022,2.022,0,0,0,128.911,48.372Z" transform="translate(-32.023 -27.6)"/><path class="a" d="M579.2,709h13.143c.077,0,.164.01.241.01a.165.165,0,0,0-.01.068H579.21A.189.189,0,0,0,579.2,709Z" transform="translate(-526.289 -643.197)"/><path class="a" d="M31.464,265.192c-.058.029-.106.048-.164.077v-.637a.107.107,0,0,1,.077,0A5.212,5.212,0,0,1,31.464,265.192Z" transform="translate(-31.3 -241.736)"/><path class="a" d="M31.4,345.1h.077v.56H31.4Z" transform="translate(-31.39 -314.439)"/><path class="a" d="M624.044,559.854V544.847H619.9v14.92a.934.934,0,0,1-.261.077c-.512.039-.541.01-.541-.5V544.2h5.736c.01.145.019.3.019.454v14.968a.2.2,0,0,1-.222.222C624.45,559.854,624.276,559.854,624.044,559.854Z" transform="translate(-562.336 -494.312)"/><path class="a" d="M182.01,355.265c0-.319.01-.637.01-.956V334.831c0-.174-.01-.348-.019-.521a1.167,1.167,0,0,0,.183-.01c0,.106-.01.212-.01.319v20.724C182.126,355.323,182.068,355.294,182.01,355.265Z" transform="translate(-167.447 -304.682)"/><path class="a" d="M180.5,221.593c.1-.077.193-.145.174-.29a2.013,2.013,0,0,1,0-.241v-9.831a2.479,2.479,0,0,0-.077-.454c.087-.029.164-.048.251-.077v10.594c0,.068.01.135.01.2C180.732,221.535,180.616,221.564,180.5,221.593Z" transform="translate(-166.092 -193.018)"/><path class="a" d="M85.686,362.3c0-.145.01-.29.01-.435V346.006c-.164-.01-.28-.019-.4-.029.193-.029.377-.048.57-.077a3.647,3.647,0,0,0-.077.541V362.3A.2.2,0,0,1,85.686,362.3Z" transform="translate(-80.085 -315.162)"/><path class="a" d="M88.5,257.469a1.769,1.769,0,0,0,.087-.377v-7.841c0-.058-.01-.106-.01-.164.058-.029.126-.058.183-.087,0,.666-.01,1.333-.01,2v6.393A2.49,2.49,0,0,1,88.5,257.469Z" transform="translate(-82.976 -227.62)"/><path class="a" d="M246.7,172.667c.28-.126.56-.241.84-.367A1.2,1.2,0,0,1,246.7,172.667Z" transform="translate(-225.899 -158.326)"/><path class="a" d="M279.2,159.628a3.1,3.1,0,0,1,.3-.183,1.985,1.985,0,0,1,.464-.145,1.426,1.426,0,0,1-.763.328Z" transform="translate(-255.26 -146.582)"/><path class="a" d="M892.6,181.158V181.1c.135.048.27.106.4.155v.058C892.861,181.264,892.725,181.216,892.6,181.158Z" transform="translate(-809.424 -166.277)"/><path class="a" d="M175.764,330.787c-.155.01-.3.029-.454.039,0-.019-.01-.048-.01-.068l.473-.058A.267.267,0,0,0,175.764,330.787Z" transform="translate(-161.394 -301.43)"/><path class="a" d="M900.9,184.368V184.3c.135.058.27.106.4.164v.058C901.161,184.474,901.026,184.426,900.9,184.368Z" transform="translate(-816.923 -169.168)"/><path class="a" d="M273.4,162.941c.184-.077.377-.164.56-.241h0c-.183.087-.377.164-.56.241Z" transform="translate(-250.02 -149.653)"/><path class="a" d="M267.6,165.441c.183-.077.377-.164.56-.241h0c-.184.087-.377.164-.56.241Z" transform="translate(-244.781 -151.912)"/><path class="a" d="M261.8,167.941c.183-.077.377-.164.56-.241h0c-.184.077-.377.164-.56.241Z" transform="translate(-239.541 -154.171)"/><path class="a" d="M296.8,153.364a3.467,3.467,0,0,1,.328-.164c.01.029.029.048.039.077-.106.058-.212.106-.328.164C296.829,153.412,296.81,153.393,296.8,153.364Z" transform="translate(-271.161 -141.071)"/><path class="a" d="M291.367,155.777c-.106.058-.222.106-.328.164-.01-.029-.029-.048-.039-.077.106-.058.222-.106.328-.164A.193.193,0,0,1,291.367,155.777Z" transform="translate(-265.921 -143.329)"/><path class="a" d="M908.3,187.577c.029-.029.058-.048.087-.077.106.058.212.106.319.164v.068C908.57,187.683,908.435,187.635,908.3,187.577Z" transform="translate(-823.608 -172.059)"/><path class="a" d="M258.638,170.2c-.1.058-.2.116-.3.174-.01-.029-.029-.068-.039-.1.116-.019.222-.048.338-.077Z" transform="translate(-236.379 -156.429)"/><path class="a" d="M554.477,49.264H554.4c.135-.058.27-.106.406-.164h0C554.69,49.158,554.583,49.216,554.477,49.264Z" transform="translate(-503.884 -47.024)"/><path class="a" d="M421.3,501.849V490c1.6.232,3.167.464,4.742.734v12.709C424.438,502.9,422.864,502.38,421.3,501.849Z" transform="translate(-383.638 -445.346)"/><path class="a" d="M360.372,480.679v11.357a2.544,2.544,0,0,1-.328-.058l-3.216-1.072c-.319-.106-.328-.126-.328-.454V480.5a3.6,3.6,0,0,1,.039-.4C357.823,480.293,359.078,480.486,360.372,480.679Z" transform="translate(-325.096 -436.402)"/><path class="a" d="M421.3,315.683c1.584-.183,3.148-.338,4.732-.483.01.155.029.261.029.367v4.153c0,.4-.029.425-.435.435-.183.01-.377,0-.56.01l-3.312.087H421.3Z" transform="translate(-383.638 -287.427)"/><path class="a" d="M425.771,404.968V409.8a1.95,1.95,0,0,1-.319.029c-.676-.058-1.352-.126-2.028-.193-.406-.039-.821-.087-1.226-.125l-.956-.087a.226.226,0,0,1-.241-.251V405.2c0-.406.029-.425.435-.415.995.029,2,.048,2.994.087C424.872,404.891,425.307,404.939,425.771,404.968Z" transform="translate(-383.367 -368.358)"/><path class="a" d="M360.282,407.71c-1.294-.126-2.549-.251-3.844-.377a3.607,3.607,0,0,1-.039-.4v-3.361c0-.4.01-.406.406-.4,1.062.019,2.134.048,3.2.087a1.81,1.81,0,0,1,.28.058Z" transform="translate(-325.005 -366.91)"/><path class="a" d="M360.292,322.76v4.346c-1.284.126-2.549.126-3.853.126a2.3,2.3,0,0,1-.039-.328v-3.4c0-.377.039-.4.406-.435,1.014-.1,2.038-.2,3.052-.309C359.992,322.75,360.118,322.76,360.292,322.76Z" transform="translate(-325.005 -294.252)"/><path class="a" d="M484,403.163V402.4c1.989.048,3.959.087,5.987.135v.521c-.01.338-.068.386-.406.357-.251-.019-.5-.048-.753-.058-.464-.01-.937-.01-1.4-.019-.927-.019-1.864-.048-2.791-.087A5.859,5.859,0,0,1,484,403.163Z" transform="translate(-440.283 -366.206)"/><path class="a" d="M490.239,367.4v.773c-.106.01-.193.029-.28.039-1.748.029-3.486.048-5.234.077H484.3v-.753c.1-.01.2-.029.3-.039.415-.01.83,0,1.236-.01l3.95-.087Z" transform="translate(-440.554 -334.586)"/><path class="a" d="M492.4,385.144V384.4h4.191v.744Z" transform="translate(-447.872 -349.944)"/><path class="a" d="M493.919,417l3.853.174v.792c-1.284-.1-2.569-.1-3.853-.212-.01-.155-.019-.261-.019-.367S493.91,417.174,493.919,417Z" transform="translate(-449.227 -379.396)"/><path class="a" d="M835.163,419.693c-1.265.2-2.54.415-3.843.628-.01-.135-.019-.241-.019-.348v-5.717a.206.206,0,0,1,.222-.232h.077l1.835-.087c.425-.019.85-.048,1.275-.077.145-.01.29,0,.434,0C835.23,414.15,835.259,419.123,835.163,419.693Z" transform="translate(-754.044 -376.555)"/><path class="a" d="M835.372,512.4v5.833c-1.275.435-2.549.879-3.872,1.333v-6.258C832.755,512.979,834.04,512.719,835.372,512.4Z" transform="translate(-754.225 -465.583)"/><path class="a" d="M891.56,500.8c.01.174.019.29.019.406v4.519c0,.377,0,.377-.367.5-.782.27-1.564.541-2.337.811-.135.048-.27.077-.406.116a53.379,53.379,0,0,1-.048-5.611C889.435,501.292,890.469,501.051,891.56,500.8Z" transform="translate(-805.603 -455.103)"/><path class="a" d="M891.929,416.592c-1.014.193-2.057.367-3.129.492v-5.611l3.09-.174A50.036,50.036,0,0,1,891.929,416.592Z" transform="translate(-805.992 -374.246)"/><path class="a" d="M938.588,496.048c-.85.3-1.7.589-2.588.9v-5.118c.83-.251,1.7-.425,2.588-.628Z" transform="translate(-848.633 -446.43)"/><path class="a" d="M935.9,414.744v-5.128c.869-.039,1.709-.077,2.54-.116a41.319,41.319,0,0,1,.048,4.828C937.648,414.483,936.8,414.618,935.9,414.744Z" transform="translate(-848.543 -372.62)"/><path class="a" d="M974.9,412.519v-4.713c.734-.039,1.449-.068,2.192-.106.01.126.019.241.019.357v3.718c0,.4,0,.386-.415.454C976.117,412.316,975.528,412.413,974.9,412.519Z" transform="translate(-883.777 -370.994)"/><path class="a" d="M974.91,483.612c.7-.164,1.42-.328,2.182-.512.01.174.029.29.029.406v3.679c0,.386,0,.386-.367.512-.6.2-1.207.406-1.854.618C974.91,486.741,974.91,485.205,974.91,483.612Z" transform="translate(-883.777 -439.112)"/><path class="a" d="M1009.941,406.3c.01.174.019.29.019.406v3.312c0,.4,0,.386-.415.454s-.83.145-1.255.212a2.877,2.877,0,0,1-.29,0v-4.259A9.2,9.2,0,0,1,1009.941,406.3Z" transform="translate(-913.68 -369.729)"/><path class="a" d="M1007.919,480.809c-.01-.164-.019-.251-.019-.348v-3.641c0-.357,0-.367.348-.454.5-.126,1-.241,1.555-.367a1.2,1.2,0,0,1,.068.3v3.563a.308.308,0,0,1-.212.338C1009.1,480.4,1008.537,480.6,1007.919,480.809Z" transform="translate(-913.59 -432.698)"/><path class="a" d="M1037,474.523v-4.056c.531-.126,1.053-.241,1.6-.367a2.354,2.354,0,0,1,.048.3c0,1.082-.01,2.154.01,3.235a.379.379,0,0,1-.309.425C1037.9,474.185,1037.473,474.359,1037,474.523Z" transform="translate(-939.88 -427.368)"/><path class="a" d="M1037,404.806c.56-.039,1.072-.068,1.613-.106a2.718,2.718,0,0,1,.039.348v3.158c0,.367-.01.367-.367.425-.415.068-.84.135-1.284.2Z" transform="translate(-939.88 -368.284)"/><path class="a" d="M895.188,469.477v1.082c-2.492.512-4.993,1.033-7.532,1.555a3.651,3.651,0,0,1-.029-1.12c0-.058.145-.145.232-.164.522-.116,1.043-.212,1.564-.309l2.82-.521c.9-.174,1.8-.348,2.7-.512A.878.878,0,0,1,895.188,469.477ZM888,471.689c2.318-.483,4.587-.946,6.866-1.42-.01-.154-.01-.261-.019-.415-2.308.435-4.577.869-6.847,1.294Z" transform="translate(-804.905 -426.803)"/><path class="a" d="M1062.387,465.36v3.554c-.454.164-.908.328-1.42.5a1.49,1.49,0,0,1-.058-.319c0-1.053,0-2.105-.01-3.158,0-.222.048-.348.3-.377.3-.048.589-.145.889-.2C1062.175,465.35,1062.271,465.36,1062.387,465.36Z" transform="translate(-961.472 -423.082)"/><path class="a" d="M1060.954,407.722a24.867,24.867,0,0,1-.039-3.728,4.5,4.5,0,0,1,1.391-.106,25.852,25.852,0,0,1,.048,3.563A10.264,10.264,0,0,1,1060.954,407.722Z" transform="translate(-961.439 -367.549)"/><path class="a" d="M1084.536,460.2c.01.145.029.241.029.328v2.714c0,.357-.01.367-.338.483-.3.106-.6.193-.927.3V460.49C1083.7,460.393,1084.092,460.306,1084.536,460.2Z" transform="translate(-981.709 -418.424)"/><path class="a" d="M1083.3,406.944V403.4h1.2a23.243,23.243,0,0,1,.029,3.332Z" transform="translate(-981.709 -367.109)"/><path class="a" d="M1102.3,459.683V456.37c.357-.087.7-.174,1.091-.27.01.145.029.251.029.357v2.511c0,.348,0,.357-.348.473C1102.831,459.519,1102.6,459.586,1102.3,459.683Z" transform="translate(-998.874 -414.72)"/><path class="a" d="M1103.243,405.319c-.357.058-.7.116-1.024.174a21.535,21.535,0,0,1-.039-3.322,5.6,5.6,0,0,1,1.072-.019C1103.243,403.214,1103.243,404.238,1103.243,405.319Z" transform="translate(-998.726 -365.967)"/><path class="a" d="M1008.71,452.988c1.555-.3,3.11-.589,4.674-.888a1.082,1.082,0,0,1,.058.811c-.019.087-.193.174-.309.2-.637.145-1.275.27-1.912.406-.744.155-1.487.309-2.231.454a2.422,2.422,0,0,1-.29.019C1008.71,453.655,1008.71,453.336,1008.71,452.988Zm.357.618c.521-.106,1.014-.212,1.506-.319.782-.164,1.555-.328,2.337-.483.183-.039.222-.116.135-.29-.869.164-1.729.328-2.588.483-.386.077-.782.135-1.168.212C1009.1,453.259,1008.951,453.336,1009.067,453.606Z" transform="translate(-914.313 -411.106)"/><path class="a" d="M1119.1,455.87v-3.148c.328-.068.637-.145.995-.222v3.032C1119.786,455.638,1119.457,455.754,1119.1,455.87Z" transform="translate(-1014.051 -411.468)"/><path class="a" d="M1119.888,404.684c-.348.048-.657.087-1.014.145-.039-1.062-.019-2.076-.019-3.129h1.024C1119.9,402.685,1119.888,403.67,1119.888,404.684Z" transform="translate(-1013.826 -365.573)"/><path class="a" d="M1135.64,449.2v2.887c-.261.087-.521.184-.84.29V449.4C1135.051,449.345,1135.321,449.277,1135.64,449.2Z" transform="translate(-1028.235 -408.486)"/><path class="a" d="M1135.54,403.92c-.28.048-.55.087-.84.145V401.1h.84Z" transform="translate(-1028.145 -365.031)"/><path class="a" d="M1086.6,441.384v.8c-1.062.222-2.134.444-3.216.676-.193-.261-.1-.541-.087-.8,0-.048.106-.126.174-.135,1.014-.193,2.028-.377,3.052-.56C1086.52,441.355,1086.53,441.365,1086.6,441.384Zm-.792.521c-.261.029-.531.039-.782.087-.4.068-.782.145-1.168.222-.1.019-.232.029-.155.222.135-.019.27-.048.406-.077.6-.126,1.2-.251,1.787-.377.125-.039.251-.087.377-.126A.375.375,0,0,0,1085.805,441.905Z" transform="translate(-981.674 -401.404)"/><path class="a" d="M1147.839,402.668c-.01-.106-.029-.193-.039-.29v-2.2c0-.338.029-.357.357-.377h.319a.669.669,0,0,1,.154.029,2.783,2.783,0,0,1,.039.3V402.2c0,.357-.01.357-.386.406A4.335,4.335,0,0,0,1147.839,402.668Z" transform="translate(-1039.98 -363.857)"/><path class="a" d="M1148,449.123V446.3c.261-.068.521-.126.811-.2a1.991,1.991,0,0,1,.048.29V448.5c0,.338,0,.338-.319.444C1148.367,449.016,1148.2,449.055,1148,449.123Z" transform="translate(-1040.161 -405.686)"/><path class="a" d="M1161.182,443.5v2.25c0,.357-.01.367-.348.483-.125.039-.251.068-.4.106a2.121,2.121,0,0,1-.039-.3v-2.028c0-.348.01-.348.328-.415C1160.854,443.568,1160.979,443.548,1161.182,443.5Z" transform="translate(-1051.363 -403.337)"/><path class="a" d="M1160.254,399.15a4.72,4.72,0,0,1,.493-.077c.164-.019.251.058.251.232V401.7c-.261.039-.483.077-.7.116A13.385,13.385,0,0,1,1160.254,399.15Z" transform="translate(-1051.188 -363.197)"/><path class="a" d="M1135.229,434.175c-.145-.734-.116-.782.521-.917.608-.126,1.226-.232,1.874-.357.01.145.029.261.029.367,0,.386-.01.415-.367.493l-1.68.348C1135.49,434.126,1135.374,434.146,1135.229,434.175Zm1.864-.715c.068-.029.135-.058.193-.087a.587.587,0,0,0-.039-.077l-.232.087-.4.087c-.135.029-.27.048-.4.077-.145.01-.319-.029-.406.164l.406-.087c.135-.029.27-.058.4-.077C1136.784,433.508,1136.938,433.489,1137.093,433.46Z" transform="translate(-1028.558 -393.76)"/><path class="a" d="M625.665,405h4.394v8.711a38.218,38.218,0,0,1-4.384.039C625.6,413.479,625.578,405.473,625.665,405Z" transform="translate(-568.216 -368.555)"/><path class="a" d="M620.7,306.284a2.71,2.71,0,0,1,2.743-2.685,2.667,2.667,0,0,1,2.665,2.714A2.616,2.616,0,0,1,623.414,309,2.667,2.667,0,0,1,620.7,306.284Z" transform="translate(-563.782 -276.946)"/><path class="a" d="M835.178,316.545c-1.275-.039-2.54-.068-3.786-.106-.087-.309-.106-5.746-.019-6.238,1.265.126,2.53.328,3.8.492C835.246,310.992,835.265,316.042,835.178,316.545Z" transform="translate(-754.059 -282.909)"/><path class="a" d="M831.329,204.1c1.3.415,2.578.811,3.863,1.226v5.842c-.29-.058-.55-.116-.8-.164-.908-.183-1.825-.367-2.733-.56-.348-.077-.357-.077-.357-.406V204.4A2.043,2.043,0,0,1,831.329,204.1Z" transform="translate(-754.044 -187.055)"/><path class="a" d="M888.529,317.6c1.072.145,2.1.28,3.139.425v5.234a.6.6,0,0,1-.222.039c-.869,0-1.738-.01-2.6-.019-.319,0-.348-.029-.348-.348v-5.08C888.5,317.793,888.519,317.726,888.529,317.6Z" transform="translate(-805.72 -289.595)"/><path class="a" d="M888.41,222.1c1.1.348,2.125.676,3.167,1v5.282c-.4-.068-.753-.126-1.12-.2-.57-.116-1.14-.241-1.719-.367-.338-.068-.338-.068-.338-.406v-4.848C888.41,222.438,888.41,222.312,888.41,222.1Z" transform="translate(-805.63 -203.317)"/><path class="a" d="M935.9,242.247V237.1c.888.28,1.748.55,2.607.83v4.848C937.619,242.595,936.769,242.421,935.9,242.247Z" transform="translate(-848.543 -216.869)"/><path class="a" d="M938.507,329.9H935.9v-5.041a9.782,9.782,0,0,1,2.607.319Z" transform="translate(-848.543 -296.137)"/><path class="a" d="M974.9,249.5c.763.241,1.468.464,2.192.7v4.452c-.753-.087-1.458-.28-2.192-.425Z" transform="translate(-883.777 -228.071)"/><path class="a" d="M976.9,329.48v4.433h-2.153a42.562,42.562,0,0,1-.01-4.713C975.438,329.3,976.143,329.383,976.9,329.48Z" transform="translate(-883.572 -300.075)"/><path class="a" d="M1007.9,333.5l1.767.241a.227.227,0,0,1,.212.241v3.679a.222.222,0,0,1-.241.251c-.492,0-.985-.01-1.477-.01-.184,0-.261-.1-.261-.28V333.5Z" transform="translate(-913.59 -303.959)"/><path class="a" d="M1008.2,260.2c.4.116.734.212,1.072.319.145.039.28.087.415.135.454.145.454.145.454.608V264.5c0,.126-.01.261-.019.444-.666-.135-1.284-.261-1.922-.4Z" transform="translate(-913.861 -237.738)"/><path class="a" d="M1037,341.508V337.5c.377.048.734.087,1.082.126a.871.871,0,0,0,.155.029c.406.058.415.058.415.454v3.071c0,.386-.01.406-.406.4C1037.83,341.566,1037.425,341.537,1037,341.508Z" transform="translate(-939.88 -307.573)"/><path class="a" d="M1038.561,273.775c-.6-.126-1.12-.241-1.661-.357V269.4c.174.048.328.077.483.126.3.1.6.222.908.29.222.048.27.174.261.367-.01.6,0,1.2,0,1.8C1038.561,272.548,1038.561,273.118,1038.561,273.775Z" transform="translate(-939.789 -246.049)"/><path class="a" d="M887.5,294.2c2.569.444,5.06.888,7.571,1.323v1.111c-.444-.068-.869-.116-1.284-.183-1.111-.174-2.221-.357-3.341-.531-.888-.145-1.787-.27-2.675-.415-.183-.029-.29-.106-.28-.309C887.514,294.886,887.5,294.586,887.5,294.2Zm7.233,2.038c.048-.4.029-.425-.27-.473-.521-.087-1.053-.164-1.574-.261-1.584-.28-3.167-.57-4.742-.84a1.782,1.782,0,0,0-.222.01v.5C890.208,295.523,892.458,295.88,894.737,296.238Z" transform="translate(-804.811 -268.454)"/><path class="a" d="M1060.9,276.8c.531.164,1,.309,1.478.454v3.583a5.114,5.114,0,0,1-1.3-.232c-.2-.058-.164-.251-.164-.406v-2.791C1060.9,277.225,1060.9,277.041,1060.9,276.8Z" transform="translate(-961.472 -252.735)"/><path class="a" d="M1062.387,344.818h-1.265a.2.2,0,0,1-.213-.193,1.942,1.942,0,0,1-.01-.241v-2.955c0-.106.01-.212.019-.348a5.727,5.727,0,0,1,1.458.164C1062.387,342.423,1062.387,343.592,1062.387,344.818Z" transform="translate(-961.472 -310.796)"/><path class="a" d="M1084.264,347.244h-1.188a25.251,25.251,0,0,1-.029-3.544c.4.048.8.106,1.217.155Z" transform="translate(-981.436 -313.174)"/><path class="a" d="M1084.636,288.047c-.444-.087-.831-.155-1.236-.232V284.3a5.249,5.249,0,0,1,1.236.377Z" transform="translate(-981.799 -259.511)"/><path class="a" d="M1102.4,289.9c.338.106.647.193.956.309a.27.27,0,0,1,.135.212c.01.995.01,2,.01,3.032-.4-.077-.744-.155-1.1-.222Z" transform="translate(-998.964 -264.57)"/><path class="a" d="M1102.181,346.2l1.072.155c.019,1.053,0,2.086.01,3.158h-1.053A19.777,19.777,0,0,1,1102.181,346.2Z" transform="translate(-998.716 -315.433)"/><path class="a" d="M1013.322,317.772c-.5-.068-1.014-.135-1.516-.212-.956-.145-1.912-.309-2.868-.464-.319-.048-.328-.048-.338-.367v-.647a2.123,2.123,0,0,1,.966.087c1.149.184,2.3.4,3.448.589.357.058.377.068.377.425,0,.145,0,.29-.01.435A.442.442,0,0,1,1013.322,317.772Zm-.348-.4c.068-.251-.058-.261-.2-.29-1.024-.174-2.038-.367-3.061-.541-.241-.039-.492-.068-.734-.1-.029.29-.029.3.126.328.415.077.84.135,1.255.2C1011.227,317.106,1012.086,317.241,1012.975,317.376Z" transform="translate(-914.223 -288.193)"/><path class="a" d="M1118.86,348.5c.328.029.57.058.8.077.135.01.232.077.232.222v2.878c-.261,0-.483.01-.7,0-.3-.01-.319-.029-.328-.328-.01-.628,0-1.255,0-1.883Z" transform="translate(-1013.831 -317.511)"/><path class="a" d="M1118.9,295.1c.338.106.6.193.869.27.164.048.174.183.174.319v2.772c-.309-.058-.57-.106-.821-.145a.221.221,0,0,1-.212-.241C1118.9,297.109,1118.9,296.143,1118.9,295.1Z" transform="translate(-1013.871 -269.268)"/><path class="a" d="M1134.7,300.1c.319.106.579.193.85.28v2.839a1.809,1.809,0,0,1-.85-.164Z" transform="translate(-1028.145 -273.785)"/><path class="a" d="M1134.443,350.6c.28.039.541.068.811.106v2.858c-.135.01-.261.019-.4.019h-.386A15.092,15.092,0,0,1,1134.443,350.6Z" transform="translate(-1027.859 -319.408)"/><path class="a" d="M1083.377,329.2c1.072.183,2.154.377,3.254.56v.773a1.99,1.99,0,0,1-.956-.068c-.628-.077-1.255-.2-1.883-.29-.473-.068-.493-.087-.493-.579,0-.1.01-.183.01-.28C1083.319,329.3,1083.338,329.268,1083.377,329.2Zm2.627.821c-.763-.155-1.526-.3-2.318-.4a.456.456,0,0,0,.029.164l2.038.319a.413.413,0,0,0,.521-.039A2.335,2.335,0,0,0,1086,330.021Z" transform="translate(-981.709 -300.075)"/><path class="a" d="M1148.659,307.474c-.27-.048-.493-.068-.7-.126-.068-.019-.135-.164-.145-.241-.01-.85-.01-1.7-.01-2.607.309.1.579.174.85.251C1148.659,305.659,1148.659,306.528,1148.659,307.474Z" transform="translate(-1039.98 -277.76)"/><path class="a" d="M1148.921,352.589v2.675h-.821v-2.733C1148.39,352.405,1148.641,352.55,1148.921,352.589Z" transform="translate(-1040.251 -321.107)"/><path class="a" d="M1160.26,353.9c.3.048.531.077.792.116v1.226c0,.357.01.715,0,1.072-.01.29-.039.309-.328.319h-.164c-.261-.019-.29-.048-.3-.319-.01-.541,0-1.091,0-1.632Z" transform="translate(-1051.233 -322.389)"/><path class="a" d="M1161,311.12a1.027,1.027,0,0,1-.174,0c-.6-.154-.541-.029-.541-.657V308.3c.251.077.454.126.647.2a.271.271,0,0,1,.135.212c0,.782-.01,1.564-.019,2.347A.213.213,0,0,1,1161,311.12Z" transform="translate(-1051.258 -281.193)"/><path class="a" d="M1138.024,339.572a10.728,10.728,0,0,1-2.424-.338V338.5a2.938,2.938,0,0,1,.425.029c.55.087,1.1.193,1.642.29.367.058.386.068.377.464A1.455,1.455,0,0,1,1138.024,339.572Zm-.927-.435a.458.458,0,0,0,.483.019c-.164-.029-.328-.068-.483-.1s-.319-.058-.483-.077l-.579-.087c.164.212.377.145.579.164C1136.778,339.089,1136.942,339.118,1137.1,339.137Z" transform="translate(-1028.958 -308.477)"/><path class="a" d="M507.549,203v5.543q-2.955.464-5.949.937v-5.137C503.56,203.888,505.53,203.435,507.549,203Z" transform="translate(-456.183 -186.062)"/><path class="a" d="M425.88,132.9v4.539c0,.367,0,.377-.338.473-1.42.406-2.839.8-4.259,1.207a.711.711,0,0,1-.145,0c-.01-.1-.039-.193-.039-.29v-3.921c0-.193.01-.348.251-.425,1.42-.493,2.839-.995,4.249-1.5A2.571,2.571,0,0,1,425.88,132.9Z" transform="translate(-383.457 -122.731)"/><path class="a" d="M425.771,224.229c.01.106.019.222.019.338v4.124c0,.406,0,.406-.406.464-1.284.2-2.569.415-3.853.618-.155.029-.309.029-.5.048-.01-.135-.029-.251-.029-.367v-3.8c0-.377,0-.4.338-.473,1.439-.328,2.878-.647,4.317-.975C425.684,224.2,425.713,224.219,425.771,224.229Z" transform="translate(-383.367 -205.214)"/><path class="a" d="M509,110.892v-5.263c1.275-.493,2.569-.966,3.921-1.429a3.663,3.663,0,0,1,.039.367v4.79c0,.357-.029.386-.348.483-1.091.319-2.192.647-3.283.966A1.994,1.994,0,0,1,509,110.892Z" transform="translate(-462.869 -96.803)"/><path class="a" d="M360.263,163.784q-1.883.536-3.824,1.072a2.767,2.767,0,0,1-.039-.319v-3.477c0-.328.019-.348.328-.454,1.1-.4,2.2-.782,3.3-1.178a1.21,1.21,0,0,1,.183-.029A32.476,32.476,0,0,1,360.263,163.784Z" transform="translate(-325.005 -146.672)"/><path class="a" d="M356.368,245.812a2.183,2.183,0,0,1-.058-.29c0-1.178,0-2.347-.01-3.525a.346.346,0,0,1,.3-.4c1.178-.261,2.356-.531,3.563-.8a1.854,1.854,0,0,1,.039.29v3.766c0,.377-.01.367-.406.425-.734.106-1.468.232-2.2.348C357.217,245.677,356.821,245.744,356.368,245.812Z" transform="translate(-324.915 -220.211)"/><path class="a" d="M303.339,471.9c1.053.164,2.086.319,3.138.483v10.323a2.449,2.449,0,0,1-.338-.087c-.84-.29-1.69-.579-2.53-.859a.383.383,0,0,1-.309-.425c.01-3.042,0-6.084.01-9.126C303.31,472.122,303.329,472.026,303.339,471.9Z" transform="translate(-277.033 -428.994)"/><path class="a" d="M261.828,475.364c-.85-.29-1.651-.55-2.443-.811a.24.24,0,0,1-.193-.261v-8.749a7.616,7.616,0,0,1,1.352.155c.425.039.85.145,1.284.222Z" transform="translate(-237.183 -423.245)"/><path class="a" d="M221.4,459.3c.493.068.937.135,1.381.2.222.029.444.077.666.116a.254.254,0,0,1,.241.3v7.957c0,.155-.029.3-.048.492-.782-.261-1.506-.512-2.24-.763Z" transform="translate(-203.042 -417.611)"/><path class="a" d="M188.193,454.2c.7.106,1.3.193,1.912.29.1.28.126,7.465.039,8.054a2.482,2.482,0,0,1-.261-.048c-.473-.155-.937-.319-1.4-.464a.347.347,0,0,1-.29-.4c.01-.5,0-1.014,0-1.516V454.2Z" transform="translate(-173.041 -413.003)"/><path class="a" d="M303.343,402.075a12.954,12.954,0,0,1,3.129.106V406.1c-1.053-.106-2.076-.2-3.1-.3A23.8,23.8,0,0,1,303.343,402.075Z" transform="translate(-277.018 -365.871)"/><path class="a" d="M306.543,328.6v3.969a25.891,25.891,0,0,1-3.1.116,27.067,27.067,0,0,1-.01-3.757C304.447,328.812,305.471,328.706,306.543,328.6Z" transform="translate(-277.099 -299.533)"/><path class="a" d="M259.4,337.357v-3.5c.869-.087,1.719-.174,2.607-.261v3.65C261.158,337.289,260.3,337.318,259.4,337.357Z" transform="translate(-237.372 -304.05)"/><path class="a" d="M262.107,400.675v3.67c-.879-.087-1.729-.164-2.607-.251v-3.467C260.369,400.549,261.209,400.742,262.107,400.675Z" transform="translate(-237.463 -364.586)"/><path class="a" d="M223.65,399.9a18.651,18.651,0,0,1-.048,3.341c-.724-.077-1.458-.155-2.2-.222v-3.2A10.947,10.947,0,0,1,223.65,399.9Z" transform="translate(-203.042 -363.857)"/><path class="a" d="M223.469,337.7a3.25,3.25,0,0,1,.039.386v2.636c0,.367-.019.386-.377.4-.628.01-1.246,0-1.922,0-.019-1.062,0-2.105-.01-3.177C221.963,337.864,222.677,337.787,223.469,337.7Z" transform="translate(-202.861 -307.754)"/><path class="a" d="M190.093,402.438c-.657-.068-1.284-.126-1.96-.193-.01-1-.01-1.97,0-2.945h1.96Z" transform="translate(-172.98 -363.405)"/><path class="a" d="M190.12,344.908h-1.912a1.051,1.051,0,0,1-.048-.251c0-.773-.01-1.545,0-2.318,0-.328.01-.338.357-.386a7.288,7.288,0,0,1,1.6-.135Z" transform="translate(-173.008 -311.466)"/><path class="a" d="M621.541,89.841h-6.4c-.01-.145-.039-.27-.039-.4v-5.64c0-.386.019-.406.357-.406h5.881a.845.845,0,0,1,.154.019C621.589,83.69,621.628,88.9,621.541,89.841Z" transform="translate(-558.722 -78.011)"/><path class="a" d="M621.806,189.165v6.1H615.48c-.087-.27-.126-5.533-.039-6.094C615.731,189.1,621.332,189.078,621.806,189.165Z" transform="translate(-558.987 -173.511)"/><path class="a" d="M729.281,303.6c.888.106,1.758.222,2.646.328v14.138c-.869.087-1.748.184-2.617.27C729.213,318.027,729.194,304.179,729.281,303.6Z" transform="translate(-661.827 -276.947)"/><path class="a" d="M729.3,517.386V504c.01-.348.01-.338.348-.4l1.96-.348c.116-.019.232-.029.386-.058.01.145.029.261.029.377v12.4c0,.386,0,.386-.348.521-.647.251-1.294.5-1.931.744C729.609,517.3,729.483,517.328,729.3,517.386Z" transform="translate(-661.894 -457.271)"/><path class="a" d="M306.387,254.832v3.959c-1.043.164-2.067.328-3.129.492a1.242,1.242,0,0,1-.048-.232c0-1.082,0-2.154-.01-3.235,0-.222.058-.328.3-.377.908-.193,1.816-.406,2.714-.618C306.261,254.8,306.3,254.823,306.387,254.832Z" transform="translate(-276.943 -232.872)"/><path class="a" d="M303.5,185.248V181.52c1.033-.367,2.076-.734,3.148-1.12.01.106.029.164.029.232v3.438c0,.328,0,.338-.3.425-.9.261-1.787.512-2.685.763C303.655,185.257,303.6,185.248,303.5,185.248Z" transform="translate(-277.214 -165.644)"/><path class="a" d="M261.736,269.46c-.859.135-1.709.27-2.6.415-.019-.155-.029-.251-.039-.357v-2.752c0-.357,0-.367.348-.444.744-.174,1.5-.338,2.279-.521C261.736,267.026,261.736,268.214,261.736,269.46Z" transform="translate(-237.101 -242.797)"/><path class="a" d="M262.007,198c.01.183.029.3.029.415v2.878c0,.367,0,.377-.348.473-.666.193-1.333.377-2,.56a2.255,2.255,0,0,1-.29.029v-3.428C260.25,198.618,261.109,198.319,262.007,198Z" transform="translate(-237.372 -181.544)"/><path class="a" d="M221.4,216.94v-3.167c.724-.251,1.449-.55,2.25-.773a2.714,2.714,0,0,1,.039.348v2.636c0,.348,0,.348-.319.444-.589.174-1.178.338-1.767.5A.621.621,0,0,1,221.4,216.94Z" transform="translate(-203.042 -195.096)"/><path class="a" d="M221.4,275.8c.753-.174,1.487-.338,2.24-.5a1.986,1.986,0,0,1,.039.27c0,.917,0,1.835.01,2.762,0,.222-.077.348-.3.386-.6.087-1.207.183-1.806.28a.6.6,0,0,1-.174-.019C221.4,277.927,221.4,276.893,221.4,275.8Z" transform="translate(-203.042 -251.38)"/><path class="a" d="M188.239,229.46a3.04,3.04,0,0,1-.039-.357v-2.269c0-.348.01-.357.309-.464.531-.193,1.072-.377,1.613-.57a19.053,19.053,0,0,1,.048,3.081C189.571,229.112,188.924,229.248,188.239,229.46Z" transform="translate(-173.048 -206.66)"/><path class="a" d="M190.08,283.872v3.081c-.628.1-1.265.193-1.922.3a1.891,1.891,0,0,1-.058-.319v-2.318c0-.309.048-.367.309-.425.493-.116.985-.222,1.478-.328A.7.7,0,0,1,190.08,283.872Z" transform="translate(-172.958 -259.112)"/><path class="a" d="M160.2,457.314V450.1c.319.039.608.068.888.106l.589.087a.233.233,0,0,1,.241.261v7.04c0,.077-.01.155-.019.3C161.32,457.69,160.76,457.507,160.2,457.314Z" transform="translate(-147.752 -409.299)"/><path class="a" d="M135.2,446.1c.473.068.888.116,1.3.193.077.01.135.135.183.212a.4.4,0,0,1,.01.155v6.518c0,.039-.01.077-.019.174l-1.478-.483Z" transform="translate(-125.166 -405.686)"/><path class="a" d="M113.5,449.444V443.09a6,6,0,0,1,1.207.135c.087.309.106,6.209.01,6.625C114.321,449.724,113.925,449.589,113.5,449.444Z" transform="translate(-105.562 -402.956)"/><path class="a" d="M94.949,446.041c-.415-.135-.782-.261-1.149-.377V439.6c.4.058.753.116,1.149.183Z" transform="translate(-87.764 -399.813)"/><path class="a" d="M160.1,400.936v-2.714a4.8,4.8,0,0,1,1.661,0,15.583,15.583,0,0,1,.019,2.858.771.771,0,0,1-.145.029C161.133,401.052,160.631,400.994,160.1,400.936Z" transform="translate(-147.662 -362.366)"/><path class="a" d="M161.588,344.6v2.9H159.9a1.957,1.957,0,0,1-.039-.251c0-.715-.01-1.439,0-2.154,0-.319.029-.338.338-.367C160.642,344.687,161.1,344.648,161.588,344.6Z" transform="translate(-147.441 -313.987)"/><path class="a" d="M136.512,400.543c-.493-.048-.956-.106-1.42-.154a12.83,12.83,0,0,1-.019-2.588h1.439Z" transform="translate(-125.001 -362.05)"/><path class="a" d="M135.019,350.143c-.01-.174-.019-.309-.019-.435v-1.835c0-.338.019-.348.367-.377.367-.029.734-.058,1.13-.1v2.723C136.024,350.152,135.55,350.143,135.019,350.143Z" transform="translate(-124.986 -316.517)"/><path class="a" d="M113.31,349.916c.444-.039.831-.077,1.217-.116a12.767,12.767,0,0,1,.039,2.54H113.3C113.3,351.558,113.3,350.766,113.31,349.916Z" transform="translate(-105.381 -318.685)"/><path class="a" d="M114.946,396.777v2.53c-.415-.039-.821-.068-1.246-.106v-2.5C114.106,396.729,114.5,396.748,114.946,396.777Z" transform="translate(-105.743 -361.056)"/><path class="a" d="M94.93,354.214H93.8v-2.308c.377-.039.734-.077,1.1-.106A10.826,10.826,0,0,1,94.93,354.214Z" transform="translate(-87.764 -320.492)"/><path class="a" d="M94.859,396.415v2.366a2.484,2.484,0,0,1-1.159-.087v-2.25A7.611,7.611,0,0,1,94.859,396.415Z" transform="translate(-87.674 -360.791)"/><path class="a" d="M731.9,84.878v6.837a1.566,1.566,0,0,1-.28-.058c-.715-.241-1.439-.493-2.154-.734-.174-.058-.27-.135-.27-.338q.014-3.361.01-6.721a1.157,1.157,0,0,1,.039-.164C730.156,84.077,731.025,84.492,731.9,84.878Z" transform="translate(-661.804 -78.282)"/><path class="a" d="M731.994,195.274c-.444-.1-.831-.174-1.217-.251-.415-.087-.831-.174-1.246-.241a.244.244,0,0,1-.232-.27v-5.244c0-.106.019-.2.029-.367.908.261,1.787.521,2.665.773Z" transform="translate(-661.894 -173.323)"/><path class="a" d="M160.2,293.777v-2.772a13.965,13.965,0,0,1,1.69-.406v2.907C161.34,293.594,160.789,293.681,160.2,293.777Z" transform="translate(-147.752 -265.202)"/><path class="a" d="M160.1,239.761v-2.752c.55-.193,1.1-.4,1.69-.608a1.8,1.8,0,0,1,.039.27v2.318c0,.328-.01.328-.3.415-.4.116-.792.232-1.188.338A.833.833,0,0,1,160.1,239.761Z" transform="translate(-147.662 -216.236)"/><path class="a" d="M136.406,248.833c-.493.135-.956.27-1.458.415a1.193,1.193,0,0,1-.039-.222c0-.7,0-1.41-.01-2.115a.335.335,0,0,1,.261-.377c.406-.126.792-.28,1.236-.435C136.406,247.037,136.406,247.915,136.406,248.833Z" transform="translate(-124.895 -224.999)"/><path class="a" d="M136.516,299.423c-.521.077-.995.155-1.516.232V297.26c0-.126.019-.241.174-.28.425-.1.85-.184,1.342-.28C136.526,297.637,136.526,298.516,136.516,299.423Z" transform="translate(-124.986 -270.713)"/><path class="a" d="M113.3,304.952v-2.018c0-.464,0-.464.464-.57.261-.058.521-.106.792-.164a.562.562,0,0,1,.048.155c0,.7.01,1.41,0,2.115,0,.29-.029.309-.319.348S113.677,304.9,113.3,304.952Z" transform="translate(-105.381 -275.682)"/><path class="a" d="M113.21,255.225c.425-.145.821-.28,1.217-.425a12.108,12.108,0,0,1,.039,2.549c-.386.106-.782.222-1.246.357-.029-.444-.01-.84-.019-1.226C113.21,256.075,113.21,255.679,113.21,255.225Z" transform="translate(-105.291 -232.859)"/><path class="a" d="M94.7,261.9v2.173c0,.145-.029.261-.183.309-.319.087-.628.183-.966.28a1.341,1.341,0,0,1-.039-.222c0-.608,0-1.226-.01-1.835a.327.327,0,0,1,.261-.377C94.05,262.141,94.33,262.026,94.7,261.9Z" transform="translate(-87.493 -239.274)"/><path class="a" d="M94.567,306.8V309c0,.145-.058.241-.193.261-.309.048-.628.087-.985.135-.048-.406-.019-.782-.029-1.149s0-.744,0-1.168C93.756,306.993,94.132,306.9,94.567,306.8Z" transform="translate(-87.363 -279.838)"/><path class="a" d="M77.3,443.094c-.367-.126-.686-.232-1-.348V437c.348.058.666.106,1,.155Z" transform="translate(-71.954 -397.464)"/><path class="a" d="M59.639,434.5c.3.039.541.068.792.116a.223.223,0,0,1,.2.251v5.08c0,.087-.01.184-.019.328-.3-.1-.57-.174-.84-.28-.077-.029-.116-.155-.155-.241a.416.416,0,0,1,0-.154v-4.713C59.62,434.77,59.629,434.664,59.639,434.5Z" transform="translate(-56.877 -395.206)"/><path class="a" d="M46.259,437.837c-.048,0-.068.01-.1,0-.763-.183-.763-.183-.763-.966V432.4c.3.039.57.077.859.116C46.259,434.3,46.259,436.05,46.259,437.837Z" transform="translate(-44.038 -393.309)"/><path class="a" d="M77.3,397.967c-.357-.039-.666-.068-1-.106v-2.192a1.975,1.975,0,0,1,1,.039Z" transform="translate(-71.954 -360.083)"/><path class="a" d="M77.124,356.06H76.1v-1.883c.01-.28.039-.319.319-.338.222-.019.444-.029.7-.039Z" transform="translate(-71.774 -322.299)"/><path class="a" d="M60.714,355.9v1.912c0,.145-.068.232-.212.232h-.8V356.2c0-.2.087-.3.28-.3Z" transform="translate(-56.957 -324.196)"/><path class="a" d="M60.875,397.963c-.348-.039-.657-.068-.975-.106V395.8h.975Z" transform="translate(-57.138 -360.243)"/><path class="a" d="M46.269,395.3v1.97a.336.336,0,0,1-.087.058c-.782.058-.782.058-.782-.7V395.31C45.719,395.3,45.979,395.3,46.269,395.3Z" transform="translate(-44.038 -359.791)"/><path class="a" d="M45.558,359.005a.6.6,0,0,1-.058-.174v-1.825c.28-.039.55-.068.85-.106v2.047C46.089,358.967,45.848,358.986,45.558,359.005Z" transform="translate(-44.129 -325.1)"/><path class="a" d="M76.3,313.624v-2.182c.319-.077.647-.155,1-.241.01.135.029.241.029.338v1.68c0,.28-.077.348-.348.377C76.764,313.6,76.561,313.614,76.3,313.624Z" transform="translate(-71.954 -283.813)"/><path class="a" d="M77.295,271.279c-.328.087-.647.174-.995.27v-2.211c.309-.106.628-.222.946-.338A9.215,9.215,0,0,1,77.295,271.279Z" transform="translate(-71.954 -245.688)"/><path class="a" d="M59.9,277.053v-2.1c.309-.116.608-.232.956-.357a1.606,1.606,0,0,1,.039.251c0,.541-.01,1.091.01,1.632,0,.222-.068.338-.3.377S60.18,276.976,59.9,277.053Z" transform="translate(-57.138 -250.747)"/><path class="a" d="M60.695,315.1v2.154l-.917.174c-.029-.048-.068-.077-.068-.116-.01-.589-.01-1.168-.01-1.758a.26.26,0,0,1,.241-.3C60.183,315.216,60.424,315.158,60.695,315.1Z" transform="translate(-56.957 -287.336)"/><path class="a" d="M45.8,280.5c.261-.1.521-.193.821-.3v2.076l-.821.232Z" transform="translate(-44.4 -255.806)"/><path class="a" d="M46.369,320.576l-.869.087V318.7c.29-.068.541-.135.821-.2a3.419,3.419,0,0,1,.058,1.033C46.388,319.881,46.379,320.229,46.369,320.576Z" transform="translate(-44.129 -290.408)"/></g><g transform="translate(0 71.751)"><path class="a" d="M431.444,12.313V0h-3.566V10.5l-5.736,3.034L416.629,10.5V0H412V12.313l9.722,5.005Z" transform="translate(-320.846)"/><g transform="translate(68.432)"><path class="a" d="M325.234,52.767H309.4v3.167h19.4V49.6h-3.566Z" transform="translate(-309.4 -38.615)"/><path class="a" d="M328.8,3.167V0H309.4V10.232h19.4V7.043H314.029V3.167Z" transform="translate(-309.4)"/></g><path class="a" d="M222.645,0l.2,12.889L211.372,0H206.5V17.318h4.651V4.894l11.073,12.424h3.743V0Z" transform="translate(-160.857)"/><path class="a" d="M117.529,0H108.67V3.167H115.6l3.322,5.492L115.6,14.151h-7.729V0H103.2V17.318h14.329l5.226-8.659Z" transform="translate(-80.434)"/><path class="a" d="M.4,5.005V17.318H3.966L4.187,7.264l6-3.278,5.8,3.145.288,10.187h3.566V5.005L10.122,0Z" transform="translate(-0.4)"/><path class="a" d="M433.116,12.313V0h-3.322V10.5l-5.736,3.167L418.322,10.5V0H415V12.313l9.058,5.005Z" transform="translate(-323.182)"/><path class="a" d="M3.4,5.005V17.318H6.722V6.821l5.736-3.167,5.736,3.167v10.5h3.322V5.005L12.458,0Z" transform="translate(-2.736)"/><path class="a" d="M224.294,0V12.889L212.822,0H209.5V17.318h3.322V4.894l11.051,12.424h3.743V0Z" transform="translate(-163.192)"/><g transform="translate(69.074)"><path class="a" d="M327.094,52.767H312.3v3.167h18.116V49.6h-3.322Z" transform="translate(-312.3 -38.615)"/><path class="a" d="M330.416,3.167V0H312.3V10.232h18.116V7.043H315.6V3.167Z" transform="translate(-312.3)"/></g><path class="a" d="M119.089,0h-8.238V3.167h6.334l3.3,5.492-3.3,5.492h-7.663V0H106.2V17.318h12.889l5.226-8.659Z" transform="translate(-82.769)"/><g transform="translate(0.221 20.463)"><g transform="translate(0 0.31)"><path class="a" d="M2.042,98.272l-.288.819H1.4L2.33,96.5h.421l.93,2.591H3.3l-.288-.819Zm.886-.266-.266-.753a2.551,2.551,0,0,1-.133-.465h0l-.133.465-.266.753Z" transform="translate(-1.4 -95.902)"/><path class="a" d="M13.5,101.539l.886-1.085a3.312,3.312,0,0,1,.244-.288H13.566V99.9H15.05v.221l-.864,1.085a3.318,3.318,0,0,1-.244.288h1.129v.266H13.5Z" transform="translate(-10.82 -98.549)"/><path class="a" d="M23.2,94a.2.2,0,1,1,.2.2A.2.2,0,0,1,23.2,94Zm.376.377v2.591h-.354V94.376Z" transform="translate(-18.372 -93.8)"/><path class="a" d="M28.4,94a.2.2,0,1,1,.2.2A.2.2,0,0,1,28.4,94Zm.376.377v2.591h-.354V94.376Z" transform="translate(-22.421 -93.8)"/><path class="a" d="M39.632,97.21h0l-.465.244-.066-.266.576-.288h.288v2.5h-.332Z" transform="translate(-30.751 -96.213)"/><path class="a" d="M48.321,98.925a1.588,1.588,0,0,0,.288-.022,1.045,1.045,0,0,0,.554-.244A1.2,1.2,0,0,0,49.517,98H49.5a.773.773,0,0,1-.62.266.744.744,0,0,1-.775-.775.874.874,0,0,1,.886-.886c.532,0,.864.421.864,1.063a1.6,1.6,0,0,1-.443,1.174,1.23,1.23,0,0,1-.753.332,1.915,1.915,0,0,1-.332.022Zm.133-1.439a.494.494,0,0,0,.509.532.562.562,0,0,0,.509-.266c.022-.022.022-.066.022-.133,0-.421-.155-.753-.532-.753A.561.561,0,0,0,48.454,97.486Z" transform="translate(-37.758 -95.98)"/><path class="a" d="M58.4,99.325v-.2l.288-.266c.664-.6.974-.93.974-1.307a.458.458,0,0,0-.509-.487.8.8,0,0,0-.554.221l-.111-.244a1.118,1.118,0,0,1,.731-.244.727.727,0,0,1,.8.731c0,.465-.354.842-.908,1.351l-.2.177h1.174v.288H58.4Z" transform="translate(-45.777 -96.136)"/><path class="a" d="M70.272,97.962c0,.842-.332,1.329-.908,1.329-.509,0-.864-.465-.864-1.285,0-.842.376-1.307.908-1.307C69.962,96.7,70.272,97.165,70.272,97.962Zm-1.417.044c0,.642.2,1.019.532,1.019.354,0,.532-.4.532-1.041,0-.62-.155-1.019-.532-1.019C69.076,96.966,68.854,97.32,68.854,98.007Z" transform="translate(-53.64 -96.058)"/></g><g transform="translate(22.39 0.465)"><path class="a" d="M104.493,97.37h-1.351l-.266.709H102.5l1.129-2.879h.376l1.152,2.879h-.4Zm-.111-.31-.554-1.44h0l-.554,1.44Z" transform="translate(-102.5 -95.045)"/><path class="a" d="M115.965,100.883h1.2v.288H115.5v-.244l1.2-1.439h-1.129V99.2h1.617v.244Z" transform="translate(-112.621 -98.159)"/><path class="a" d="M125.008,99.1a1.013,1.013,0,0,1,1.063,1.019.984.984,0,0,1-1,1.019.93.93,0,0,1-.974-.974v-.133h1.617a.665.665,0,0,0-.709-.6,1.315,1.315,0,0,0-.576.155l-.133-.266a1.126,1.126,0,0,1,.709-.221Zm.044,1.727a.6.6,0,0,0,.642-.532h-1.262a.59.59,0,0,0,.62.532Z" transform="translate(-119.316 -98.081)"/><path class="a" d="M136.119,99.1h.089v.354h-.133a.612.612,0,0,0-.62.687v.952H135.1V99.122h.354v.354h0a.753.753,0,0,1,.664-.376Z" transform="translate(-127.88 -98.081)"/><path class="a" d="M142.763,95.674a1,1,0,0,1,1.019,1.019.971.971,0,0,1-1.019,1,.952.952,0,0,1-.731-.332h0v.31H141.7V94.7h.354v1.307h0a.842.842,0,0,1,.709-.332Zm-.044,1.727a.651.651,0,0,0,.687-.687.7.7,0,1,0-1.4,0,.709.709,0,0,0,.709.687Z" transform="translate(-133.019 -94.656)"/><path class="a" d="M154.582,99.122v1.971h-.332v-.31h0a.857.857,0,0,1-.731.332.971.971,0,0,1-1.019-1,.989.989,0,0,1,1.019-1.019.921.921,0,0,1,.709.31h0v-.288Zm-1.019,1.705a.676.676,0,0,0,.686-.687.7.7,0,0,0-.686-.731.692.692,0,0,0-.709.731.681.681,0,0,0,.709.687Z" transform="translate(-141.427 -98.081)"/><path class="a" d="M165.615,99.122l-1.174,2.768h-.354l.377-.886-.864-1.9h.376l.664,1.506h0l.62-1.506h.354Z" transform="translate(-150.069 -98.081)"/><path class="a" d="M174.419,101.137a1.019,1.019,0,1,1,.022-2.037,1.122,1.122,0,0,1,.842.354l-.244.2a.734.734,0,0,0-.576-.244.709.709,0,1,0,0,1.417.7.7,0,0,0,.576-.244l.244.2a1.237,1.237,0,0,1-.864.354Z" transform="translate(-157.698 -98.081)"/><path class="a" d="M185.182,99.122v1.971h-.332v-.31h0a.857.857,0,0,1-.731.332.971.971,0,0,1-1.019-1,.989.989,0,0,1,1.019-1.019.921.921,0,0,1,.709.31h0v-.288Zm-1.041,1.705a.676.676,0,0,0,.687-.687.7.7,0,0,0-.687-.731.692.692,0,0,0-.709.731.681.681,0,0,0,.709.687Z" transform="translate(-165.25 -98.081)"/><path class="a" d="M196.029,99.1c.443,0,.731.266.731.819v1.174h-.354v-1.085c0-.465-.2-.62-.509-.62a.625.625,0,0,0-.642.709v1H194.9V99.122h.354v.332h0a1.061,1.061,0,0,1,.775-.354Z" transform="translate(-174.437 -98.081)"/><path class="a" d="M211.2,95.1h.908a1.434,1.434,0,0,1,1.572,1.44,1.415,1.415,0,0,1-1.55,1.44h-.908Zm.886,2.569a1.12,1.12,0,1,0,.022-2.237h-.532v2.237Z" transform="translate(-187.127 -94.967)"/><path class="a" d="M225.163,98.413a1.02,1.02,0,1,1,0-2.037,1.013,1.013,0,0,1,1.063,1.019,1,1,0,0,1-1.063,1.019Zm0-.31a.709.709,0,0,0,0-1.417.7.7,0,0,0-.731.709.719.719,0,0,0,.731.709Zm-.62-2.281a.228.228,0,0,1,.244-.221.243.243,0,0,1,.244.221.228.228,0,0,1-.244.221A.243.243,0,0,1,224.543,95.821Zm.775,0a.228.228,0,0,1,.244-.221.243.243,0,0,1,.244.221.228.228,0,0,1-.244.221A.243.243,0,0,1,225.318,95.821Z" transform="translate(-197.17 -95.356)"/><path class="a" d="M236.615,99.2l-.842,1.971h-.332L234.6,99.2h.376l.642,1.55h0l.62-1.55Z" transform="translate(-205.345 -98.159)"/><path class="a" d="M245.6,94.7h.332v2.99H245.6Z" transform="translate(-213.909 -94.656)"/><path class="a" d="M250.308,99.1a1.013,1.013,0,0,1,1.063,1.019.984.984,0,0,1-1,1.019.93.93,0,0,1-.974-.974v-.133h1.617a.665.665,0,0,0-.709-.6,1.315,1.315,0,0,0-.576.155l-.133-.266a1.126,1.126,0,0,1,.709-.221Zm.044,1.727a.6.6,0,0,0,.642-.532h-1.262a.59.59,0,0,0,.62.532Z" transform="translate(-216.867 -98.081)"/><path class="a" d="M260.1,98.724c-.376,0-.532-.221-.532-.62V97H259.3v-.288h.266v-.664L259.9,96v.709h.687V97H259.9v1.041c0,.244.066.354.244.354a.669.669,0,0,0,.354-.111l.089.288a.669.669,0,0,1-.487.155Z" transform="translate(-224.575 -95.668)"/><path class="a" d="M274.736,95.1v2.879h-.377l-1.683-2.259h0V98H272.3V95.122h.354l1.705,2.3h0V95.1Z" transform="translate(-234.696 -94.967)"/><path class="a" d="M287.649,100.1v.133h-1.595a.644.644,0,0,0,.687.6.717.717,0,0,0,.576-.266l.244.2a1.047,1.047,0,0,1-.842.376A1.019,1.019,0,0,1,286.7,99.1a.943.943,0,0,1,.952,1Zm-.952-.687a.624.624,0,0,0-.642.532h1.24a.584.584,0,0,0-.6-.532Z" transform="translate(-245.128 -98.081)"/><path class="a" d="M295.944,95.829H295.7v-.288h.244v-.4c0-.421.221-.642.576-.642a.979.979,0,0,1,.487.133l-.066.288a.814.814,0,0,0-.354-.111c-.177,0-.288.111-.288.354v.376h.576v.288H296.3v1.683h-.332V95.829Z" transform="translate(-252.913 -94.5)"/><path class="a" d="M302.3,98.724c-.376,0-.532-.221-.532-.62V97H301.5v-.288h.266v-.664L302.12,96v.709h.687V97h-.687v1.041c0,.244.066.354.244.354a.669.669,0,0,0,.354-.111l.089.288a.82.82,0,0,1-.509.155Z" transform="translate(-257.429 -95.668)"/><path class="a" d="M315.215,99.2l-.841,1.971h-.332L313.2,99.2h.376l.642,1.55h0l.62-1.55Z" transform="translate(-266.538 -98.159)"/><path class="a" d="M323.808,99.1a1.013,1.013,0,0,1,1.063,1.019.984.984,0,0,1-1,1.019.93.93,0,0,1-.974-.974v-.133h1.617a.665.665,0,0,0-.709-.6,1.316,1.316,0,0,0-.576.155l-.133-.266a1.126,1.126,0,0,1,.709-.221Zm.044,1.727a.6.6,0,0,0,.642-.532h-1.262a.59.59,0,0,0,.62.532Z" transform="translate(-274.09 -98.081)"/><path class="a" d="M339.363,98.023a1.439,1.439,0,0,1-1.063-.443l.244-.266a1.068,1.068,0,0,0,.841.376c.377,0,.62-.155.62-.443,0-.332-.266-.421-.664-.554-.443-.155-.908-.332-.908-.842a.841.841,0,0,1,.93-.753,1.557,1.557,0,0,1,.952.332l-.222.266a1.333,1.333,0,0,0-.731-.288c-.288,0-.532.155-.532.421,0,.288.266.376.642.509.509.177.93.31.93.864a.961.961,0,0,1-1.041.819Z" transform="translate(-286.079 -94.967)"/><path class="a" d="M350.108,99.1a1.013,1.013,0,0,1,1.063,1.019.984.984,0,0,1-1,1.019.93.93,0,0,1-.974-.974v-.133h1.617a.665.665,0,0,0-.709-.6,1.315,1.315,0,0,0-.576.155l-.155-.288a1.514,1.514,0,0,1,.731-.2Zm.066,1.727a.6.6,0,0,0,.642-.532h-1.262a.59.59,0,0,0,.62.532Z" transform="translate(-294.565 -98.081)"/><path class="a" d="M361.307,99.1c.443,0,.731.266.731.819v1.174h-.332v-1.085c0-.465-.2-.62-.509-.62a.625.625,0,0,0-.642.709v1H360.2V99.122h.354v.332h0a.946.946,0,0,1,.753-.354Z" transform="translate(-303.129 -98.081)"/><path class="a" d="M372.582,99.122v1.971h-.332v-.31h0a.857.857,0,0,1-.731.332.971.971,0,0,1-1.019-1,.989.989,0,0,1,1.019-1.019.921.921,0,0,1,.709.31h0v-.288Zm-1.019,1.705a.676.676,0,0,0,.687-.687.7.7,0,0,0-.687-.731.692.692,0,0,0-.709.731.669.669,0,0,0,.709.687Z" transform="translate(-311.148 -98.081)"/><path class="a" d="M383.615,99.122l-1.174,2.768h-.354l.376-.886-.864-1.9h.376l.664,1.506h0l.62-1.506h.354Z" transform="translate(-319.79 -98.081)"/><path class="a" d="M393.249,100.1v.133h-1.594a.644.644,0,0,0,.686.6.717.717,0,0,0,.576-.266l.244.2a1.047,1.047,0,0,1-.841.376A1.019,1.019,0,0,1,392.3,99.1a.943.943,0,0,1,.952,1Zm-.952-.687a.624.624,0,0,0-.642.532h1.24a.584.584,0,0,0-.6-.532Z" transform="translate(-327.342 -98.081)"/><path class="a" d="M408.374,98.1a1.11,1.11,0,0,1-1.174-1.2V95.2h.376v1.683a.8.8,0,1,0,1.595,0V95.2h.377v1.705a1.1,1.1,0,0,1-1.174,1.2Z" transform="translate(-339.72 -95.045)"/><path class="a" d="M421.529,99.1c.443,0,.731.266.731.819v1.174h-.354v-1.085c0-.465-.2-.62-.509-.62a.625.625,0,0,0-.642.709v1H420.4V99.122h.354v.332h0a1.061,1.061,0,0,1,.775-.354Z" transform="translate(-349.997 -98.081)"/><path class="a" d="M431.3,95.821a.228.228,0,0,1,.244-.221.243.243,0,0,1,.244.221.245.245,0,0,1-.487,0Zm.066.576h.332v1.971h-.332Z" transform="translate(-358.483 -95.356)"/><path class="a" d="M436.915,99.2l-.842,1.971h-.332L434.9,99.2h.376l.642,1.55h0l.62-1.55Z" transform="translate(-361.286 -98.159)"/><path class="a" d="M446.549,100.1v.133h-1.595a.645.645,0,0,0,.687.6.717.717,0,0,0,.576-.266l.244.2a1.048,1.048,0,0,1-.842.376A1.019,1.019,0,0,1,445.6,99.1a.931.931,0,0,1,.952,1Zm-.93-.687a.625.625,0,0,0-.642.532h1.24a.6.6,0,0,0-.6-.532Z" transform="translate(-368.838 -98.081)"/><path class="a" d="M456.619,99.1h.089v.354h-.133a.612.612,0,0,0-.62.687v.952H455.6V99.122h.354v.354h0a.728.728,0,0,1,.664-.376Z" transform="translate(-377.402 -98.081)"/><path class="a" d="M462.119,101.215a1.27,1.27,0,0,1-.819-.288l.177-.244a.817.817,0,0,0,.642.244c.244,0,.4-.111.4-.266,0-.177-.2-.221-.487-.332-.332-.111-.62-.244-.62-.6,0-.31.288-.532.687-.532a1.1,1.1,0,0,1,.709.244l-.177.266a.815.815,0,0,0-.554-.2c-.155,0-.31.089-.31.221,0,.155.177.221.4.31.443.155.731.221.731.62a.7.7,0,0,1-.775.554Z" transform="translate(-381.839 -98.159)"/><path class="a" d="M470.1,95.821a.228.228,0,0,1,.244-.221.243.243,0,0,1,.244.221.228.228,0,0,1-.244.221A.243.243,0,0,1,470.1,95.821Zm.089.576h.332v1.971h-.332Z" transform="translate(-388.69 -95.356)"/><path class="a" d="M474.6,98.724c-.377,0-.531-.221-.531-.62V97H473.8v-.288h.266v-.664L474.42,96v.709h.687V97h-.687v1.041c0,.244.066.354.244.354a.669.669,0,0,0,.354-.111l.089.288a.82.82,0,0,1-.509.155Z" transform="translate(-391.571 -95.668)"/><path class="a" d="M482.449,100.1v.133h-1.594a.644.644,0,0,0,.686.6.717.717,0,0,0,.576-.266l.244.2a1.048,1.048,0,0,1-.842.376A1.019,1.019,0,0,1,481.5,99.1a.943.943,0,0,1,.952,1Zm-.952-.687a.624.624,0,0,0-.642.532h1.24a.584.584,0,0,0-.6-.532Z" transform="translate(-396.787 -98.081)"/><path class="a" d="M491.2,98.724c-.376,0-.531-.221-.531-.62V97H490.4v-.288h.266v-.664L491.02,96v.709h.686V97h-.686v1.041c0,.244.066.354.244.354a.669.669,0,0,0,.354-.111l.089.288a.774.774,0,0,1-.509.155Z" transform="translate(-404.495 -95.668)"/><path class="a" d="M497.8,95.821a.228.228,0,0,1,.244-.221.243.243,0,0,1,.244.221.228.228,0,0,1-.244.221A.243.243,0,0,1,497.8,95.821Zm.066.576h.332v1.971h-.332Z" transform="translate(-410.256 -95.356)"/></g><g transform="translate(20.153)"><rect class="a" width="0.111" height="4.163"/></g><g transform="translate(19.688)"><rect class="a" width="0.111" height="4.163"/></g></g><g transform="translate(100.655 9.966)"><path class="a" d="M454.9,59.9Z" transform="translate(-454.9 -56.6)"/><path class="a" d="M455.4,48.012l.2.111,5.382-2.9V45Z" transform="translate(-455.289 -45)"/></g><path class="a" d="M454,46.589l.2.111,5.692-3.078V43.4Z" transform="translate(-353.545 -33.789)"/><g transform="translate(4.319 4.141)"><path class="a" d="M45.6,18.722V18.7h0Z" transform="translate(-39.908 -18.7)"/><path class="a" d="M25.481,19.611l-.221-.111L19.9,22.4v.244Z" transform="translate(-19.9 -19.323)"/></g><path class="a" d="M25.791,20.433l-.2-.133L19.9,23.378v.244Z" transform="translate(-15.581 -15.804)"/></g></g><text class="b" transform="translate(443.49 250)"><tspan x="0" y="0">Azerbaijan</tspan><tspan x="0" y="19">State Oil</tspan><tspan x="0" y="38">&amp;</tspan><tspan x="0" y="57">Industry</tspan><tspan x="0" y="76">University</tspan></text><line class="c" y2="98.085" transform="translate(436.898 233.482)"/></g></svg>