<svg xmlns="http://www.w3.org/2000/svg" viewBox="0 0 179.314 250.656"><defs><style>.a{fill:#136e38;}.b{fill:#798d39;}.c{fill:#7a461c;}.d{fill:#5bba47;}.e{fill:#d1de32;}.f{fill:#f8a036;}.g{fill:#ef3a38;}</style></defs><g transform="translate(-118.702 -1250.868)"><g transform="translate(118.702 1250.868)"><g transform="translate(0 0)"><path class="a" d="M117.087,259.115c-.949-2.279-5.564-4.747-51.233-9.665-35.662-3.855-55.41-6.532-57.746-9.609-2.3-5.412-5.355-12.628-7.634-18.04-.133-.342-.323-.779-.475-1.1,2.45,2.791,19.236,5.241,66.538,9.665,52.2,4.9,57.594,7.425,58.638,9.59l-8.089,19.16" transform="translate(0 -177.082)"/><path class="b" d="M169.273,462.615c.19-2.222-3.893-4.937-34.788-9.665-26.148-4.007-39.8-6.589-41.8-9.59q-4.045-9.57-8.089-19.16c1.728,2.26,10.121,4.576,46.542,9.191,28.674,3.627,46.409,6.57,46.239,10.083l-8.108,19.141" transform="translate(-68.535 -341.939)"/><path class="c" d="M221.3,666.115c.93-3.779-7.045-6.684-20.185-10.159-15-3.969-22.426-6.342-24-9.115-2.3-5.412-5.336-12.628-7.634-18.04-.133-.342-.323-.779-.475-1.1,1.709,2.6,9.7,4.918,31.712,9.191,18.23,3.532,29.376,6.456,28.674,10.083L221.3,666.115" transform="translate(-136.908 -506.796)"/><path class="d" d="M166.971,6.78,141.716-9l2.469,19.027C76.811,19.882.836,33.061,0,34.6v.019c2.3,5.412,5.336,12.628,7.634,18.04.133.323.323.779.475,1.12.57-1.538,74.3-14.432,138.621-24.249l2.241,17.3L168.206,26.32l11.109-11.83Z" transform="translate(0 9)"/><path class="e" d="M92.764,360.71c.456-2.943,7.71-5.317,46.087-10.159,23.528-2.962,45.5-6.133,46.865-9.21,2.3-5.412,5.336-12.628,7.634-18.04.133-.323.323-.779.475-1.1-2.279,2.772-17.052,5.2-58.544,9.665-44.662,4.8-50.7,7.5-50.587,9.7,2.3,5.412,5.336,12.628,7.634,18.04a10.192,10.192,0,0,0,.437,1.1" transform="translate(-68.61 -259.308)"/><path class="f" d="M176.747,564.21c-.892-3.684,10.273-6.627,28.6-10.159,15.438-2.981,30.611-6.153,31.94-9.21,2.3-5.412,5.336-12.628,7.634-18.04.133-.342.323-.779.475-1.1-1.614,2.279-8.545,4.5-39.213,9.191-14.7,2.222-39.251,5.963-37.542,10.159,2.3,5.412,5.336,12.628,7.634,18.04.152.342.342.779.475,1.12" transform="translate(-136.547 -424.165)"/><path class="g" d="M260.993,767.71c-1.6-4.538,4.614-7.5,12.286-10.634,7.88-3.228,14.679-6,15.856-8.735,2.3-5.412,5.336-12.628,7.634-18.04.133-.323.323-.779.475-1.1-1.69,2.791-9.21,5.2-24.382,9.191-7.615,2.013-21.8,5.735-19.958,10.178,2.3,5.412,5.336,12.628,7.634,18.04.133.323.323.76.456,1.1" transform="translate(-204.747 -589.022)"/><g transform="translate(0.589 174.681)"><path class="f" d="M167.59,989.472a14.308,14.308,0,0,1-8.811-2.564A9.409,9.409,0,0,1,155,978.914a15.5,15.5,0,0,1,3-9.646,10.7,10.7,0,0,1,9-4.367,14.911,14.911,0,0,1,6.513,1.253,5.459,5.459,0,0,1,3.4,5.184c0,1.652-.93,3.114-2.772,4.386a34.372,34.372,0,0,1-5.07,2.563l-7.6,3.361a6.958,6.958,0,0,0,2.62,1.766,9.667,9.667,0,0,0,3.513.589,10.048,10.048,0,0,0,5.127-1.234,6.4,6.4,0,0,1,3-1.1,2.04,2.04,0,0,1,2.336,2.279c0,1.709-1.253,3.114-3.76,4.2A17.46,17.46,0,0,1,167.59,989.472Zm-.608-19.141a5.051,5.051,0,0,0-3.589,1.406,9.9,9.9,0,0,0-2.393,4.2c1.69-.74,3.38-1.462,5.07-2.184a36.432,36.432,0,0,0,4.842-2.544A7.629,7.629,0,0,0,166.982,970.331Z" transform="translate(-126.156 -954.646)"/><path class="g" d="M312.57,989.581c-.684,0-1.785-.665-3.285-2.013a30.56,30.56,0,0,1-3.646,1.5,8.958,8.958,0,0,1-2.677.513q-5.44,0-8.146-2.905t-2.715-8.7a12.448,12.448,0,0,1,4.007-9.3,13.333,13.333,0,0,1,9.608-3.874,12.982,12.982,0,0,1,4.956,1.2c2.279.969,3.4,2.089,3.4,3.361a2.1,2.1,0,0,1-.513,1.405,14.048,14.048,0,0,0-.342,2.241c-.076.892-.133,1.956-.133,3.152a22.157,22.157,0,0,0,.608,6.134c.038.133.4.911,1.044,2.317a11.346,11.346,0,0,1,.873,2.184,2.439,2.439,0,0,1-.911,1.956A2.965,2.965,0,0,1,312.57,989.581Zm-5.583-15.21c0-.474.038-1.026.1-1.652.076-.626.171-1.31.3-2.089a4.1,4.1,0,0,0-.8-.323,1.874,1.874,0,0,0-.589-.095,7.233,7.233,0,0,0-5.374,2.393,8.686,8.686,0,0,0-1.215,10.1,3.74,3.74,0,0,0,3.247,1.519,7.56,7.56,0,0,0,2.64-.456,8.022,8.022,0,0,0,2.355-1.367A69.209,69.209,0,0,1,306.987,974.37Z" transform="translate(-237.221 -954.565)"/><path class="g" d="M446.965,969.989c-1.272,1.443-2.81,3.38-4.614,5.83-2.507,3.4-4.083,5.488-4.69,6.266.912-.038,1.671-.038,2.279-.038a15.936,15.936,0,0,1,2.62.323,14.286,14.286,0,0,0,2.6.323,3.111,3.111,0,0,1,2.241.855,3,3,0,0,1,.019,4.253,3.161,3.161,0,0,1-2.26.836,15.966,15.966,0,0,1-2.62-.323,16.244,16.244,0,0,0-2.6-.323,51.035,51.035,0,0,0-9.438.836,5.419,5.419,0,0,1-.987.114,3.357,3.357,0,0,1-2.127-.684,2.328,2.328,0,0,1-.987-1.956,3.426,3.426,0,0,1,1.424-2.639q5.611-4.757,11.754-13.919c-.931.038-1.823.076-2.677.076a51.489,51.489,0,0,1-6.988-.494c-1.842-.247-2.772-1.234-2.772-2.924a2.938,2.938,0,0,1,.854-2.127,2.89,2.89,0,0,1,2.184-.873c.741,0,1.861.076,3.342.228q2.25.228,3.361.228c1.025,0,2.564-.057,4.6-.19,2.051-.133,3.57-.19,4.6-.19,1.88,0,2.81.76,2.81,2.3A6.6,6.6,0,0,1,446.965,969.989Z" transform="translate(-346.019 -953.431)"/><path class="g" d="M573.928,934.1c0,.854.019,2.241.076,4.121s.076,3.266.076,4.12a2.805,2.805,0,0,1-.873,2.146,3.365,3.365,0,0,1-4.482,0,2.834,2.834,0,0,1-.874-2.146c0-.854-.019-2.241-.076-4.12-.057-1.9-.076-3.266-.076-4.121,0-1.329.076-3.019.228-5.032s.228-3.684.228-5.032a2.806,2.806,0,0,1,.873-2.146,3.365,3.365,0,0,1,4.481,0,2.835,2.835,0,0,1,.874,2.146c0,1.329-.076,3.019-.228,5.032C574,931.1,573.928,932.775,573.928,934.1Zm-1.9-16.521a3.579,3.579,0,0,1-2.506-.968,3.181,3.181,0,0,1,0-4.747,3.579,3.579,0,0,1,2.506-.968,3.533,3.533,0,0,1,2.488.968,3.22,3.22,0,0,1,0,4.747A3.566,3.566,0,0,1,572.029,917.584Z" transform="translate(-460.487 -910.9)"/><path class="d" d="M29.362,1154.6a9.774,9.774,0,0,1-1.538,5.393,10.207,10.207,0,0,1-4.519,3.74,17.044,17.044,0,0,1-7.064,1.348,15.864,15.864,0,0,1-8.07-1.842,10.92,10.92,0,0,1-3.665-3.551,8.142,8.142,0,0,1-1.405-4.31,2.95,2.95,0,0,1,3-2.962,2.494,2.494,0,0,1,1.785.684,5.231,5.231,0,0,1,1.253,2.013,13.088,13.088,0,0,0,1.367,2.64,5.557,5.557,0,0,0,2.07,1.747,7.675,7.675,0,0,0,3.494.684,7.91,7.91,0,0,0,4.842-1.386,4.182,4.182,0,0,0,1.861-3.456,3.685,3.685,0,0,0-1.006-2.677,6.469,6.469,0,0,0-2.6-1.576c-1.063-.361-2.469-.74-4.254-1.158a30.911,30.911,0,0,1-5.963-1.956,9.844,9.844,0,0,1-3.817-3.038,7.975,7.975,0,0,1-1.405-4.785,8.214,8.214,0,0,1,1.481-4.842,9.434,9.434,0,0,1,4.311-3.266,17.613,17.613,0,0,1,6.627-1.139,16.1,16.1,0,0,1,5.26.76,11.163,11.163,0,0,1,3.684,2.013,8.649,8.649,0,0,1,2.146,2.62,5.962,5.962,0,0,1,.684,2.677,3.111,3.111,0,0,1-.855,2.146,2.683,2.683,0,0,1-2.108.949,2.449,2.449,0,0,1-1.747-.57,7.349,7.349,0,0,1-1.291-1.88,8.705,8.705,0,0,0-2.165-2.925,6.322,6.322,0,0,0-4.064-1.044,7.017,7.017,0,0,0-4.178,1.139,3.307,3.307,0,0,0-1.6,2.734,2.736,2.736,0,0,0,.532,1.709,4.6,4.6,0,0,0,1.481,1.234,11.165,11.165,0,0,0,1.918.816c.646.19,1.709.475,3.209.854a50.094,50.094,0,0,1,5.07,1.443,15.2,15.2,0,0,1,3.855,1.918,8.15,8.15,0,0,1,2.488,2.848A9.2,9.2,0,0,1,29.362,1154.6Z" transform="translate(-3.1 -1089.124)"/><path class="d" d="M179.086,1139.426h-7.311v24a4.353,4.353,0,0,1-.93,3.076,3.1,3.1,0,0,1-2.393,1.006,3.206,3.206,0,0,1-2.431-1.006,4.363,4.363,0,0,1-.93-3.057v-24.021H157.78a3.641,3.641,0,0,1-2.545-.759,2.579,2.579,0,0,1-.836-1.994,2.512,2.512,0,0,1,.873-2.032,3.761,3.761,0,0,1,2.507-.741h21.287a3.748,3.748,0,0,1,2.583.76,2.571,2.571,0,0,1,.854,2.013,2.5,2.5,0,0,1-.854,1.994A3.726,3.726,0,0,1,179.086,1139.426Z" transform="translate(-125.669 -1091.554)"/><path class="d" d="M319.028,1160.87l-1.576-4.14H304.007l-1.576,4.234a14.2,14.2,0,0,1-1.576,3.342,2.551,2.551,0,0,1-2.146.874,3.132,3.132,0,0,1-2.241-.931,2.807,2.807,0,0,1-.968-2.089,4.716,4.716,0,0,1,.228-1.405c.152-.475.4-1.158.741-2.013l8.45-21.458c.247-.608.532-1.348.873-2.222a11.834,11.834,0,0,1,1.082-2.145,4.458,4.458,0,0,1,1.519-1.386,4.546,4.546,0,0,1,2.317-.532,4.62,4.62,0,0,1,2.336.532,4.8,4.8,0,0,1,1.519,1.367,10.1,10.1,0,0,1,.968,1.785c.266.626.589,1.5,1.006,2.564l8.64,21.325a10.48,10.48,0,0,1,1.006,3.532,2.991,2.991,0,0,1-.949,2.108,3.124,3.124,0,0,1-2.317.95,2.944,2.944,0,0,1-1.348-.285,2.851,2.851,0,0,1-.949-.76,7.109,7.109,0,0,1-.817-1.481C319.483,1161.971,319.236,1161.383,319.028,1160.87Zm-13.254-9.172h9.874l-4.975-13.634Z" transform="translate(-239.976 -1089.205)"/><path class="d" d="M491.739,1152.813H489.4v10.615a4.373,4.373,0,0,1-.93,3.1,3.122,3.122,0,0,1-2.412.987,3.068,3.068,0,0,1-2.488-1.044,4.567,4.567,0,0,1-.874-3.038V1138a3.513,3.513,0,0,1,4.1-4.1h10.881a32.036,32.036,0,0,1,3.855.19,9.642,9.642,0,0,1,2.886.779,8.442,8.442,0,0,1,4.576,4.709,9.409,9.409,0,0,1,.627,3.418,8.278,8.278,0,0,1-2.089,5.906,11.826,11.826,0,0,1-6.323,3.133,11.969,11.969,0,0,1,3.4,2.791,29.151,29.151,0,0,1,2.905,3.931,26.091,26.091,0,0,1,1.975,3.76,7.357,7.357,0,0,1,.7,2.317,2.264,2.264,0,0,1-.418,1.291,2.923,2.923,0,0,1-1.139,1.007,3.612,3.612,0,0,1-1.671.38,3.2,3.2,0,0,1-1.9-.531,4.929,4.929,0,0,1-1.31-1.348c-.361-.532-.873-1.329-1.5-2.393l-2.677-4.462a25.108,25.108,0,0,0-2.583-3.741,6.548,6.548,0,0,0-2.317-1.766A8.63,8.63,0,0,0,491.739,1152.813Zm3.817-13.881h-6.172v9.077h6a16.5,16.5,0,0,0,4.064-.417,4.761,4.761,0,0,0,2.507-1.424,4.125,4.125,0,0,0,.874-2.754,4.245,4.245,0,0,0-.7-2.43,4.408,4.408,0,0,0-1.937-1.576A14.925,14.925,0,0,0,495.556,1138.932Z" transform="translate(-391.628 -1091.554)"/><path class="d" d="M653.386,1139.426h-7.311v24a4.352,4.352,0,0,1-.93,3.076,3.1,3.1,0,0,1-2.393,1.006,3.207,3.207,0,0,1-2.431-1.006,4.363,4.363,0,0,1-.93-3.057v-24.021H632.08a3.641,3.641,0,0,1-2.545-.759,2.58,2.58,0,0,1-.835-1.994,2.512,2.512,0,0,1,.874-2.032,3.761,3.761,0,0,1,2.506-.741h21.287a3.747,3.747,0,0,1,2.582.76,2.571,2.571,0,0,1,.855,2.013,2.5,2.5,0,0,1-.855,1.994A3.726,3.726,0,0,1,653.386,1139.426Z" transform="translate(-509.904 -1091.554)"/></g></g></g></g></svg>