<svg xmlns="http://www.w3.org/2000/svg" viewBox="0 0 87.828 122.771"><defs><style>.a{fill:#b5b5b5;}.b{fill:#fff;}.c{fill:#e0e0e0;}</style></defs><g transform="translate(0 9)"><g transform="translate(0 -9)"><path class="a" d="M57.349,239.516c-.465-1.116-2.725-2.325-25.094-4.734-17.467-1.888-27.14-3.2-28.284-4.706-1.125-2.651-2.623-6.185-3.739-8.836-.065-.167-.158-.381-.233-.539,1.2,1.367,9.422,2.567,32.59,4.734,25.568,2.4,28.21,3.637,28.721,4.7l-3.962,9.385" transform="translate(0 -199.336)"/><path class="a" d="M126.073,443.016c.093-1.088-1.907-2.418-17.039-4.734-12.807-1.963-19.495-3.227-20.471-4.7Q86.581,428.9,84.6,424.2c.846,1.107,4.957,2.241,22.8,4.5,14.044,1.776,22.731,3.218,22.648,4.939l-3.971,9.375" transform="translate(-76.731 -383.909)"/><path class="a" d="M194.615,646.516c.456-1.851-3.451-3.274-9.887-4.976-7.348-1.944-10.984-3.107-11.756-4.464-1.125-2.651-2.614-6.185-3.739-8.836-.065-.167-.158-.381-.233-.539.837,1.274,4.753,2.409,15.532,4.5,8.929,1.73,14.388,3.162,14.044,4.939l-3.962,9.375" transform="translate(-153.282 -568.481)"/><path class="b" d="M81.783-1.271,69.412-9,70.621.319C37.622,5.147.409,11.6,0,12.355v.009c1.125,2.651,2.614,6.185,3.739,8.836.065.158.158.381.233.549C4.25,21,40.366,14.68,71.868,9.871l1.1,8.473L82.387,8.3l5.441-5.794Z" transform="translate(0 9)"/><path class="b" d="M88.645,341.062c.223-1.442,3.776-2.6,22.573-4.976,11.524-1.451,22.285-3,22.955-4.511,1.125-2.651,2.614-6.185,3.739-8.836.065-.158.158-.381.233-.539-1.116,1.358-8.352,2.548-28.675,4.734-21.876,2.353-24.833,3.674-24.778,4.753,1.125,2.651,2.614,6.185,3.739,8.836a4.991,4.991,0,0,0,.214.539" transform="translate(-76.815 -291.396)"/><path class="b" d="M172.567,544.562c-.437-1.8,5.032-3.246,14.007-4.976,7.562-1.46,14.993-3.013,15.644-4.511,1.125-2.651,2.614-6.185,3.739-8.836.065-.167.158-.381.233-.539-.791,1.116-4.185,2.2-19.206,4.5-7.2,1.088-19.225,2.921-18.388,4.976,1.125,2.651,2.614,6.185,3.739,8.836.074.168.167.381.233.549" transform="translate(-152.877 -475.968)"/><path class="b" d="M256.782,748.062c-.781-2.223,2.26-3.674,6.018-5.208,3.86-1.581,7.19-2.939,7.766-4.278,1.125-2.651,2.613-6.185,3.739-8.836.065-.158.158-.381.233-.539-.828,1.367-4.511,2.548-11.942,4.5-3.73.986-10.677,2.809-9.775,4.985,1.125,2.651,2.614,6.185,3.739,8.836.065.158.158.372.223.539" transform="translate(-229.233 -660.541)"/><g transform="translate(0.288 85.559)"><path class="c" d="M161.167,976.935a7.007,7.007,0,0,1-4.316-1.256A4.609,4.609,0,0,1,155,971.764a7.59,7.59,0,0,1,1.47-4.725,5.239,5.239,0,0,1,4.409-2.139,7.305,7.305,0,0,1,3.19.614,2.674,2.674,0,0,1,1.665,2.539,2.64,2.64,0,0,1-1.358,2.149,16.822,16.822,0,0,1-2.483,1.256l-3.72,1.646a3.407,3.407,0,0,0,1.284.865,4.733,4.733,0,0,0,1.721.288,4.922,4.922,0,0,0,2.511-.6,3.137,3.137,0,0,1,1.47-.539,1,1,0,0,1,1.144,1.116c0,.837-.614,1.525-1.842,2.056A8.555,8.555,0,0,1,161.167,976.935Zm-.3-9.375a2.474,2.474,0,0,0-1.758.688,4.849,4.849,0,0,0-1.172,2.055c.828-.363,1.656-.716,2.483-1.07a17.83,17.83,0,0,0,2.372-1.246A3.739,3.739,0,0,0,160.869,967.56Z" transform="translate(-140.872 -959.878)"/><path class="c" d="M302.126,976.938a3.179,3.179,0,0,1-1.609-.986,14.938,14.938,0,0,1-1.786.735,4.387,4.387,0,0,1-1.311.251,5.2,5.2,0,0,1-3.99-1.423,6.787,6.787,0,0,1,.633-8.817,6.531,6.531,0,0,1,4.706-1.9,6.358,6.358,0,0,1,2.428.586c1.116.474,1.665,1.023,1.665,1.646a1.03,1.03,0,0,1-.251.688,6.878,6.878,0,0,0-.167,1.1c-.037.437-.065.958-.065,1.544a10.851,10.851,0,0,0,.3,3c.019.065.2.446.512,1.135a5.554,5.554,0,0,1,.428,1.07,1.194,1.194,0,0,1-.446.958A1.453,1.453,0,0,1,302.126,976.938Zm-2.734-7.45c0-.233.019-.5.047-.809s.084-.642.149-1.023a2.027,2.027,0,0,0-.391-.158.922.922,0,0,0-.288-.046,3.543,3.543,0,0,0-2.632,1.172,4.254,4.254,0,0,0-.6,4.948,1.832,1.832,0,0,0,1.59.744,3.7,3.7,0,0,0,1.293-.223,3.925,3.925,0,0,0,1.153-.67A33.9,33.9,0,0,1,299.392,969.488Z" transform="translate(-265.221 -959.787)"/><path class="c" d="M436.473,966.627c-.623.707-1.377,1.656-2.26,2.855-1.228,1.665-2,2.688-2.3,3.069.446-.018.819-.018,1.116-.018a7.806,7.806,0,0,1,1.284.158,7.012,7.012,0,0,0,1.274.158,1.523,1.523,0,0,1,1.1.419,1.471,1.471,0,0,1,.009,2.083,1.548,1.548,0,0,1-1.107.409,7.819,7.819,0,0,1-1.284-.158,7.948,7.948,0,0,0-1.274-.158,24.984,24.984,0,0,0-4.622.409,2.666,2.666,0,0,1-.484.056,1.645,1.645,0,0,1-1.042-.335,1.14,1.14,0,0,1-.484-.958,1.678,1.678,0,0,1,.7-1.293,33.187,33.187,0,0,0,5.757-6.817c-.456.018-.893.037-1.311.037a25.24,25.24,0,0,1-3.423-.242,1.351,1.351,0,0,1-1.358-1.432,1.439,1.439,0,0,1,.419-1.042,1.415,1.415,0,0,1,1.07-.428c.363,0,.911.037,1.637.112s1.284.111,1.646.111c.5,0,1.256-.028,2.251-.093s1.749-.093,2.251-.093c.921,0,1.377.372,1.377,1.125A3.232,3.232,0,0,1,436.473,966.627Z" transform="translate(-387.029 -958.517)"/><path class="c" d="M570.751,922.266c0,.419.009,1.1.037,2.018s.037,1.6.037,2.018a1.375,1.375,0,0,1-.428,1.051,1.648,1.648,0,0,1-2.195,0,1.388,1.388,0,0,1-.428-1.051c0-.418-.009-1.1-.037-2.018s-.037-1.6-.037-2.018c0-.651.037-1.479.112-2.465s.112-1.8.112-2.465a1.374,1.374,0,0,1,.428-1.051,1.648,1.648,0,0,1,2.195,0,1.389,1.389,0,0,1,.428,1.051c0,.651-.037,1.479-.112,2.465S570.751,921.615,570.751,922.266Zm-.93-8.092a1.753,1.753,0,0,1-1.228-.474,1.558,1.558,0,0,1,0-2.325,1.752,1.752,0,0,1,1.228-.474,1.73,1.73,0,0,1,1.218.474,1.577,1.577,0,0,1,0,2.325A1.747,1.747,0,0,1,569.821,914.174Z" transform="translate(-515.187 -910.9)"/><path class="c" d="M15.963,1142.507a4.787,4.787,0,0,1-.753,2.641A5,5,0,0,1,13,1146.981a8.348,8.348,0,0,1-3.46.661,7.769,7.769,0,0,1-3.953-.9,5.344,5.344,0,0,1-1.8-1.739,3.988,3.988,0,0,1-.688-2.111,1.445,1.445,0,0,1,1.47-1.451,1.223,1.223,0,0,1,.874.335,2.563,2.563,0,0,1,.614.986,6.413,6.413,0,0,0,.67,1.293,2.722,2.722,0,0,0,1.014.856,3.762,3.762,0,0,0,1.711.335,3.875,3.875,0,0,0,2.372-.679,2.048,2.048,0,0,0,.911-1.693,1.806,1.806,0,0,0-.493-1.312,3.168,3.168,0,0,0-1.274-.772c-.521-.177-1.209-.363-2.083-.568a15.134,15.134,0,0,1-2.92-.958,4.82,4.82,0,0,1-1.869-1.488,3.905,3.905,0,0,1-.688-2.344,4.022,4.022,0,0,1,.725-2.372,4.618,4.618,0,0,1,2.111-1.6,8.619,8.619,0,0,1,3.246-.558,7.891,7.891,0,0,1,2.576.372,5.468,5.468,0,0,1,1.8.986,4.238,4.238,0,0,1,1.051,1.283,2.92,2.92,0,0,1,.335,1.311,1.524,1.524,0,0,1-.419,1.051,1.314,1.314,0,0,1-1.032.465,1.2,1.2,0,0,1-.856-.279,3.6,3.6,0,0,1-.632-.921,4.258,4.258,0,0,0-1.06-1.432,3.1,3.1,0,0,0-1.99-.512,3.438,3.438,0,0,0-2.046.558,1.62,1.62,0,0,0-.781,1.339,1.34,1.34,0,0,0,.26.837,2.251,2.251,0,0,0,.725.6,5.49,5.49,0,0,0,.939.4c.316.093.837.233,1.572.419a24.479,24.479,0,0,1,2.483.707,7.442,7.442,0,0,1,1.888.939,3.991,3.991,0,0,1,1.218,1.4A4.5,4.5,0,0,1,15.963,1142.507Z" transform="translate(-3.1 -1110.438)"/><path class="c" d="M166.491,1136.606H162.91v11.756a2.132,2.132,0,0,1-.456,1.507,1.516,1.516,0,0,1-1.172.493,1.571,1.571,0,0,1-1.191-.493,2.137,2.137,0,0,1-.456-1.5v-11.766h-3.581a1.783,1.783,0,0,1-1.246-.372,1.263,1.263,0,0,1-.409-.977,1.231,1.231,0,0,1,.428-1,1.841,1.841,0,0,1,1.228-.363h10.426a1.836,1.836,0,0,1,1.265.372,1.26,1.26,0,0,1,.419.986,1.227,1.227,0,0,1-.419.977A1.825,1.825,0,0,1,166.491,1136.606Z" transform="translate(-140.328 -1113.159)"/><path class="c" d="M307.024,1145.63l-.772-2.027h-6.585l-.772,2.074a6.947,6.947,0,0,1-.772,1.637,1.25,1.25,0,0,1-1.051.428,1.534,1.534,0,0,1-1.1-.456,1.375,1.375,0,0,1-.474-1.023,2.307,2.307,0,0,1,.112-.688c.074-.233.2-.568.363-.986l4.139-10.51c.121-.3.26-.66.428-1.088a5.81,5.81,0,0,1,.53-1.051,2.186,2.186,0,0,1,.744-.679,2.229,2.229,0,0,1,1.135-.26,2.266,2.266,0,0,1,1.144.26,2.353,2.353,0,0,1,.744.67,4.948,4.948,0,0,1,.474.874c.13.307.288.735.493,1.256l4.232,10.445a5.133,5.133,0,0,1,.493,1.73,1.465,1.465,0,0,1-.465,1.032,1.53,1.53,0,0,1-1.135.465,1.441,1.441,0,0,1-.66-.14,1.4,1.4,0,0,1-.465-.372,3.478,3.478,0,0,1-.4-.725C307.247,1146.17,307.126,1145.881,307.024,1145.63Zm-6.492-4.493h4.836l-2.437-6.678Z" transform="translate(-268.304 -1110.529)"/><path class="c" d="M487.127,1143.164h-1.144v5.2a2.143,2.143,0,0,1-.456,1.516,1.53,1.53,0,0,1-1.181.483,1.5,1.5,0,0,1-1.218-.511,2.237,2.237,0,0,1-.428-1.488v-12.454a1.721,1.721,0,0,1,2.009-2.009h5.329a15.68,15.68,0,0,1,1.888.093,4.716,4.716,0,0,1,1.414.381,4.135,4.135,0,0,1,2.242,2.306,4.609,4.609,0,0,1,.307,1.674,4.055,4.055,0,0,1-1.023,2.893,5.793,5.793,0,0,1-3.1,1.535,5.862,5.862,0,0,1,1.665,1.367,14.288,14.288,0,0,1,1.423,1.925,12.779,12.779,0,0,1,.967,1.842,3.607,3.607,0,0,1,.344,1.135,1.111,1.111,0,0,1-.2.633,1.435,1.435,0,0,1-.558.493,1.772,1.772,0,0,1-.818.186,1.566,1.566,0,0,1-.93-.26,2.41,2.41,0,0,1-.642-.66c-.177-.26-.428-.651-.735-1.172l-1.311-2.186a12.328,12.328,0,0,0-1.265-1.833,3.215,3.215,0,0,0-1.135-.865A4.227,4.227,0,0,0,487.127,1143.164Zm1.869-6.8h-3.023v4.446h2.939a8.088,8.088,0,0,0,1.99-.2,2.333,2.333,0,0,0,1.228-.7,2.02,2.02,0,0,0,.428-1.349,2.08,2.08,0,0,0-.344-1.19,2.161,2.161,0,0,0-.949-.772A7.315,7.315,0,0,0,489,1136.365Z" transform="translate(-438.093 -1113.159)"/><path class="c" d="M640.791,1136.606H637.21v11.756a2.132,2.132,0,0,1-.456,1.507,1.517,1.517,0,0,1-1.172.493,1.571,1.571,0,0,1-1.191-.493,2.137,2.137,0,0,1-.456-1.5v-11.766h-3.581a1.784,1.784,0,0,1-1.246-.372,1.263,1.263,0,0,1-.409-.977,1.23,1.23,0,0,1,.428-1,1.841,1.841,0,0,1,1.228-.363h10.426a1.836,1.836,0,0,1,1.265.372,1.26,1.26,0,0,1,.419.986,1.227,1.227,0,0,1-.419.977A1.825,1.825,0,0,1,640.791,1136.606Z" transform="translate(-570.514 -1113.159)"/></g></g></g></svg>