<svg xmlns="http://www.w3.org/2000/svg" viewBox="0 0 403.689 403.689">
  <defs>
    <style>
      .cls-1 {
        fill: #11b54a;
        opacity: 0.814;
      }

      .cls-2, .cls-3, .cls-5, .cls-7 {
        fill: none;
      }

      .cls-2, .cls-3, .cls-5 {
        stroke: #fff;
      }

      .cls-2 {
        stroke-width: 4px;
      }

      .cls-3 {
        stroke-linecap: round;
        stroke-linejoin: round;
        stroke-width: 11px;
      }

      .cls-4 {
        fill: #fff;
      }

      .cls-5 {
        stroke-width: 2px;
      }

      .cls-6 {
        stroke: none;
      }
    </style>
  </defs>
  <g id="Group_420" data-name="Group 420" transform="translate(-69 -4534)">
    <g id="Group_365" data-name="Group 365">
      <rect id="cMgje6oq4fRlAPQjEQaM" class="cls-1" width="403.689" height="403.689" rx="10" transform="translate(69 4534)"/>
      <g id="Group_364" data-name="Group 364">
        <g id="Group_359" data-name="Group 359">
          <g id="Rectangle_58" data-name="Rectangle 58" class="cls-2" transform="translate(183 4693)">
            <rect class="cls-6" width="175" height="85" rx="42.5"/>
            <rect class="cls-7" x="2" y="2" width="171" height="81" rx="40.5"/>
          </g>
          <path id="Path_456" data-name="Path 456" class="cls-3" d="M2236.867,4708.121l24.547,24.547-24.547,24.547" transform="translate(-1978.367 2.379)"/>
        </g>
        <g id="Group_363" data-name="Group 363">
          <g id="Group_362" data-name="Group 362">
            <path id="Path_436" data-name="Path 436" class="cls-4" d="M26.263,2.488a10.9,10.9,0,0,1-3.094.835A5.349,5.349,0,0,0,25.539.388a10.935,10.935,0,0,1-3.422,1.287A5.421,5.421,0,0,0,18.183,0,5.346,5.346,0,0,0,12.8,5.3a5.222,5.222,0,0,0,.139,1.209A15.378,15.378,0,0,1,1.829.97,5.209,5.209,0,0,0,1.1,3.637a5.282,5.282,0,0,0,2.4,4.416,5.425,5.425,0,0,1-2.441-.665v.068a5.329,5.329,0,0,0,4.322,5.2,5.466,5.466,0,0,1-2.433.092,5.386,5.386,0,0,0,5.035,3.683A10.916,10.916,0,0,1,1.285,18.7,10.892,10.892,0,0,1,0,18.627a15.424,15.424,0,0,0,8.258,2.383,15.355,15.355,0,0,0,9.676-3.292,15.284,15.284,0,0,0,5.656-11.8c0-.23-.006-.458-.016-.686a10.845,10.845,0,0,0,2.688-2.745Zm0,0" transform="translate(217.278 4845.658)"/>
            <g id="Ellipse_46" data-name="Ellipse 46" class="cls-5" transform="translate(209.493 4834.758)">
              <circle class="cls-6" cx="20.242" cy="20.242" r="20.242"/>
              <circle class="cls-7" cx="20.242" cy="20.242" r="19.242"/>
            </g>
          </g>
          <g id="Group_361" data-name="Group 361">
            <path id="Path_437" data-name="Path 437" class="cls-4" d="M9.166,10.486H6.333V21.011H2.041V10.486H0v-3.7H2.041V4.392C2.041,2.681,2.843,0,6.372,0L9.55.014V3.6H7.244a.88.88,0,0,0-.911,1.008V6.79H9.542Zm0,0" transform="translate(270.218 4844.879)"/>
            <g id="Ellipse_47" data-name="Ellipse 47" class="cls-5" transform="translate(254.648 4834.758)">
              <circle class="cls-6" cx="20.242" cy="20.242" r="20.242"/>
              <circle class="cls-7" cx="20.242" cy="20.242" r="19.242"/>
            </g>
          </g>
          <g id="Group_360" data-name="Group 360">
            <path id="Path_438" data-name="Path 438" class="cls-4" d="M23.733,13.741v8.674H18.645V14.323c0-2.033-.734-3.421-2.578-3.421a2.781,2.781,0,0,0-2.609,1.84,3.367,3.367,0,0,0-.168,1.225v8.447H8.2S8.269,8.709,8.2,7.29h5.09V9.434c-.009.016-.024.033-.034.049h.034V9.434a5.062,5.062,0,0,1,4.586-2.5c3.348,0,5.857,2.162,5.857,6.806ZM2.88,0a2.623,2.623,0,1,0-.067,5.226h.031A2.624,2.624,0,1,0,2.88,0ZM.3,22.415H5.388V7.29H.3Zm0,0" transform="translate(307.587 4844.101)"/>
            <g id="Ellipse_48" data-name="Ellipse 48" class="cls-5" transform="translate(299.024 4834.758)">
              <circle class="cls-6" cx="20.242" cy="20.242" r="20.242"/>
              <circle class="cls-7" cx="20.242" cy="20.242" r="19.242"/>
            </g>
          </g>
        </g>
      </g>
    </g>
  </g>
</svg>
