<svg xmlns="http://www.w3.org/2000/svg" xmlns:xlink="http://www.w3.org/1999/xlink" viewBox="0 0 874.614 506.806"><defs><style>.a{opacity:0.935;}.b{fill:url(#a);}.c{fill:#001e48;}.d{fill:#fafbfb;}.e{fill:#165ab7;}.f{fill:#00265a;}.g{fill:url(#b);}.h{fill:url(#c);}.i{fill:url(#d);}.j{fill:url(#e);}.k{fill:url(#f);}.l{fill:url(#g);}.m{fill:url(#h);}.n{fill:url(#i);}.o{fill:#424242;}.p{fill:url(#j);}.q{fill:url(#k);}.r{fill:url(#l);}.s{fill:url(#m);}.t{fill:url(#n);}.u{fill:url(#o);}.v{fill:url(#p);}.w{fill:#ffa726;}.x{fill:url(#q);}.y{fill:url(#r);}.z{fill:url(#s);}.aa{fill:#01579b;}.ab{fill:url(#t);}.ac{fill:url(#u);}.ad{fill:url(#v);}.ae{fill:url(#w);}.af{fill:url(#x);}.ag{fill:url(#y);}.ah{fill:url(#z);}.ai{fill:url(#aa);}.aj{fill:url(#ab);}.ak{fill:url(#ac);}.al{fill:url(#ad);}.am{fill:url(#ae);}.an{fill:url(#af);}.ao{fill:url(#ag);}.ap{fill:url(#ah);}.aq{fill:url(#ai);}.ar{fill:url(#aj);}.as{fill:url(#ak);}.at{fill:url(#al);}.au{fill:#b0bec5;}.av{fill:url(#am);}.aw{fill:#ffcdd2;}.ax{fill:url(#an);}.ay{fill:url(#ao);}.az{fill:url(#ap);}.ba{fill:url(#aq);}.bb{fill:url(#ar);}.bc{fill:url(#as);}.bd{fill:url(#at);}.be{fill:url(#au);}.bf{fill:url(#av);}.bg{clip-path:url(#aw);}.bh{fill:url(#ax);}.bi{fill:url(#ay);}.bj{fill:url(#az);}.bk{fill:url(#ba);}.bl{fill:#e0e0e0;}.bm{fill:#e0f7fa;}.bn{fill:url(#bb);}.bo{fill:#5d4037;}.bp{fill:url(#bc);}.bq{fill:url(#bd);}.br{fill:url(#be);}.bs{fill:url(#bf);}.bt{fill:url(#bg);}.bu{fill:url(#bh);}.bv{fill:#ffab91;}.bw{fill:url(#bi);}.bx{fill:url(#bj);}.by{fill:url(#bk);}.bz{fill:url(#bl);}.ca{fill:url(#bm);}.cb{fill:url(#bn);}.cc{fill:#b29c88;}.cd{fill:url(#bo);}.ce{fill:#303f9f;}.cf{fill:#212121;}.cg{fill:url(#bp);}.ch{fill:url(#bq);}.ci{fill:url(#br);}.cj{fill:url(#bs);}.ck{fill:url(#bt);}.cl{fill:url(#bu);}.cm{fill:url(#bv);}.cn{fill:url(#bw);}.co{fill:url(#bx);}.cp{fill:url(#by);}.cq{fill:url(#bz);}.cr{fill:url(#ca);}.cs{fill:url(#cb);}.ct{fill:url(#cc);}.cu{fill:url(#cd);}.cv{fill:url(#ce);}.cw{fill:url(#cf);}.cx{fill:url(#cg);}.cy{fill:url(#ch);}.cz{fill:url(#ci);}.da{fill:url(#cj);}.db{fill:url(#ck);}.dc{fill:url(#cl);}.dd{fill:url(#cm);}.de{fill:url(#cn);}.df{fill:url(#co);}.dg{fill:#263238;}.dh{fill:#ffc400;}.di{fill:url(#cp);}.dj{fill:url(#cq);}.dk{fill:url(#cr);}.dl{fill:url(#cs);}.dm{fill:url(#ct);}.dn{fill:url(#cu);}</style><radialGradient id="a" cx="-13.506" cy="555.375" r="402.222" gradientTransform="translate(-11.336 540.982) scale(0.161 0.026)" gradientUnits="userSpaceOnUse"><stop offset="0" stop-color="#cfd8dc"/><stop offset="1" stop-color="#cfd8dc" stop-opacity="0"/></radialGradient><radialGradient id="b" cx="229.54" cy="537.807" r="177.701" gradientTransform="translate(174.068 506.259) scale(0.242 0.059)" xlink:href="#a"/><linearGradient id="c" x1="-19.766" y1="-3.3" x2="-18.606" y2="-3.3" gradientUnits="objectBoundingBox"><stop offset="0" stop-color="#00695c"/><stop offset="1" stop-color="#81c784"/></linearGradient><linearGradient id="d" x1="-24.652" y1="-6.927" x2="-23.62" y2="-6.927" xlink:href="#c"/><linearGradient id="e" x1="-35.615" y1="-7.132" x2="-34.681" y2="-7.132" xlink:href="#c"/><linearGradient id="f" x1="-30.681" y1="-8.388" x2="-29.689" y2="-8.388" xlink:href="#c"/><linearGradient id="g" x1="-49.025" y1="-6.741" x2="-48.192" y2="-6.741" xlink:href="#c"/><linearGradient id="h" x1="-42.665" y1="-7.841" x2="-41.572" y2="-7.841" xlink:href="#c"/><linearGradient id="i" x1="-44.934" y1="-8.443" x2="-44.079" y2="-8.443" xlink:href="#c"/><linearGradient id="j" x1="-18.202" y1="11.179" x2="-17.263" y2="11.179" xlink:href="#c"/><linearGradient id="k" x1="-28.806" y1="10.649" x2="-27.766" y2="10.649" xlink:href="#c"/><linearGradient id="l" x1="-47.984" y1="7.664" x2="-46.882" y2="7.664" xlink:href="#c"/><linearGradient id="m" x1="-39.454" y1="9.607" x2="-38.365" y2="9.607" xlink:href="#c"/><linearGradient id="n" x1="-83.815" y1="7.798" x2="-82.58" y2="7.798" xlink:href="#c"/><linearGradient id="o" x1="-44.766" y1="16.309" x2="-43.79" y2="16.309" xlink:href="#c"/><linearGradient id="p" x1="-80.049" y1="8.342" x2="-78.743" y2="8.342" xlink:href="#c"/><linearGradient id="q" x1="0.501" y1="0.43" x2="0.501" y2="-0.098" gradientUnits="objectBoundingBox"><stop offset="0.011" stop-color="#ffa726"/><stop offset="1" stop-color="#f26522"/></linearGradient><radialGradient id="r" cx="54.471" cy="537.807" r="177.701" gradientTransform="translate(41.307 506.259) scale(0.242 0.059)" xlink:href="#a"/><linearGradient id="s" x1="-0.939" y1="0.549" x2="-1.088" y2="1.136" gradientUnits="objectBoundingBox"><stop offset="0" stop-color="#7e57c2"/><stop offset="1" stop-color="#1b0f40"/></linearGradient><linearGradient id="t" x1="0.511" y1="-2.318" x2="0.331" y2="-1.554" gradientUnits="objectBoundingBox"><stop offset="0.002" stop-color="#7e57c2"/><stop offset="1" stop-color="#1b0f40"/></linearGradient><linearGradient id="u" x1="-37.914" y1="8.241" x2="-38.084" y2="9.077" xlink:href="#t"/><linearGradient id="v" x1="0.502" y1="0.431" x2="0.502" y2="-0.098" xlink:href="#q"/><radialGradient id="w" cx="28.725" cy="555.375" r="799.941" gradientTransform="translate(25.451 548.138) scale(0.114 0.013)" xlink:href="#a"/><linearGradient id="x" x1="0.5" y1="0.17" x2="0.5" y2="0.636" gradientUnits="objectBoundingBox"><stop offset="0" stop-color="#26a69a"/><stop offset="1" stop-color="#006064"/></linearGradient><linearGradient id="y" x1="0.342" y1="-0.035" x2="0.608" y2="0.861" gradientUnits="objectBoundingBox"><stop offset="0.036" stop-color="#b0bec5"/><stop offset="1" stop-color="#546e7a"/></linearGradient><linearGradient id="z" x1="-6.363" y1="8.16" x2="-6.162" y2="8.969" gradientUnits="objectBoundingBox"><stop offset="0" stop-color="#ffcdd2"/><stop offset="1" stop-color="#e57373"/></linearGradient><linearGradient id="aa" x1="0.373" y1="0.843" x2="0.545" y2="0.381" gradientUnits="objectBoundingBox"><stop offset="0" stop-color="#263238"/><stop offset="1" stop-color="#000001"/></linearGradient><linearGradient id="ab" x1="-6.895" y1="-29.802" x2="-6.906" y2="-30.187" xlink:href="#z"/><linearGradient id="ac" x1="-5.069" y1="-18.514" x2="-5.069" y2="-18.81" xlink:href="#y"/><linearGradient id="ad" x1="-3.132" y1="-17.096" x2="-3.132" y2="-16.011" xlink:href="#z"/><linearGradient id="ae" x1="0.502" y1="0.261" x2="0.502" y2="-0.312" xlink:href="#aa"/><linearGradient id="af" x1="0.525" y1="0.539" x2="0.501" y2="0.166" xlink:href="#z"/><linearGradient id="ag" x1="0.504" y1="0.229" x2="0.504" y2="-0.097" xlink:href="#y"/><linearGradient id="ah" x1="0.497" y1="-0.268" x2="0.497" y2="1.028" xlink:href="#z"/><linearGradient id="ai" x1="0.449" y1="0.167" x2="0.679" y2="1.524" xlink:href="#z"/><linearGradient id="aj" x1="1.169" y1="-1.943" x2="1.192" y2="-2.989" xlink:href="#y"/><linearGradient id="ak" x1="0.53" y1="0.221" x2="0.619" y2="-0.133" xlink:href="#y"/><linearGradient id="al" x1="0.499" y1="0.693" x2="0.499" y2="1.193" xlink:href="#y"/><linearGradient id="am" x1="0.833" y1="0.265" x2="1.071" y2="-0.002" xlink:href="#y"/><radialGradient id="an" cx="-369.726" cy="567.088" r="3061.668" gradientTransform="translate(-348.195 565.157) scale(0.058 0.003)" xlink:href="#a"/><linearGradient id="ao" x1="0.517" y1="0.297" x2="0.682" y2="1.151" xlink:href="#y"/><linearGradient id="ap" x1="-0.049" y1="0.5" x2="0.278" y2="0.5" gradientUnits="objectBoundingBox"><stop offset="0.036" stop-color="#ffab91"/><stop offset="1" stop-color="#ff8f6b"/></linearGradient><linearGradient id="aq" x1="-57.918" y1="126.576" x2="-56.212" y2="124.365" xlink:href="#y"/><linearGradient id="ar" x1="-111.707" y1="158.544" x2="-108.415" y2="155.759" xlink:href="#y"/><linearGradient id="as" x1="-25.836" y1="196.853" x2="-23.034" y2="192.15" xlink:href="#y"/><linearGradient id="at" x1="-93.136" y1="196.52" x2="-90.132" y2="193.001" xlink:href="#y"/><linearGradient id="au" x1="-139.691" y1="249.864" x2="-135.586" y2="245.464" xlink:href="#y"/><linearGradient id="av" x1="-234.576" y1="-52.057" x2="-234.201" y2="-51.175" xlink:href="#y"/><clipPath id="aw"><path d="M268.136,274.542H249.343L246.3,246.8h11.455l6.085,11.634,6.8,12.887C271.358,272.932,270.1,274.542,268.136,274.542Z" transform="translate(-246.3 -246.8)"/></clipPath><linearGradient id="ax" x1="0.199" y1="0.497" x2="1.078" y2="0.497" gradientUnits="objectBoundingBox"><stop offset="0" stop-color="#d0d0d0"/><stop offset="1" stop-color="#757575"/></linearGradient><linearGradient id="ay" x1="0.665" y1="0.567" x2="1.488" y2="0.567" gradientUnits="objectBoundingBox"><stop offset="0.002" stop-color="#dedede"/><stop offset="1" stop-color="#757575"/></linearGradient><linearGradient id="az" x1="0.496" y1="0.738" x2="0.456" y2="-0.107" xlink:href="#ay"/><linearGradient id="ba" x1="2.709" y1="0.083" x2="2.709" y2="0.648" gradientUnits="objectBoundingBox"><stop offset="0" stop-color="#c4c4c4"/><stop offset="1" stop-color="#757575"/></linearGradient><linearGradient id="bb" x1="0.758" y1="0.876" x2="0.414" y2="0.255" gradientUnits="objectBoundingBox"><stop offset="0" stop-color="#26c6da"/><stop offset="1" stop-color="#072759"/></linearGradient><linearGradient id="bc" x1="0.107" y1="2.967" x2="0.736" y2="1.891" xlink:href="#bb"/><linearGradient id="bd" x1="0.059" y1="0.054" x2="0.539" y2="0.583" xlink:href="#ap"/><linearGradient id="be" x1="0.521" y1="0.214" x2="0.463" y2="0.65" gradientUnits="objectBoundingBox"><stop offset="0.036" stop-color="#827717"/><stop offset="0.991" stop-color="#605b1f"/></linearGradient><linearGradient id="bf" x1="-129.507" y1="0.671" x2="-129.105" y2="0.097" xlink:href="#y"/><linearGradient id="bg" x1="0.374" y1="0.565" x2="1.24" y2="-1.405" xlink:href="#y"/><linearGradient id="bh" x1="0.691" y1="-2.146" x2="0.888" y2="-2.482" xlink:href="#y"/><linearGradient id="bi" x1="-47.572" y1="103.977" x2="-45.788" y2="102.037" xlink:href="#y"/><linearGradient id="bj" x1="-35.731" y1="262.629" x2="-34.225" y2="258.779" xlink:href="#y"/><linearGradient id="bk" x1="-82.519" y1="168.693" x2="-79.421" y2="165.525" xlink:href="#y"/><linearGradient id="bl" x1="-68.161" y1="205.064" x2="-65.308" y2="201.091" xlink:href="#y"/><linearGradient id="bm" x1="-106.867" y1="266.041" x2="-102.869" y2="261.031" xlink:href="#y"/><linearGradient id="bn" x1="0.498" y1="0.351" x2="0.498" y2="-0.109" xlink:href="#y"/><linearGradient id="bo" x1="0.504" y1="0.177" x2="0.504" y2="-0.12" gradientUnits="objectBoundingBox"><stop offset="0.011" stop-color="#937963"/><stop offset="1" stop-color="#4a392e"/></linearGradient><linearGradient id="bp" x1="-16.47" y1="33.779" x2="-16.47" y2="33.259" xlink:href="#y"/><linearGradient id="bq" x1="-4.194" y1="-47.722" x2="-3.523" y2="-47.852" xlink:href="#y"/><linearGradient id="br" x1="0.683" y1="-0.972" x2="1.341" y2="-0.996" gradientUnits="objectBoundingBox"><stop offset="0.036" stop-color="#ff5722"/><stop offset="1" stop-color="#ffab91"/></linearGradient><linearGradient id="bs" x1="0.74" y1="-0.423" x2="0.54" y2="-1.008" xlink:href="#br"/><linearGradient id="bt" x1="-287.37" y1="-85.232" x2="-286.584" y2="-84.622" xlink:href="#y"/><linearGradient id="bu" x1="0.005" y1="0.494" x2="1.007" y2="0.494" gradientUnits="objectBoundingBox"><stop offset="0" stop-color="#303f9f"/><stop offset="1" stop-color="#0c0a4a"/></linearGradient><linearGradient id="bv" x1="0.429" y1="0.339" x2="0.666" y2="0.904" gradientUnits="objectBoundingBox"><stop offset="0.063" stop-color="#4d3835"/><stop offset="1" stop-color="#0f0a09"/></linearGradient><linearGradient id="bw" x1="0.501" y1="0.142" x2="0.501" y2="0.955" gradientUnits="objectBoundingBox"><stop offset="0.036" stop-color="#d81b60"/><stop offset="1" stop-color="#ad1457"/></linearGradient><linearGradient id="bx" x1="-151.249" y1="0.733" x2="-150.941" y2="0.116" xlink:href="#y"/><linearGradient id="by" x1="0.497" y1="0.19" x2="0.497" y2="-0.086" xlink:href="#y"/><linearGradient id="bz" x1="1.239" y1="-12.359" x2="1.966" y2="-12.549" xlink:href="#y"/><linearGradient id="ca" x1="-187.033" y1="9.584" x2="-186.714" y2="10.772" xlink:href="#y"/><linearGradient id="cb" x1="0.371" y1="0.889" x2="0.742" y2="0.382" xlink:href="#bo"/><linearGradient id="cc" x1="0.851" y1="0.888" x2="0.381" y2="0.2" gradientUnits="objectBoundingBox"><stop offset="0" stop-color="#0d47a1"/><stop offset="1" stop-color="#072759"/></linearGradient><linearGradient id="cd" x1="-7.526" y1="-62.55" x2="-7.84" y2="-59.77" xlink:href="#y"/><linearGradient id="ce" x1="-29.041" y1="-84.619" x2="-30.148" y2="-80.852" xlink:href="#y"/><linearGradient id="cf" x1="-46.115" y1="-168.553" x2="-47.831" y2="-161.049" xlink:href="#y"/><linearGradient id="cg" x1="-45.795" y1="-168.855" x2="-47.511" y2="-161.351" xlink:href="#y"/><linearGradient id="ch" x1="-45.549" y1="-169.072" x2="-47.265" y2="-161.568" xlink:href="#y"/><linearGradient id="ci" x1="-61.394" y1="-229.162" x2="-63.709" y2="-219.008" xlink:href="#y"/><linearGradient id="cj" x1="-9.403" y1="59.747" x2="-9.028" y2="60.629" xlink:href="#y"/><linearGradient id="ck" x1="0.496" y1="0.347" x2="0.331" y2="-0.873" xlink:href="#cc"/><linearGradient id="cl" x1="0.666" y1="0.232" x2="0.414" y2="0.655" gradientUnits="objectBoundingBox"><stop offset="0.036" stop-color="#ffc400"/><stop offset="1" stop-color="#ffab00"/></linearGradient><linearGradient id="cm" x1="0.493" y1="0.966" x2="0.508" y2="-0.123" xlink:href="#y"/><linearGradient id="cn" x1="0.449" y1="0.181" x2="0.611" y2="0.641" gradientUnits="objectBoundingBox"><stop offset="0.036" stop-color="#ff5252"/><stop offset="1" stop-color="#d50000"/></linearGradient><linearGradient id="co" x1="0.577" y1="0.321" x2="0.73" y2="-0.403" xlink:href="#y"/><linearGradient id="cp" x1="0.525" y1="0.268" x2="0.126" y2="1.505" xlink:href="#y"/><linearGradient id="cq" x1="-0.268" y1="1.625" x2="-2.209" y2="4.662" xlink:href="#y"/><linearGradient id="cr" x1="-0.292" y1="5.892" x2="-1.817" y2="15.865" xlink:href="#y"/><linearGradient id="cs" x1="-0.23" y1="5.491" x2="-1.755" y2="15.464" xlink:href="#y"/><linearGradient id="ct" x1="-0.183" y1="5.171" x2="-1.708" y2="15.144" xlink:href="#y"/><linearGradient id="cu" x1="-0.38" y1="6.513" x2="-2.443" y2="20.086" xlink:href="#y"/></defs><g class="a" transform="translate(0.02 -183.8)"><g transform="translate(-0.02 53.8)"><ellipse class="b" cx="64.613" cy="10.381" rx="64.613" ry="10.381" transform="translate(608.399 601.725)"/><g transform="translate(154.14)"><g transform="translate(249.708 130)"><path class="c" d="M34.365,0A34.365,34.365,0,1,1,0,34.365,34.365,34.365,0,0,1,34.365,0Z"/><circle class="d" cx="30.606" cy="30.606" r="30.606" transform="translate(3.759 3.759)"/><circle class="e" cx="1.253" cy="1.253" r="1.253" transform="translate(33.112 33.112)"/><g transform="translate(4.981 4.833)"><g transform="translate(28.847)"><rect class="f" width="1.253" height="5.548"/><rect class="f" width="1.253" height="5.548" transform="translate(0 53.337)"/></g><g transform="translate(0 28.955)"><rect class="f" width="1.253" height="5.548" transform="translate(58.908) rotate(90)"/><rect class="f" width="1.253" height="5.548" transform="translate(5.548 0.022) rotate(90)"/></g></g><path class="e" d="M172.9,33.109l.716-19.509.716,19.509Z" transform="translate(-139.251 0.361)"/><path class="e" d="M178.745,31.519,165.5,17.2l14.14,13.245Z" transform="translate(-145.096 3.204)"/></g></g><g transform="translate(506.381 175.142)"><ellipse class="g" cx="42.956" cy="10.381" rx="42.956" ry="10.381" transform="translate(239.656 405.105)"/><g transform="translate(109.983)"><path class="h" d="M347.124,133.929a196.535,196.535,0,0,1,39.913,13.066c6.085,2.685,12.171,6.622,18.614,8.591a57.767,57.767,0,0,1,19.509,10.023,239.062,239.062,0,0,1,31.143,29,212.979,212.979,0,0,1,14.14,16.824c5.369,7.159,11.634,13.782,8.591,23.268-1.611,5.19-6.8,9.307-12.171,8.949-8.949-.358-12.529-5.906-17.54-12.529-4.117-5.548-8.591-10.739-13.245-15.929a303.345,303.345,0,0,0-29-27.742,103.719,103.719,0,0,1-13.6-14.5c-3.759-4.833-9.307-8.591-14.14-12.171a408.1,408.1,0,0,0-34.186-23.089A2.171,2.171,0,0,1,347.124,133.929Z" transform="translate(-344.35 -133.863)"/><path class="i" d="M361.65,217.549c3.043-3.759,4.654-8.412,8.949-11.276a34.9,34.9,0,0,1,11.992-4.654c10.56-2.327,21.657-.895,32.038,1.611,19.151,4.654,42.061,15.035,54.053,31.322,4.117,5.548,5.012,11.1,1.79,17.361-2.685,5.191-8.77,7.338-14.319,6.443-6.8-1.074-10.023-6.622-14.677-10.739-6.443-5.727-14.677-9.665-22.552-12.887-9.665-3.759-19.151-7.338-28.458-11.634-6.98-3.222-20.941-9.486-27.921-4.475C361.829,218.981,361.292,218.086,361.65,217.549Z" transform="translate(-330.776 -81.277)"/><path class="j" d="M471.6,193.944c20.046-1.611,36.513,16.466,44.209,33.291a.9.9,0,0,1-1.074,1.253c-6.264-2.506-11.992-6.443-18.435-8.412A43.574,43.574,0,0,0,477.686,219c-11.813,1.969-14.319,14.14-16.645,24.342-1.79,7.517-10.739,11.813-17.9,9.665-8.054-2.327-11.276-10.2-9.665-17.9C437.057,215.422,449.765,195.555,471.6,193.944Z" transform="translate(-274.273 -86.488)"/><path class="k" d="M380.543,270.208c4.654-6.98,8.591-13.6,15.572-18.435,7.517-5.19,16.645-8.591,25.774-8.77,19.688-.358,42.419,13.6,48.862,32.754,4.654,13.961-14.5,22.194-23.626,12.887-4.117-4.117-6.8-8.949-11.634-12.35a47.011,47.011,0,0,0-16.466-7.338c-10.918-2.864-26.132-3.4-35.618,3.759C381.975,273.788,379.29,272.177,380.543,270.208Z" transform="translate(-316.02 -47.666)"/><path class="l" d="M467.968,240.188c6.8-3.938,14.319-5.369,21.836-3.4,6.98,1.969,10.381,6.622,15.393,11.276,1.074.895-.179,3.043-1.432,2.506-6.8-3.043-18.972,4.833-23.447,9.844-6.264,6.98-7.517,17.182-7.159,26.132.895,18.256-28.637,17.9-28.458-.537C444.879,267.93,451.323,249.674,467.968,240.188Z" transform="translate(-265.091 -53.264)"/><path class="m" d="M396.26,285.539c9.307-8.054,18.614-9.128,30.069-3.938,12.887,5.906,22.373,15.75,32.038,25.773,13.066,13.245-8.412,33.47-21.12,19.867-6.98-7.7-13.066-15.75-19.688-23.626-4.3-5.37-12.887-13.961-20.046-14.677C395.9,288.582,395.008,286.613,396.26,285.539Z" transform="translate(-303.816 -19.683)"/><path class="n" d="M461.84,308.033c4.654-.895,7.517-3.938,10.56-7.338,4.833-5.369,9.844-11.1,16.645-14.14a28.66,28.66,0,0,1,16.824-2.506c6.264,1.074,8.77,3.58,12.171,8.412a1.9,1.9,0,0,1-1.969,3.043c-9.844-2.148-16.288,15.214-20.4,20.941-6.8,9.486-15.93,17.719-27.742,19.867C449.848,339.534,443.584,311.255,461.84,308.033Z" transform="translate(-260.216 -15.509)"/><path class="o" d="M381.216,237.81c37.765,8.054,71.235,32.4,90.923,65.508,1.969,3.4,3.938,6.8,5.728,10.381a452.11,452.11,0,0,0-25.416-78.574A473.6,473.6,0,0,0,419.7,171.586c-.358-.716.537-1.253,1.074-.537a442.229,442.229,0,0,1,52.442,116.339c1.253,4.3,2.327,8.591,3.58,12.887,2.864-19.509,9.486-39.018,17.9-56.738,3.58-7.517,7.159-17.719,14.319-22.552,4.654-3.043,11.634-2.864,14.856,2.148,0,0,0,.179-.179,0-2.506-3.4-6.8-4.3-10.739-3.043-4.3,1.432-7.338,5.369-9.665,9.128A145,145,0,0,0,492.364,253.2,338.137,338.137,0,0,0,478.4,303.139c-.179.358,2.148,13.424,3.58,19.867,1.253,3.222,2.685,11.1,2.148,11.276,3.043,17.182,6.622,56.738,6.622,58.169.179-.358.179-.537.358-.895a1.4,1.4,0,0,1,.716-.716c10.381-15.393,13.066-33.291,17-51.189,3.222-14.319,8.233-35.618,23.626-41.7a.175.175,0,0,1,.179.179c-15.393,10.918-19.151,30.427-22.552,47.788-3.222,16.645-6.264,34.723-17.361,47.967-.537.537-1.253,13.6-1.253,20.4s0,20.046.358,20.046c13.424.358,21.12-11.992,27.921-21.836,5.906-8.591,13.066-17,23.984-18.435.179,0,.358.358,0,.358-24.342,4.3-25.237,43.314-52.084,42.6-.358,0-3.4,32.4-6.085,48.683-.179.716-1.432.537-1.432-.179a466.17,466.17,0,0,0,4.474-49.936c-12.708-3.759-21.3-15.572-28.1-26.311-7.7-12.35-14.14-24.879-26.132-33.649-.358-.179,0-.537.358-.358,11.1,6.085,18.256,17.54,24.879,27.921,7.7,12.171,15.572,23.8,29.174,29.711.537-15.214.358-30.248-.537-45.462-7.338-2.685-12.887-10.739-16.466-17.361-4.475-8.412-6.8-17.54-10.2-26.311-3.759-9.844-9.128-18.793-18.077-24.7a44.657,44.657,0,0,0-28.279-6.98c-.179,0-.179-.358,0-.358,18.256-2.685,35.8,6.622,44.567,22.731,4.833,8.949,7.338,18.793,11.276,28.1a56.7,56.7,0,0,0,7.7,13.6c2.685,3.4,5.727,5.548,9.128,7.875-.537-8.591-1.432-17.361-2.506-25.953q-1.879-15.034-4.833-30.069c-2.685-6.8-5.369-13.6-9.128-20.046a134.631,134.631,0,0,0-16.466-23.447,146.72,146.72,0,0,0-44.03-35.081A142.357,142.357,0,0,0,380.5,237.81C380.858,238.168,380.858,237.631,381.216,237.81Z" transform="translate(-315.798 -104.759)"/></g><g transform="translate(0 183.392)"><path class="p" d="M283.973,252.474a159.412,159.412,0,0,1,32.575-8.77c5.369-.895,11.276-.895,16.466-2.327a44.514,44.514,0,0,1,17.54-1.79,196.808,196.808,0,0,1,33.828,5.906c5.727,1.432,11.276,3.222,16.824,5.19,6.8,2.327,13.961,4.117,16.108,11.813a10.373,10.373,0,0,1-4.3,11.455c-6.264,3.759-11.1,1.432-17.182-.716-5.19-1.79-10.56-3.58-15.929-5.012-10.381-2.864-21.12-4.475-31.68-6.085a78.969,78.969,0,0,1-15.572-3.759c-4.654-1.611-10.023-1.611-14.856-1.969-11.1-.895-22.015-.716-33.112-.537A1.77,1.77,0,0,1,283.973,252.474Z" transform="translate(-282.901 -233.907)"/><path class="q" d="M327.6,308.123c.537-3.938-.537-7.7,1.074-11.455a25.312,25.312,0,0,1,6.085-8.412c6.085-6.085,14.319-10.2,22.373-13.066,15.035-5.19,34.9-8.233,50.294-2.685,5.19,1.969,8.233,5.369,8.77,10.918.537,4.654-2.685,8.77-6.8,10.56-5.012,2.327-9.665-.179-14.677-.716a63.593,63.593,0,0,0-20.941,1.253c-8.054,1.79-16.108,3.4-24.342,4.653-6.085.895-18.256,2.864-20.762,9.307C328.316,309.2,327.6,308.66,327.6,308.123Z" transform="translate(-247.597 -210.087)"/><path class="r" d="M388.319,241.828c12.887-9.844,31.859-5.012,44.567,3.043.537.358.537,1.074-.179,1.253-5.37,1.074-10.918.895-16.108,2.506a34.2,34.2,0,0,0-13.066,7.517c-7.159,6.443-3.4,15.929-.537,23.8,2.148,5.906-1.969,12.708-7.7,14.5-6.443,1.969-11.992-1.969-14.5-7.7C374.537,271.539,374.358,252.567,388.319,241.828Z" transform="translate(-208.801 -236.326)"/><path class="s" d="M361.5,334.534c0-6.8-.179-12.887,2.327-19.33a37.762,37.762,0,0,1,13.6-17.182c13.245-8.949,34.723-9.486,47.251.537,9.128,7.338,0,21.3-10.381,19.151-4.475-.895-8.591-3.043-13.245-3.222a39.405,39.405,0,0,0-14.319,2.327c-8.591,2.864-19.151,9.128-22.373,18.077C364.007,336.323,361.5,336.323,361.5,334.534Z" transform="translate(-220.823 -193.005)"/><path class="t" d="M406.549,273.567a23.234,23.234,0,0,1,13.245-11.813c5.548-1.79,9.844-.179,15.213.895,1.074.179,1.253,2.148,0,2.327-5.906,1.074-10.739,11.634-11.455,17-1.253,7.517,2.506,14.856,6.622,20.762,8.591,11.813-11.455,24.7-19.33,12.171C403.149,302.2,399.569,287.17,406.549,273.567Z" transform="translate(-188.193 -216.876)"/><path class="u" d="M382.725,331.976c2.685-9.665,8.591-14.319,18.614-15.75,11.276-1.611,22.015.895,32.933,3.222,14.677,3.222,9.128,26.31-5.548,22.552-8.054-2.148-15.751-4.833-23.626-7.338-5.19-1.611-14.855-3.759-20.046-1.074A1.5,1.5,0,0,1,382.725,331.976Z" transform="translate(-204.102 -173.623)"/><path class="v" d="M431.974,324.223c2.685-2.506,3.222-5.906,3.759-9.665.895-5.727,1.79-11.813,5.012-16.824a21.5,21.5,0,0,1,10.2-8.949c4.654-2.148,7.517-1.432,11.992.358a1.492,1.492,0,0,1,0,2.864c-7.7,2.864-4.3,17.361-4.475,23.089-.537,9.307-2.864,18.972-10.023,25.595C437.7,350.892,421.056,334.6,431.974,324.223Z" transform="translate(-167.976 -195.939)"/><path class="o" d="M341.281,313.865a114.578,114.578,0,0,1,90.207,4.117c2.864,1.432,5.727,2.864,8.591,4.475a375.344,375.344,0,0,0-51.726-41.882,394.161,394.161,0,0,0-49.936-28.458c-.537-.179-.179-1.074.358-.895A360.072,360.072,0,0,1,425.4,306.527c2.685,2.327,5.37,4.654,8.054,7.159a159.887,159.887,0,0,1-12.887-46.178c-.895-6.622-3.043-15.035-.179-21.478,1.79-4.117,6.622-6.98,10.918-5.19v.179c-3.222-1.253-6.443.179-8.591,2.685-2.327,2.864-2.685,6.8-2.506,10.381a118.479,118.479,0,0,0,3.222,20.941c3.043,13.782,7.517,26.668,12.529,39.734.179.358,7.338,8.054,11.1,11.813,2.327,1.611,6.622,6.264,6.443,6.622,9.665,10.2,29.353,35.26,30.069,36.333a1.076,1.076,0,0,0-.179-.716c0-.358,0-.537.179-.716.179-15.035-5.906-28.279-11.1-42.061-4.117-11.1-10.023-27.563-2.327-38.481,0-.179.179,0,.179,0-5.548,14.14.537,29,5.727,42.24,5.012,12.708,11.1,26.132,9.307,40.092,0,.537,5.011,9.665,8.054,14.319,3.043,4.475,8.77,13.424,9.128,13.245,9.128-5.727,8.949-17.54,9.307-27.026.179-8.412,1.253-17.182,8.054-22.91.179-.179.358,0,.179.179-14.5,13.6,1.969,40.271-16.287,51.547-.179.179,11.992,23.268,17.182,35.439.179.537-.716,1.074-1.074.537-5.728-12.171-11.992-24.163-18.793-35.618-10.2,3.043-21.3-1.074-30.427-5.369-10.739-4.833-20.4-10.56-32.4-11.276-.179,0-.358-.358,0-.358,10.023-.716,20.046,3.759,29,7.875,10.56,4.833,20.941,9.128,32.754,7.159-6.264-10.381-13.066-20.583-20.4-30.427-6.085,1.432-13.424-1.611-18.614-4.475-6.622-3.759-12.35-8.949-18.435-13.245-6.8-5.012-14.319-8.591-23.089-8.77a35.067,35.067,0,0,0-22.015,7.7c-.179.179-.358-.179-.179-.179a34.921,34.921,0,0,1,39.913-4.3c7.159,3.938,13.245,9.486,20.046,13.961a41.836,41.836,0,0,0,11.276,5.728,29.925,29.925,0,0,0,9.665,1.253c-4.3-5.548-8.591-11.1-13.066-16.466-5.369-6.264-10.739-12.35-16.466-18.256a143.642,143.642,0,0,0-15.035-9.665,112.1,112.1,0,0,0-21.478-8.591,120.028,120.028,0,0,0-45.1-4.3,112.563,112.563,0,0,0-25.595,5.549C341.1,314.4,340.923,314.044,341.281,313.865Z" transform="translate(-239.263 -233.19)"/></g><g transform="translate(261.648 380.763)"><path class="w" d="M469.023,346.6H431.258a2.234,2.234,0,0,0-2.148,2.685l1.432,6.085a2.149,2.149,0,0,0,2.148,1.611h34.9a2.312,2.312,0,0,0,2.148-1.611l1.432-6.085A2.332,2.332,0,0,0,469.023,346.6Z" transform="translate(-429.087 -346.6)"/><path class="x" d="M431.3,353l3.043,21.12a2.893,2.893,0,0,0,2.864,2.506H459.4a2.894,2.894,0,0,0,2.864-2.506L465.307,353Z" transform="translate(-427.34 -341.545)"/></g></g><g transform="translate(0 246.406)"><ellipse class="y" cx="42.956" cy="10.381" rx="42.956" ry="10.381" transform="translate(46.214 333.841)"/><path class="z" d="M1.269,359.143c-1.611-7.517-2.327-15.393,1.611-22.373a14.345,14.345,0,0,1,7.517-6.622c10.2-4.117,19.33,5.012,24.521,13.782,3.938,6.8,7.159,14.14,13.961,18.614a15.777,15.777,0,0,0,8.77,2.685c11.455-.358,14.677-13.245,10.918-22.015-3.043-7.338-9.665-12.887-15.393-18.614a125.169,125.169,0,0,1-31.859-54.053c-3.58-12.887-5.012-27.563,4.833-37.944,5.191-5.369,13.066-7.7,19.867-4.833,8.412,3.4,10.023,11.634,11.455,19.151,1.074,6.264,2.506,13.066,8.054,17,3.58,2.506,8.412,2.864,11.634.179,3.222-2.864,2.864-6.98,2.685-10.918a92.217,92.217,0,0,1,23.089-66.4c8.77-9.844,23.8-18.256,34.544-9.307a19.8,19.8,0,0,1,5.727,8.949c2.506,8.233.537,16.466-1.253,24.521l-10.2,44.03a4.719,4.719,0,0,0,7.338,4.833l30.606-20.941a20.456,20.456,0,0,1,9.665-3.58c11.276-.716,14.5,8.949,14.677,17.361.358,18.256-9.486,35.618-22.552,48.683S142.307,323.7,126.557,333.37c-4.833,3.043-10.023,6.264-11.813,11.992a8.665,8.665,0,0,0,2.327,9.307c4.3,3.759,10.56,1.253,15.035-1.79,14.14-9.307,25.774-22.373,42.956-26.311a30.28,30.28,0,0,1,18.256,1.253c18.077,7.338,17,26.489,8.591,38.839-8.949,13.066-22.373,21.478-35.081,30.427-25.595,18.077-61.033,50.652-95.4,40.271-20.046-6.085-37.765-21.3-50.473-37.407A106.617,106.617,0,0,1,1.269,359.143Z" transform="translate(0.02 -173.679)"/><g transform="translate(24.666 63.219)"><g transform="translate(64.811)"><path class="aa" d="M53.6,454.565a.845.845,0,0,1-.895-.895,920.547,920.547,0,0,1,13.6-243.954.913.913,0,1,1,1.79.358A916.528,916.528,0,0,0,54.5,453.491c0,.716-.358,1.074-.895,1.074Z" transform="translate(-49.971 -209)"/></g><g transform="translate(13.606 15.862)"><path class="aa" d="M79.6,276.815a44.562,44.562,0,0,1-16.287-2.864c-12.887-4.832-21.657-15.214-26.847-22.91C29.842,241.018,25.367,229.385,21.43,219a.849.849,0,0,1,1.611-.537c3.938,10.2,8.233,21.657,14.856,31.68,5.012,7.517,13.424,17.54,25.953,22.373,15.393,5.907,35.26,2.148,51.905-9.665,15.214-10.739,26.31-26.131,36.87-40.808a.895.895,0,1,1,1.432,1.074c-10.739,14.856-21.836,30.248-37.228,41.166C105.373,272.519,91.949,276.815,79.6,276.815Z" transform="translate(-21.363 -217.863)"/></g><g transform="translate(0 114.46)"><path class="aa" d="M75.4,332.462a55.624,55.624,0,0,1-17.182-2.685c-22.015-7.338-35.976-28.458-44.388-43.672a1.186,1.186,0,0,1,.358-1.253,1.186,1.186,0,0,1,1.253.358c8.412,15.035,22.015,35.8,43.493,42.777,18.256,6.085,40.629,1.432,59.78-12.529l3.759-2.685c16.287-11.813,31.68-23.089,47.788-39.555a.886.886,0,1,1,1.253,1.253c-16.108,16.645-31.68,27.921-47.967,39.734l-3.58,2.685C105.828,327.092,90.078,332.462,75.4,332.462Z" transform="translate(-13.761 -272.95)"/></g></g><g transform="translate(71.437 172.305)"><path class="ab" d="M39.906,343.424c.179-3.759.716-7.517,3.4-10.381a6.854,6.854,0,0,1,4.3-2.327c5.191-.716,8.412,4.475,9.844,9.307,1.074,3.58,1.79,7.517,4.475,10.381a8.319,8.319,0,0,0,3.759,2.327c5.369,1.253,8.412-4.475,7.7-9.128-.537-3.938-3.043-7.159-5.012-10.56a60.133,60.133,0,0,1-8.591-29.174c-.179-6.443.895-13.6,6.622-17.361a8.617,8.617,0,0,1,9.844,0c3.58,2.506,3.4,6.622,3.222,10.381-.179,3.043-.358,6.443,1.79,8.949a4.562,4.562,0,0,0,5.369,1.432c1.79-.895,2.148-3.043,2.506-4.833a46.521,46.521,0,0,1,18.435-28.816c5.191-3.58,13.245-5.906,17.182-.358a7.853,7.853,0,0,1,1.611,4.833c.179,4.117-1.611,7.875-3.4,11.455l-9.844,19.688a2.341,2.341,0,0,0,2.864,3.222l16.824-6.443a9.025,9.025,0,0,1,4.833-.537c5.37.895,5.727,5.906,4.833,9.844-1.969,8.77-8.591,15.75-16.287,20.4s-16.287,7.159-24.879,10.023c-2.685.895-5.369,1.79-6.98,4.3a4.369,4.369,0,0,0,0,4.654c1.611,2.327,4.833,1.79,7.338.895,7.7-2.685,14.677-7.517,23.089-7.517a13.876,13.876,0,0,1,8.412,2.685c7.517,5.548,4.833,14.5-.537,19.33-5.727,5.011-13.066,7.517-20.046,10.381-14.14,5.549-34.544,16.824-49.4,8.054-8.77-5.191-15.214-14.5-19.33-23.447A60.2,60.2,0,0,1,39.906,343.424Z" transform="translate(-39.892 -269.947)"/><g transform="translate(9.99 26.941)"><g transform="translate(17.945 0.53)"><path class="aa" d="M56.395,400.747h0c-.716-.179-.895-.537-.895-1.074A457.845,457.845,0,0,1,90.223,285.84a.921.921,0,1,1,1.611.895A452.947,452.947,0,0,0,57.111,400.21.8.8,0,0,1,56.395,400.747Z" transform="translate(-55.5 -285.296)"/></g><g transform="translate(19.198)"><path class="aa" d="M83.763,321.334a24.811,24.811,0,0,1-14.14-4.117c-5.548-3.938-8.591-9.844-10.023-14.14-1.969-5.548-2.685-11.634-3.4-17a.913.913,0,1,1,1.79-.358c.716,5.19,1.432,11.1,3.222,16.645,1.432,4.117,4.3,9.665,9.307,13.245,6.443,4.475,15.929,5.012,25.058,1.432,8.233-3.222,15.214-9.307,21.836-15.035a.895.895,0,0,1,1.074,1.432c-6.8,5.906-13.782,11.813-22.373,15.214A27.5,27.5,0,0,1,83.763,321.334Z" transform="translate(-56.2 -285)"/></g><g transform="translate(0 50.606)"><path class="aa" d="M76.843,344.822a27.651,27.651,0,0,1-15.393-4.3c-9.486-6.085-13.6-17.719-15.929-26.131-.179-.537.179-.895.716-1.074s.895.179,1.074.716c2.148,8.054,6.085,19.33,15.214,25.058,7.7,4.833,18.614,5.19,29,.895l1.969-.895c8.949-3.759,17.54-7.159,26.847-13.066a.921.921,0,0,1,.895,1.611c-9.486,6.085-18.077,9.486-27.205,13.245l-1.969.895A41.911,41.911,0,0,1,76.843,344.822Z" transform="translate(-45.474 -313.274)"/></g></g></g><g transform="translate(17.344 226.052)"><path class="ac" d="M85.076,338.321c-.716-2.506-1.611-5.012-3.938-6.622a4.264,4.264,0,0,0-3.222-.895c-3.759.358-5.012,4.475-5.369,7.875-.179,2.685,0,5.369-1.432,7.875a5.44,5.44,0,0,1-2.327,2.148c-3.58,1.611-6.443-1.79-6.622-5.012-.179-2.685.895-5.369,1.79-7.875a40.954,40.954,0,0,0,1.432-21.3c-.895-4.475-2.685-9.128-7.159-10.918a6.4,6.4,0,0,0-6.8,1.432c-1.969,2.327-1.253,5.012-.537,7.517.537,2.148,1.253,4.3.179,6.443a3.362,3.362,0,0,1-3.58,1.79c-1.432-.358-1.969-1.79-2.506-2.864a31.915,31.915,0,0,0-17-16.824c-4.117-1.611-9.844-1.969-11.813,2.327a6.042,6.042,0,0,0-.358,3.58c.537,2.864,2.327,5.19,4.117,7.338l9.665,11.813a1.663,1.663,0,0,1-1.432,2.685l-12.35-1.79a7.4,7.4,0,0,0-3.4.358c-3.58,1.432-3.043,5.012-1.79,7.517,2.685,5.548,8.233,9.486,14.14,11.455s12.171,2.506,18.435,3.043c1.969.179,3.938.358,5.369,1.969a3.543,3.543,0,0,1,.716,3.222c-.716,1.79-3.043,1.969-4.833,1.79-5.727-.716-11.1-3.043-17-1.611a12.364,12.364,0,0,0-5.369,3.043C17.778,362.662,21,368.39,25.3,370.9c4.654,2.685,10.023,3.222,15.214,4.117,10.381,1.611,26.132,6.264,34.9-1.969,5.191-4.832,8.233-12.171,9.665-18.972A33.45,33.45,0,0,0,85.076,338.321Z" transform="translate(-9.67 -299.977)"/><g transform="translate(8.217 10.959)"><g transform="translate(16.163 5.353)"><path class="aa" d="M65.189,383.206a.984.984,0,0,1-.895-.537,314.843,314.843,0,0,0-40.808-72.13.895.895,0,0,1,1.432-1.074,311.3,311.3,0,0,1,40.987,72.488c.179.537,0,.895-.537,1.253Z" transform="translate(-23.291 -309.091)"/></g><path class="aa" d="M36.525,335.99a31.952,31.952,0,0,1-4.117-.358c-6.443-1.074-12.171-4.117-17.719-6.98a.921.921,0,0,1,.895-1.611c5.369,2.864,11.1,5.906,17.182,6.8,6.622,1.074,12.887-.716,16.645-4.654a19.045,19.045,0,0,0,4.3-10.381c.537-3.938,0-8.054-.358-11.813a.81.81,0,0,1,1.611-.179,68.164,68.164,0,0,1,.358,12.171c-.358,3.222-1.432,7.875-4.833,11.276C47.264,334.021,42.073,335.99,36.525,335.99Z" transform="translate(-14.261 -306.1)"/><g transform="translate(10.921 31.501)"><path class="aa" d="M48.172,351.084a25.561,25.561,0,0,1-5.191-.537l-1.432-.179c-6.8-1.253-13.066-2.327-20.583-5.011a.849.849,0,1,1,.537-1.611,103.035,103.035,0,0,0,20.225,4.833l1.432.179c7.7,1.432,15.035-.537,19.509-5.012,5.191-5.19,6.264-13.424,6.443-19.151a.959.959,0,0,1,.895-.895.846.846,0,0,1,.895.895c-.358,6.085-1.253,14.677-6.98,20.4C60.164,348.937,54.436,351.084,48.172,351.084Z" transform="translate(-20.363 -323.7)"/></g></g></g><g transform="translate(68.922 308.426)"><path class="w" d="M78.423,346H40.658a2.234,2.234,0,0,0-2.148,2.685l1.432,6.085a2.149,2.149,0,0,0,2.148,1.611h34.9a2.312,2.312,0,0,0,2.148-1.611l1.432-6.085A2.149,2.149,0,0,0,78.423,346Z" transform="translate(-38.487 -346)"/><path class="ad" d="M40.8,352.4l3.043,21.12a2.894,2.894,0,0,0,2.864,2.506H68.721a2.894,2.894,0,0,0,2.864-2.506l3.043-21.12Z" transform="translate(-36.661 -340.945)"/></g></g><g transform="translate(105.457 212.395)"><ellipse class="ae" cx="91.102" cy="10.381" rx="91.102" ry="10.381" transform="translate(0 389.33)"/><g transform="translate(38.272)"><path class="af" d="M127.344,165.458c6.264.179,8.77-6.8,13.961-8.949,8.233-3.222,19.688-2.506,25.774,4.654,1.611,1.969,2.864,5.548,5.19,6.98,3.58,2.148,7.159.895,10.381,4.475,7.159,8.412-4.117,19.509.537,29.174,3.222,6.443,12.35,4.832,17.182,9.307,5.012,4.654,6.8,11.1,3.759,17.182-1.253,2.685-6.085,8.054-1.611,10.2a14.913,14.913,0,0,0,2.685.716c8.591,1.79,17.182,7.159,20.941,15.393,9.665,20.941-9.665,37.765-27.563,44.567-14.5,5.37-29.89,4.654-44.209-.895-21.12-8.233-48.146-23.447-47.073-49.4.179-6.443,5.19-12.708,2.864-19.151-1.611-4.117-4.475-7.517-6.443-11.455a24.859,24.859,0,0,1-2.685-13.424,16.577,16.577,0,0,1,2.148-7.7c2.506-4.475,7.338-5.012,10.56-8.412a13.709,13.709,0,0,0,3.58-8.412c.179-3.222-1.611-6.443-.358-9.665C118.216,166.353,123.228,165.279,127.344,165.458Z" transform="translate(-63.954 -154.676)"/><path class="ag" d="M145.655,205.7l14.319,25.774-7.875,6.98-17.9-25.595Z" transform="translate(-37.698 -114.376)"/><path class="ah" d="M141.293,226.13c.895-.716,13.066-10.739,13.245-12.35-2.506-.716-.716-1.611-1.432-3.4-.537-1.253-2.506-.895-2.148-2.685-1.611-.895-2.148-2.864-3.043-4.3a26.438,26.438,0,0,0-4.833-5.191c-3.222-2.685-6.443-3.58-9.844-3.043-3.222.537-5.727,1.253-7.338,4.3-1.969,3.759.716,8.233,3.222,11.813a36.6,36.6,0,0,0,3.759,5.011c1.074,1.253,1.074,1.432.895,3.043.537.358,1.432.358,1.79.716.716.716.358,1.611,1.432,1.79C137.176,222.908,140.219,226.309,141.293,226.13Z" transform="translate(-44.791 -122.814)"/><g transform="translate(9.874 168.823)"><path class="ai" d="M174.021,249c-21.12,7.517-39.2-.179-48.146,10.918-5.727,7.159-3.043,22.91-3.759,27.205-3.4,22.731,3.043,37.049,8.054,66.4-11.813,6.264-19.509,20.4-21.3,30.606-.716,4.475-2.685,10.739-4.833,17.182-3.4,10.2-7.875,21.12-10.739,27.742,2.864,1.611,4.833,3.043,8.591,3.043a204.161,204.161,0,0,1,14.14-25.774c8.77-13.961,18.435-27.921,24.342-41.882,11.455-11.813,23.626-54.053,26.847-70.161C169.547,281.754,171.695,264.393,174.021,249Z" transform="translate(-79.876 -249)"/><g transform="translate(0 180.415)"><path class="aj" d="M92.422,353.9,85.8,374.3l1.074.358,7.338-15.035Z" transform="translate(-85.8 -346.562)"/><path class="ak" d="M101.976,368.235c.179-5.727-.716-9.844.895-14.677-.179.179-.895.716-4.3-.716-4.475-1.79-4.117-3.043-4.117-3.043a5.381,5.381,0,0,1-2.148,1.969c1.969,9.486-3.043,18.614.179,28.458,1.253,4.3,4.3,3.4,8.054,2.864a13.424,13.424,0,0,0-.179-2.148C99.471,376.29,101.976,373.068,101.976,368.235Z" transform="translate(-81.393 -349.8)"/><path class="al" d="M94.207,379.458c-3.222-10.023,1.611-18.972-.179-28.458-1.611.537-3.222.358-4.3,2.685-1.432,3.222.358,5.548,1.79,8.233,2.506,5.012.358,10.023,0,15.035-.358,3.58.716,4.832,3.222,7.338,2.327,2.327,3.938,2.327,7.7,3.759,3.4,1.253,5.191-.716,2.148-3.4-1.79-1.432-2.148-1.79-2.327-2.327C98.5,382.859,95.46,383.754,94.207,379.458Z" transform="translate(-83.11 -348.852)"/></g></g><g transform="translate(45.929 157.189)"><path class="am" d="M146.494,249.838c-10.023.179-20.046-3.222-29.532-7.338-.358,1.969-18.435,17.54-7.517,49.041,6.98,28.279,16.287,54.948,19.509,77.679-8.412,10.381-10.2,26.31-7.875,36.512a106.445,106.445,0,0,1,2.148,17.719c.716,10.739.895,22.552.895,29.711,3.222.358,5.548.895,9.128-.537a212.616,212.616,0,0,1,3.043-29.174c2.685-16.287,6.085-32.933,6.264-48.146,5.906-15.393,6.8-84.3,7.875-95.935,1.253-12.708,5.548-4.475,10.918-15.929,2.506-5.37,3.043-15.035,3.043-17.54C159.2,248.764,153.116,249.659,146.494,249.838Z" transform="translate(-105.944 -242.5)"/><g transform="translate(14.418 211.558)"><path class="an" d="M114.5,365.7l1.79,21.478h1.074l1.074-16.824Z" transform="translate(-113.605 -356.751)"/><path class="ao" d="M130.893,374.482c-2.148-5.37-4.475-8.77-4.833-13.782,0,.358-.537.895-4.3,1.074-4.833.179-5.012-1.074-5.012-1.074a4.142,4.142,0,0,1-1.253,2.506c5.548,8.054,4.475,18.256,11.276,26.132,2.864,3.58,5.191,1.432,8.591-.537a7.371,7.371,0,0,0-1.074-1.79C131.608,382.894,132.682,379.135,130.893,374.482Z" transform="translate(-112.815 -360.7)"/><path class="ap" d="M128.14,388.231c-6.8-7.875-5.906-18.077-11.276-26.132-1.253,1.253-2.864,1.611-2.864,4.117,0,3.4,2.506,4.833,4.833,6.98,4.3,3.759,4.3,9.128,5.906,13.961,1.074,3.4,2.506,4.117,5.727,5.549,3.043,1.253,4.475.537,8.591.537,3.58-.179,4.475-2.685.716-3.938-2.327-.716-2.685-.716-3.043-1.253C133.33,389.663,130.824,391.811,128.14,388.231Z" transform="translate(-114 -359.594)"/></g></g><path class="aq" d="M126.311,256.043c.179,3.043-8.412,18.435-12.529,27.026,4.475,5.191,15.393,8.591,23.984,8.949,7.338.358,16.287.358,23.626-2.506l-3.4-44.209s15.929-4.833,8.591-17c-6.8-11.276-18.077-34.007-25.595-34.007a8.947,8.947,0,0,0-7.7-2.864c-8.77.716-12.887,3.58-17,10.739-3.759,6.264-7.875,15.571-5.727,22.731Z" transform="translate(-56.836 -125.701)"/><g transform="translate(69.281 29.038)"><path class="ar" d="M123.248,182.7,121.1,198.808l22.015,30.964-7.7-25.237,1.79-12.35Z" transform="translate(-117.326 -161.58)"/><path class="as" d="M149.613,170.9a13.487,13.487,0,0,1-5.369,11.813c-3.222,2.506-13.245,6.085-18.435,2.327a.248.248,0,0,1,0-.358h-.179l.179-2.327a3.219,3.219,0,0,0-3.043-3.4h0a3.369,3.369,0,0,0-3.58,3.043l-.179,2.506a3.291,3.291,0,0,0,3.222,3.58,2.155,2.155,0,0,1,1.79,2.327l-.179,1.432c-.358,4.832,20.762,17,23.089,11.992a134.558,134.558,0,0,0,5.19-23.447,45.947,45.947,0,0,0-.179-8.591A12.423,12.423,0,0,1,149.613,170.9Z" transform="translate(-118.992 -170.9)"/></g><g transform="translate(97.378 61.235)"><path class="at" d="M147.827,196l9.844,42.777c2.506,7.159-4.475,12.887-10.023,9.307a7.589,7.589,0,0,1-3.043-5.548c-.895-23.8-2.506-44.567-2.506-44.567Z" transform="translate(-128.836 -183.273)"/><path class="au" d="M144.668,192.8a5.183,5.183,0,0,0-4.117-1.79,3.082,3.082,0,0,0-2.148,1.79,8.84,8.84,0,0,0-.895,2.864c-.358,1.79,4.475,7.7,8.233,6.085,1.074-.537,5.548-.537,5.727-1.79A82.585,82.585,0,0,0,144.668,192.8Z" transform="translate(-132.478 -187.232)"/><path class="au" d="M146.163,195.173c0-2.327-11.634-7.338-11.455-6.085-.358,1.074,4.475,3.222,5.19,3.58C141.868,194.1,143.3,196.963,146.163,195.173Z" transform="translate(-134.689 -188.889)"/><path class="au" d="M145.746,193.415c-.895-1.969-7.338-2.327-9.307-1.253-1.074.537-1.611,3.043-.895,4.117,1.253-.179.716-1.611,1.432-2.148.537-.537,1.253-.179,2.148-.179C141.271,194.131,143.777,196.1,145.746,193.415Z" transform="translate(-134.272 -186.774)"/><path class="au" d="M146.523,196.319c-.358-2.148-6.622-4.117-8.77-3.58a3.263,3.263,0,0,0-1.79,3.759c1.253.179,1.074-1.253,1.969-1.79.716-.358,1.253,0,2.148.358C142.048,196.14,144.017,198.646,146.523,196.319Z" transform="translate(-133.796 -185.919)"/><path class="au" d="M144.517,196.309c-.358-1.611-5.012-2.685-6.622-2.148a2.645,2.645,0,0,0-1.253,2.864c.895,0,.716-1.074,1.253-1.432s.895,0,1.611.179C141.116,196.309,142.727,198.1,144.517,196.309Z" transform="translate(-133.222 -184.835)"/></g><g transform="translate(0 71.268)"><g transform="translate(0 15.044)"><path class="av" d="M99.643,242.992l28.816,37.228-5.012,3.4-41.7-35.439a3.4,3.4,0,0,1-.895-4.654L126.312,202.9,138.3,215.966Z" transform="translate(-80.283 -202.9)"/><path class="au" d="M118.368,247.831c1.432.358,3.043.895,3.759,2.327a3.291,3.291,0,0,1-.358,2.864,12.322,12.322,0,0,1-1.969,2.327c-1.253,1.253-14.677-1.79-15.393-5.906-.179-1.253,1.074-1.432,1.969-2.327C109.419,244.609,114.61,246.757,118.368,247.831Z" transform="translate(-61.243 -168.9)"/><path class="au" d="M114.174,247.6c2.148.537,3.58,6.8,2.864,8.949-.358,1.253-2.685,2.148-3.938,1.611,0-1.253,1.432-1.074,1.969-1.79s0-1.253-.179-2.148C114.174,252.075,111.847,250.106,114.174,247.6Z" transform="translate(-54.364 -167.595)"/><path class="au" d="M112.574,247.9c2.148.537,3.58,6.8,2.864,8.949-.358,1.253-2.685,2.148-3.938,1.611,0-1.253,1.432-1.074,1.969-1.79s0-1.253-.179-2.148C112.574,252.375,110.247,250.227,112.574,247.9Z" transform="translate(-55.627 -167.358)"/><path class="au" d="M111.4,248.1c2.148.537,3.58,6.8,2.864,8.949-.358,1.253-2.685,2.148-3.938,1.611,0-1.253,1.432-1.074,1.969-1.79s0-1.253-.179-2.148C111.218,252.575,108.892,250.606,111.4,248.1Z" transform="translate(-56.599 -167.2)"/><path class="au" d="M110.443,249c1.611.358,2.685,5.012,2.148,6.622a2.326,2.326,0,0,1-2.864,1.074c0-.895,1.074-.716,1.432-1.253s0-.895-.179-1.611C110.443,252.222,108.653,250.79,110.443,249Z" transform="translate(-57.076 -166.489)"/></g><path class="aw" d="M105.543,209.9c.895.895,2.327,2.864,3.4,3.938,1.969,1.969,3.938,3.759,5.727,5.727.895,1.074,3.222,4.833,4.654,4.833,0-2.506,1.432-.895,2.685-1.79,1.074-.716,0-2.506,1.969-2.327.358-1.611,2.148-2.327,3.222-3.4a16.291,16.291,0,0,0,3.4-5.19,11,11,0,0,0,0-10.023c-1.432-3.222-2.864-5.549-6.443-6.8-4.3-1.432-7.7,1.611-10.56,4.117a43.045,43.045,0,0,0-3.759,4.3c-.895,1.074-1.074,1.253-2.506,1.253-.179.537,0,1.432-.179,1.969-.358.716-1.432.537-1.432,1.611C105.185,208.107,105.006,208.823,105.543,209.9Z" transform="translate(-60.588 -194.495)"/></g></g></g><g transform="translate(259.382 255.743)"><ellipse class="ax" cx="178.267" cy="10.381" rx="178.267" ry="10.381" transform="translate(0 360.3)"/><g transform="translate(114.37)"><g transform="translate(75.21 65.461)"><path class="ay" d="M306.057,255.295c-1.074.358-3.4-.537-3.4-.537L264,229.7l-4.3,4.475s42.956,41.882,47.251,42.777c1.611.358,16.108-15.214,27.563-31.859-5.548-4.833-11.992-8.77-18.077-12.529C314.111,238.47,306.773,255.116,306.057,255.295Z" transform="translate(-243.808 -204.23)"/><path class="az" d="M323.133,220.715c-7.159-9.486-20.941-5.906-25.058,9.128,0,.179-7.517,13.424-7.875,14.14a135.483,135.483,0,0,1,20.225,14.677C320.448,244.34,327.965,227.158,323.133,220.715Z" transform="translate(-219.718 -215.469)"/><path class="ba" d="M258.649,227.229c-1.611-.358-3.4-.537-4.475.358a4.065,4.065,0,0,0-1.074,2.864,8.431,8.431,0,0,0,.716,3.043c.537,1.79,14.5,5.369,17.182,1.969.716-1.074-.179-1.79-.716-3.043C268.671,228.661,262.765,228.124,258.649,227.229Z" transform="translate(-249.021 -206.413)"/><path class="bb" d="M260.254,227.964c-1.79-1.432-8.054,1.611-9.128,3.4a3.408,3.408,0,0,0,1.253,4.117c.895-.716,0-1.79.179-2.685.179-.716,1.074-.895,1.79-1.074C256.674,231.007,259.9,231.544,260.254,227.964Z" transform="translate(-250.805 -205.894)"/><path class="bc" d="M261.881,229.035c-.895-2.148-7.517-2.864-9.665-1.969-1.253.537-1.79,3.043-1.074,4.3,1.253-.179.895-1.611,1.611-2.148.537-.537,1.432-.179,2.148,0C257.227,229.751,259.733,231.9,261.881,229.035Z" transform="translate(-250.821 -206.608)"/><path class="bd" d="M262.452,229.787c-1.432-1.79-8.054-.537-9.665,1.074a3.5,3.5,0,0,0,.179,4.3c1.074-.537.358-1.79.895-2.685.358-.716,1.253-.537,2.148-.716C258.156,231.935,261.2,233.187,262.452,229.787Z" transform="translate(-249.782 -204.853)"/><path class="be" d="M260.732,230.629c-1.253-1.253-6.085,0-7.159,1.253-.716.716-.358,2.685.358,3.222.895-.358.179-1.253.537-1.969.179-.537.895-.537,1.432-.537C257.689,232.24,260.016,233.135,260.732,230.629Z" transform="translate(-248.956 -203.906)"/><path class="bf" d="M262.825,228.79c-.895,2.148-7.517-1.432-9.128-1.79-1.253,1.79,3.222,3.4,4.117,4.117,1.074.895,1.253,2.685,2.506,3.58a4.042,4.042,0,0,0,3.759.358,3.094,3.094,0,0,1,1.79-.179" transform="translate(-248.723 -206.362)"/></g><g transform="translate(27.921 70.527)"><g transform="translate(39.197 51.01)"><g class="bg"><rect class="bh" width="25.237" height="27.742" transform="translate(0 0.179)"/></g></g><g transform="translate(31.322 62.107)"><rect class="bi" width="15.929" height="1.074" transform="translate(0 16.108)"/><path class="bj" d="M267.7,266.245l-6.8-12.887c-.179-.358-.537-.358-.895-.358-.358.179-.537.537-.358.716l6.8,12.887a1.363,1.363,0,0,1-.179,1.611,2.075,2.075,0,0,1-1.79.716H250.7V270h13.782a3.606,3.606,0,0,0,2.864-1.253A1.893,1.893,0,0,0,267.7,266.245Z" transform="translate(-234.949 -253)"/></g><path class="bk" d="M277.5,280.944h0l6.8-62.644h0a1.268,1.268,0,0,1,1.253,1.432l-6.443,59.78A1.7,1.7,0,0,1,277.5,280.944Z" transform="translate(-182.46 -218.3)"/><path class="bl" d="M319.44,280.944H224.4l6.8-62.644h95.04Z" transform="translate(-224.4 -218.3)"/><path class="bm" d="M317.26,273.116H225.8l5.906-53.516h91.46Z" transform="translate(-223.294 -217.273)"/></g><path class="w" d="M355.924,262.7H210.769a1.969,1.969,0,0,0,0,3.938h31.68V484.281a1.969,1.969,0,1,0,3.938,0V266.638H318.7V484.281a1.969,1.969,0,1,0,3.938,0V266.638h33.291a1.969,1.969,0,1,0,0-3.938Z" transform="translate(-208.8 -112.705)"/><g transform="translate(94.816)"><g transform="translate(17.334 188.834)"><path class="bn" d="M314.309,284.579c-1.79,1.611-3.58,3.222-4.833,4.475-4.833,5.369-26.848,37.586-37.586,59.064-1.253,2.506.358,9.665,3.222,10.2,10.023,2.148,50.652,12.171,53.516,10.918h.537a4.017,4.017,0,0,1,2.685,1.432h.358a12.869,12.869,0,0,0,3.222-.179,47.205,47.205,0,0,0,2.864-8.77l-.358-.358c-.716-1.79-1.969-2.685-3.58-2.506h-.537c-1.611,1.611-3.043,1.432-4.117.716-.179-.179-.358-.179-.537-.358-2.685-1.074-5.191-2.864-7.517-3.043a.657.657,0,0,1-.537-.179c-8.77-7.875-21.12-11.813-21.12-11.813-1.253-4.833,54.411-33.649,63.36-45.1,3.222-3.938,4.117-9.128,3.222-14.677H314.309Z" transform="translate(-271.46 -284.4)"/><path class="bo" d="M312.2,355.8c-.895-.537-.537-1.253,0-1.969-.179,0-.179,0-.358-.179a1.229,1.229,0,0,1-.537-1.611c1.253-3.938-1.432-13.066-2.864-13.961-.179-.179-.358-.179-.537-.358.895-3.222,1.611-6.443,2.506-9.665,3.4-.358,8.77-1.611,10.2,0a15.192,15.192,0,0,1,2.506,8.054c-.358,4.117-.716,8.412-.895,12.529-.179,2.685,1.253,6.443.179,8.77-.895,1.969-10.381,8.412-12.887,7.7C305.573,364.209,311.659,357.407,312.2,355.8Z" transform="translate(-242.678 -250.554)"/></g><g transform="translate(49.265 201.363)"><path class="w" d="M349.138,302.6H294.19a1.766,1.766,0,0,0-1.79,1.611,1.653,1.653,0,0,0,1.79,1.611h23.984v51.905h3.4V305.822h27.384a1.766,1.766,0,0,0,1.79-1.611C350.927,303.316,350.212,302.6,349.138,302.6Z" transform="translate(-286.852 -282.554)"/><rect class="w" width="7.159" height="5.369" transform="translate(29.532 76.426)"/><path class="w" d="M340.262,390.7H321.826V337.9h-7.159v52.8H296.232a1.432,1.432,0,1,0,0,2.864h18.435v25.058h7.159V393.564h18.435a1.412,1.412,0,0,0,1.432-1.432C341.514,391.237,340.978,390.7,340.262,390.7Z" transform="translate(-284.956 -254.673)"/><path class="w" d="M315.91,383.8,293,388.275h52.979l-22.91-4.475Z" transform="translate(-286.378 -218.42)"/><path class="bo" d="M349.8,311.446H298.07a8.784,8.784,0,0,1-8.77-8.77V300.17a8.784,8.784,0,0,1,8.77-8.77H349.8a8.784,8.784,0,0,1,8.77,8.77v2.506A8.784,8.784,0,0,1,349.8,311.446Z" transform="translate(-289.3 -291.4)"/></g><g transform="translate(0 166.081)"><path class="bp" d="M324.285,291.4c4.475-4.117,3.222-11.455,2.506-18.077a1.424,1.424,0,0,1,1.611-1.611l40.987,1.79a1.812,1.812,0,0,1,1.253.716c10.381,16.108,9.307,25.953.358,35.26-10.023,10.381-73.741,35.081-79.289,43.493,12.35,3.222,22.373,23.626,34.186,41.524,0,.179.179.179.179.358.358,3.222,3.759,3.4,5.548,5.727a.657.657,0,0,1,.179.537c.358,1.253,0,2.864.716,3.4,0,.179.179.179.179.358.358.537.716.895,1.074,1.432a1.939,1.939,0,0,1,0,1.969c-2.327,2.685-3.4,4.117-6.085,6.98l-.716-.716-.358-.358c-3.4.537-3.759-.895-4.117-2.864a12.984,12.984,0,0,0-.895-1.611h0c-3.938.358-2.864-1.432-4.475-4.117-.179-.179-.358-.358-.537-.358-15.393-13.961-42.24-38.839-52.8-49.578a6.806,6.806,0,0,1,0-9.665C281.329,327.374,318.915,296.231,324.285,291.4Z" transform="translate(-261.775 -271.687)"/><path class="bo" d="M300.634,374.331c-.537-.895,0-1.432.716-1.79l-.179-.179a1.626,1.626,0,0,1,0-1.79c2.685-3.043,3.58-12.529,2.506-13.961-.179-.179-.179-.358-.358-.537,1.969-2.685,3.938-5.369,5.906-7.875,3.4,1.074,8.77,1.969,9.307,3.938.716,2.148.179,6.622-.716,8.412-1.969,3.759-3.759,7.517-5.549,11.276-1.074,2.506-1.253,6.443-3.043,8.233-1.611,1.611-12.708,3.759-14.856,2.148C291.506,379.7,299.561,375.584,300.634,374.331Z" transform="translate(-236.514 -211.255)"/></g><path class="bq" d="M315.956,211c19.151,0,36.513,15.393,39.018,34.544L349.6,320.18c-.179,1.969.179,3.938-.358,5.728-1.253,5.19-9.128,6.443-13.424,6.8-10.2,1.074-21.836,1.074-31.322-3.4-4.117-1.969-3.938-3.4-4.3-8.054l-5.37-70.161C292.688,236.595,302,220.307,315.956,211Z" transform="translate(-235.906 -153.539)"/><path class="br" d="M335.963,197.518a9.1,9.1,0,0,0-4.3-4.3c-1.432-.716-3.222-.537-4.475-1.79-1.432-1.432-1.79-3.043-3.938-3.938a19.075,19.075,0,0,0-5.548-1.074c-3.222-.358-6.8-.537-9.486-2.685-2.506-1.969-4.654-5.011-8.412-4.832-10.56.358-12.171,18.972-4.654,23.984l4.654,3.222h.537a14.6,14.6,0,0,1,0-4.832.385.385,0,0,1,.358-.358c2.864-.358,5.548-.716,8.412-.895a23.116,23.116,0,0,1,6.085.179,1.924,1.924,0,0,1,1.611,1.432c.537,1.611.358,3.4,1.253,5.19a24.76,24.76,0,0,1,2.506,4.833c.895,2.506,1.79,5.19,2.685,7.7.895,2.864,1.611,5.906,2.506,8.77a1.933,1.933,0,0,0,1.253-.537c2.506-2.148,1.432-8.233,2.685-11.1,1.611-3.4,4.833-5.548,6.622-8.949C337.752,204.856,337.573,200.739,335.963,197.518Z" transform="translate(-239.088 -178.896)"/><g transform="translate(58.572 17.906)"><path class="bs" d="M318.177,204.4l3.4,14.14L300.1,240.376l2.864-12.708-1.79-14.677Z" transform="translate(-290.077 -176.658)"/><path class="bt" d="M294.5,222.907l.179-34.007h20.583l.716,8.412,2.148,2.327,1.611,9.486h1.79l.179-2.148a3.52,3.52,0,0,1,3.4-3.4h0a3.365,3.365,0,0,1,3.222,3.4V209.3a3.656,3.656,0,0,1-3.4,3.4,2.31,2.31,0,0,0-2.148,2.148v3.222c0,4.833-26.847,15.393-28.279,6.622Z" transform="translate(-294.5 -188.9)"/></g><g transform="translate(0.745 78.691)"><path class="bu" d="M318.225,264.533c-1.253.179-3.4-1.074-3.4-1.074L278.491,231.6l-5.191,4.117s38.3,50.115,42.777,51.726c1.611.537,18.972-13.424,33.47-29-5.012-5.906-11.1-10.918-17-15.75C328.964,248.245,319.12,264.354,318.225,264.533Z" transform="translate(-253.418 -215.96)"/><path class="bv" d="M342.786,229.911c-6.085-10.918-20.941-9.307-27.384,5.906,0,.179-9.844,12.887-10.2,13.6a151.976,151.976,0,0,1,18.972,18.256C336.343,254.073,346.724,237.428,342.786,229.911Z" transform="translate(-228.222 -222.862)"/><path class="bw" d="M273.176,228.29c-1.611-.537-3.4-1.074-4.833-.179a3.836,3.836,0,0,0-1.611,2.685,9.777,9.777,0,0,0,.179,3.222c.358,1.969,14.319,7.7,17.54,4.654,1.074-.895,0-1.969-.179-3.4C283.378,231.333,277.293,229.9,273.176,228.29Z" transform="translate(-258.663 -219.093)"/><path class="bx" d="M276.346,229.719c-.895-2.327-14.677-3.222-14.14-1.969.179,1.253,5.906,1.611,6.8,1.79C271.335,230.256,273.841,232.583,276.346,229.719Z" transform="translate(-262.191 -219.448)"/><path class="by" d="M274.742,229.1c-1.79-1.79-8.591.358-10.023,2.148-.895,1.074-.537,3.759.716,4.475,1.074-.716.179-1.969.537-2.864.358-.716,1.253-.716,2.148-.895C270.447,231.6,273.848,232.677,274.742,229.1Z" transform="translate(-260.587 -218.468)"/><path class="bz" d="M276.742,231.371c-1.253-2.148-8.412-1.79-10.381-.358-1.074.716-1.432,3.58-.537,4.654,1.253-.358.716-1.79,1.253-2.506s1.432-.358,2.327-.358C271.909,232.8,274.952,234.593,276.742,231.371Z" transform="translate(-259.723 -217.342)"/><path class="ca" d="M274.7,231.977c-1.074-1.432-6.264-.895-7.517.358a2.971,2.971,0,0,0-.179,3.4c.895-.358.358-1.432.716-1.969s.895-.358,1.611-.358C271.118,233.23,273.445,234.483,274.7,231.977Z" transform="translate(-258.753 -216.337)"/></g></g></g></g><g transform="translate(572.96 193.644)"><g transform="translate(70.957 202.43)"><path class="cb" d="M375,346.879l2.506,34.723,7.517,1.074,4.832-35.975Z" transform="translate(-347.696 -186.689)"/><path class="cc" d="M374.7,343.7l.179,3.938h15.214l.537-3.938Z" transform="translate(-347.933 -189.059)"/><path class="cd" d="M405.441,389.031c1.074-7.517-2.506-15.572-3.222-23.089-1.432-15.035,1.432-29.89,2.327-44.925.358-6.98.895-13.961,1.253-21.12.179-2.327-.537-6.8.537-8.949,2.864-5.906,3.58-12.529,3.4-18.972,0-1.074-.537-14.319-1.611-14.319L359.8,257.3l.895,26.132c.358,3.043,12.529,32.038,14.677,44.03,1.253,7.338,2.506,14.677,3.938,22.015,2.864,14.319,5.548,29.353,6.264,44.03v2.685c-2.148,3.222-2.148,4.475-.537,7.159v.716a2.381,2.381,0,0,0-.537,1.432c0,.537.358.895.537,1.432a12.54,12.54,0,0,1,1.074,1.611v.716a14.145,14.145,0,0,0,.179,2.506h15.93a8.944,8.944,0,0,0,.179-1.969,1.077,1.077,0,0,1,.179-.716,3.684,3.684,0,0,0,1.611-2.864V405.5l-.537-.537a.658.658,0,0,1-.179-.537,10.466,10.466,0,0,0,.716-6.443v-1.253C404.367,397.086,405.441,389.031,405.441,389.031Z" transform="translate(-359.701 -257.3)"/><g transform="translate(0 189.901)"><path class="ce" d="M367.274,389.889c9.665-4.117,23.089,2.327,30.606-4.475-.716-1.969-1.79-3.938-1.969-5.728-.716-4.3-.358-8.949-.537-13.424-1.611.537-2.148,1.611-3.938,1.79a18.038,18.038,0,0,1-4.475-.537,8.527,8.527,0,0,0-1.074-3.222,39.581,39.581,0,0,0-4.475-.895c.537,3.043,1.432,6.085,1.611,8.949.358,3.4,1.253,7.338-1.79,9.665-1.969,1.432-9.486,3.759-15.035,5.19C367.274,387.384,366.737,388.816,367.274,389.889Z" transform="translate(-354.646 -363.4)"/><path class="cf" d="M402.979,375.7c-7.517,6.8-20.941.358-30.606,4.475-.537-1.074-.179-2.506-1.253-2.864-2.685.716-4.833,1.074-5.906,1.253-.895.179-4.117,0-4.833.537-1.611,1.432.179,2.864,1.611,3.4,5.369,2.148,13.424.895,18.793-.358,4.3-1.074,8.949-2.327,13.424-1.611,2.864.358,6.264,1.79,8.591-.895C403.694,378.743,403.516,377.311,402.979,375.7Z" transform="translate(-359.745 -353.685)"/><path class="cf" d="M381.291,371.6a2.636,2.636,0,0,0-2.685,2.685,2.753,2.753,0,0,0,2.685,2.685,2.685,2.685,0,1,0,0-5.369Z" transform="translate(-344.859 -356.923)"/></g></g><g transform="translate(97.188 335.414)"><path class="cg" d="M376.9,345.334l28.279,20.225,5.548-4.833L386.386,333.7Z" transform="translate(-372.425 -329.941)"/><path class="cc" d="M374.4,343.771l3.043,2.327,9.844-11.634L384.6,331.6Z" transform="translate(-374.4 -331.6)"/><g transform="translate(26.668 25.952)"><path class="ce" d="M400.755,382.792c3.043-10.023,16.645-16.108,16.287-26.31-1.969-.716-4.3-1.253-5.728-2.148-3.759-2.327-7.159-5.548-10.739-8.233-.716,1.611,0,2.685-1.074,4.3-.716,1.253-2.327,2.148-3.4,3.043a10.991,10.991,0,0,0-3.222-1.253,27.9,27.9,0,0,0-3.58,2.864,82.311,82.311,0,0,1,7.875,4.475c2.864,1.969,6.443,3.759,6.264,7.517-.179,2.506-3.222,9.665-5.727,14.856C398.786,381.36,399.681,382.613,400.755,382.792Z" transform="translate(-389.3 -346.1)"/><path class="cf" d="M415.779,351.9c.358,10.2-13.245,16.287-16.287,26.31-1.074-.179-1.969-1.611-3.043-.895a59.6,59.6,0,0,1-2.864,5.37c-.537.716-2.685,3.043-2.685,3.938.179,2.148,2.327,1.611,3.58.895,5.012-2.685,9.307-9.665,11.813-14.5,1.969-3.938,4.117-8.412,7.338-11.276,2.148-1.969,5.37-3.58,4.833-7.159C418.642,353.332,417.39,352.616,415.779,351.9Z" transform="translate(-388.036 -341.519)"/><path class="cf" d="M399.579,352.637a2.67,2.67,0,1,0,3.759-.358A2.609,2.609,0,0,0,399.579,352.637Z" transform="translate(-381.681 -341.719)"/></g></g><g transform="translate(0 77.5)"><g transform="translate(13.768 32.561)"><path class="ch" d="M340.8,211.1l-3.4,5.906s6.264,3.759,14.856,8.77a81.457,81.457,0,0,1,3.759-9.128Z" transform="translate(-320.204 -201.421)"/><path class="au" d="M333.521,216.752c-1.611-.716-3.4-1.611-3.759-3.222a3.543,3.543,0,0,1,.716-3.222,15.455,15.455,0,0,1,2.506-2.327c1.611-1.253,16.108,4.117,16.287,8.77,0,1.432-1.253,1.79-2.506,2.327C343.723,220.51,337.637,218.362,333.521,216.752Z" transform="translate(-326.348 -204.03)"/><path class="au" d="M334.885,217.161c-2.506.179-6.085-6.264-6.085-8.591,0-1.432,2.327-3.043,3.58-2.864.358,1.253-1.253,1.611-1.611,2.506s.358,1.432.895,2.148C333.454,212.328,336.675,213.76,334.885,217.161Z" transform="translate(-326.996 -205.692)"/><path class="au" d="M333.534,215.97c-1.969.358-5.548-4.117-5.728-6.085-.179-1.074,1.432-2.685,2.506-2.685.537.895-.716,1.432-.895,2.148s.537,1.074,1.074,1.611C331.923,212.391,334.607,213.106,333.534,215.97Z" transform="translate(-327.792 -204.502)"/><path class="au" d="M338.2,216.46c-2.327.716-7.517-4.475-7.875-6.8-.358-1.432,1.432-3.58,2.864-3.759.716,1.074-.716,1.79-.895,2.864,0,.895.716,1.253,1.432,1.79C335.69,211.985,339.091,212.7,338.2,216.46Z" transform="translate(-325.832 -205.528)"/><path class="au" d="M337.355,214.233c-1.79.358-5.191-3.759-5.549-5.548-.179-1.074,1.253-2.506,2.327-2.685.537.895-.716,1.253-.716,1.969-.179.716.537.895.895,1.432C335.565,211.012,338.071,211.548,337.355,214.233Z" transform="translate(-324.634 -205.449)"/></g><path class="ci" d="M331.913,228.2h0l-11.1-38.3h0c-.537,0-.716.537-.716,1.074l10.56,36.513A1.551,1.551,0,0,0,331.913,228.2Z" transform="translate(-320.1 -185.604)"/><path class="cj" d="M331.6,230.1l24.521-4.3-11.1-38.3L320.5,191.8Z" transform="translate(-319.784 -187.5)"/><path class="bm" d="M330.886,224.913l22.015-3.759L343.415,188.4,321.4,192.159Z" transform="translate(-319.073 -186.789)"/><path class="ck" d="M342.467,215.323c-.537-4.654-2.864-1.074-5.548-10.023-2.327.179-.537,4.654-.537,5.906,0,1.432-1.253,2.864-1.074,4.3a4.989,4.989,0,0,0,2.148,3.222c.537.358,1.253.716,1.432,1.253" transform="translate(-308.102 -173.441)"/><path class="cl" d="M377.053,217.633a6.612,6.612,0,0,0-2.506-1.253c-1.253,0-.716.358-1.432,1.074-.716.537-.179,1.253-1.432,1.253-.716,0-1.074-1.253-1.79-1.432a2.283,2.283,0,0,0-3.043.716c-1.253-.358-1.253-2.148-2.327-2.506-1.79-.716-1.79,1.432-2.685,1.432-1.611.179-4.654-5.906-6.264-1.79-2.327-.716-5.548-1.611-7.338-2.327-2.685.716-5.012,8.77-4.833,11.455,0,1.074,5.549,4.3,7.338,5.19-2.685,5.549,5.728,2.864,7.7,5.012.537.716,0,1.969.895,2.506,1.074.716.895-.179,1.79,0,.895,0,1.253-.537,2.148.358.716.537.358,1.611.895,2.148,1.074,1.074,3.222,0,4.654.716,3.58,1.79,8.054,2.148,11.992,3.043a.657.657,0,0,1,.537.179,77.114,77.114,0,0,0-3.222-25.058C377.948,217.99,377.411,217.811,377.053,217.633Z" transform="translate(-301.701 -167.517)"/></g><path class="cm" d="M413.724,177.312c0,.716-.895,1.611-1.074,2.327,0,.716.716,1.611.716,2.506-.179.716-1.074,1.432-1.253,2.148s.537,1.79.358,2.506-1.432,1.253-1.611,1.969c-.358.716.358,1.79,0,2.506s-1.432,1.074-1.79,1.611c-.358.716,0,1.79-.358,2.506s-1.611.716-2.148,1.432-.179,1.79-.716,2.327-1.79.537-2.327,1.074-.537,1.79-1.074,2.327-1.79.358-2.327.716c-.716.537-.716,1.611-1.432,2.148-.716.358-1.79,0-2.506.358s-.895,1.611-1.611,1.79c-.716.358-1.79-.179-2.506,0-.716.358-1.253,1.432-1.969,1.611s-1.79-.537-2.506-.358-1.432,1.253-2.148,1.253c-.716.179-1.611-.716-2.506-.716-.716,0-1.611,1.074-2.327,1.074s-1.611-.895-2.327-1.074c-.716,0-1.611.716-2.506.716-.716-.179-1.432-1.074-2.148-1.253s-1.79.537-2.506.358-1.253-1.432-1.969-1.611c-.716-.358-1.79.358-2.506,0s-1.074-1.432-1.611-1.79c-.716-.358-1.79,0-2.506-.358s-.716-1.611-1.432-2.148-1.79-.179-2.327-.716-.537-1.79-1.074-2.327-1.79-.537-2.327-1.074-.358-1.79-.716-2.327c-.537-.716-1.611-.716-2.148-1.432-.358-.716,0-1.79-.358-2.506s-1.611-.895-1.79-1.611c-.358-.716.179-1.79,0-2.506-.358-.716-1.432-1.253-1.611-1.969s.537-1.79.358-2.506-1.253-1.432-1.253-2.148c-.179-.716.716-1.611.716-2.506,0-.716-1.074-1.611-1.074-2.327s.895-1.611,1.074-2.327c0-.716-.716-1.611-.716-2.506.179-.716,1.074-1.432,1.253-2.148s-.537-1.79-.358-2.506,1.432-1.253,1.611-1.969c.358-.716-.358-1.79,0-2.506s1.432-1.074,1.79-1.611c.358-.716,0-1.79.358-2.506s1.611-.716,2.148-1.432.179-1.79.716-2.327,1.79-.537,2.327-1.074.537-1.79,1.074-2.327,1.79-.358,2.327-.716c.716-.537.716-1.611,1.432-2.148.716-.358,1.79,0,2.506-.358s.895-1.611,1.611-1.79c.716-.358,1.79.179,2.506,0,.716-.358,1.253-1.432,1.969-1.611s1.79.537,2.506.358,1.432-1.253,2.148-1.253c.716-.179,1.611.716,2.506.716.716,0,1.611-1.074,2.327-1.074s1.611.895,2.327,1.074c.716,0,1.611-.716,2.506-.716.716.179,1.432,1.074,2.148,1.253s1.79-.537,2.506-.358,1.253,1.432,1.969,1.611c.716.358,1.79-.358,2.506,0s1.074,1.432,1.611,1.79c.716.358,1.79,0,2.506.358s.716,1.611,1.432,2.148,1.79.179,2.327.716.537,1.79,1.074,2.327,1.79.537,2.327,1.074.358,1.79.716,2.327c.537.716,1.611.716,2.148,1.432.358.716,0,1.79.358,2.506s1.611.895,1.79,1.611c.358.716-.179,1.79,0,2.506.358.716,1.432,1.253,1.611,1.969s-.537,1.79-.358,2.506,1.253,1.432,1.253,2.148c.179.716-.716,1.611-.716,2.506C412.829,175.7,413.724,176.417,413.724,177.312Z" transform="translate(-298.459 -144.2)"/><path class="cn" d="M377.533,184.5h0c18.793,0,35.976,15.214,38.481,34.007L411,306.924c-.179,4.475,4.654,8.77,1.79,9.665l-3.759,1.074c-6.622,2.327-25.237,7.517-45.641-.179-4.3-1.611-.716-4.654-1.253-9.128l-5.728-84.122C354.623,209.737,362.319,200.251,377.533,184.5Z" transform="translate(-291.621 -112.37)"/><g transform="translate(64.792 32.933)"><path class="co" d="M379.145,177.9l3.222,14.14v.179a15.729,15.729,0,0,1-18.256,8.77h0l-1.611-14.5Z" transform="translate(-351.403 -150.516)"/><path class="cp" d="M356.3,196.249l.179-28.279a5.385,5.385,0,0,1,5.37-5.369H369.9a7.59,7.59,0,0,1,7.517,6.98l.179,1.432,1.969,2.327,1.611,9.307h1.79l.179-2.327a3.365,3.365,0,0,1,3.4-3.222h0a3.208,3.208,0,0,1,3.222,3.222v2.506a3.365,3.365,0,0,1-3.4,3.222,2.149,2.149,0,0,0-1.969,2.148v3.222c0,4.833-26.489,15.035-27.921,6.443A3.973,3.973,0,0,1,356.3,196.249Z" transform="translate(-356.3 -162.6)"/></g><g transform="translate(26.61 82.249)"><g transform="translate(0 69.171)"><path class="cq" d="M349.895,231.453l-.895,6.8s7.517.895,17.54,2.148a64.742,64.742,0,0,1-.179-10.2Z" transform="translate(-323.884 -227.694)"/><path class="au" d="M345.548,239.63c-1.79,0-3.759,0-4.833-1.432a3.47,3.47,0,0,1-.537-3.222,8.519,8.519,0,0,1,1.432-3.222c1.074-1.79,16.824-2.685,18.793,1.611.716,1.253-.537,1.969-1.432,3.222C356.645,240.346,350.2,239.63,345.548,239.63Z" transform="translate(-330.992 -227.639)"/><path class="au" d="M349.524,236.439c-1.611,1.969-15.572-1.969-14.5-3.043.537-1.253,6.264.537,7.159.537C344.87,234.291,348.092,232.859,349.524,236.439Z" transform="translate(-334.967 -225.521)"/><path class="au" d="M347.279,239.223c-2.327,1.074-8.233-3.4-9.128-5.727-.537-1.253.895-3.759,2.148-4.3.895,1.074-.537,1.969-.358,3.043,0,.895.895,1.074,1.79,1.611C343.879,235.106,347.458,235.285,347.279,239.223Z" transform="translate(-332.544 -228.484)"/><path class="au" d="M350.078,236.875c-1.969,1.611-8.77-1.253-10.2-3.222-.895-1.074-.179-3.938,1.074-4.654,1.074.716,0,1.969.358,3.043.358.895,1.253.895,2.148,1.074C345.962,233.833,349.542,232.938,350.078,236.875Z" transform="translate(-331.405 -228.642)"/><path class="au" d="M348.42,235.064c-1.611,1.074-6.443-1.432-7.338-2.864-.537-.895.179-2.864,1.074-3.4.716.716-.179,1.432.179,2.148.179.716.895.716,1.432.895C345.556,232.559,348.062,232.2,348.42,235.064Z" transform="translate(-330.284 -228.8)"/><path class="cr" d="M348.93,237.754c.358-2.506-7.338-2.685-9.128-3.222-.179-2.327,4.654-1.253,5.906-1.432,1.432-.179,2.685-1.79,4.117-1.79,1.432-.179,2.506.716,3.58,1.611.537.358.895,1.074,1.611,1.253" transform="translate(-331.152 -226.836)"/></g><path class="ce" d="M415.376,271.137a4.275,4.275,0,0,0,.358-1.611c-.537-7.338,1.074-14.677,1.611-22.015.716-11.634-.716-23.8-3.222-35.26-1.432-6.622-3.759-19.33-11.634-21.478a13.432,13.432,0,0,0-16.824,8.412,21.376,21.376,0,0,0-.179,12.529c1.79,6.98,1.969,14.14,3.58,21.12h.179v3.759c0,1.432-.716,2.148-1.074,3.222-.716,2.327.537,1.79,1.432,3.58,1.074,1.969-.716,2.685-1.074,3.938-.358,1.969,1.253,2.148,1.969,3.759.895,2.327-.716,2.685-2.685,2.506-.716,0-2.148-.537-2.864-.179-1.253.537-.358.716-.895,1.432-.358.716.358,1.253-.716,1.79-.716.179-1.611-.716-2.148-.716a2.229,2.229,0,0,0-2.506,1.79c-1.253,0-2.148-1.432-3.222-1.432-1.79,0-1.074,1.969-1.969,2.506-1.432.716-6.8-3.58-6.443.895a67.56,67.56,0,0,1-7.875.716c-2.327,1.611-1.074,10.2.179,12.529.537.895,6.98,1.79,8.949,1.969-.179,6.264,6.622.179,9.307,1.611.716.358.895,1.79,1.969,1.969,1.253.179.895-.537,1.611-.716.895-.358.895-.895,2.148-.537,1.074.179,1.074,1.432,1.79,1.611,1.432.537,2.864-1.432,4.654-1.253,3.938.179,8.412-1.253,12.35-1.969C404.637,275.254,413.407,274.359,415.376,271.137Z" transform="translate(-316.876 -190.153)"/></g><path class="cs" d="M404.438,387.668l-.537-.537a4.06,4.06,0,0,0-1.253-3.222c-.179-.179-.358-.358-.537-.358h-.716a.657.657,0,0,1-.537-.179,10.273,10.273,0,0,0-4.475-4.654c-.179-.179-.716-.537-.895-.716l-5.369-6.085c-5.012-5.548-13.245-8.054-19.33-12.171l8.054-25.774,5.548-11.992-3.58-20.225a27.433,27.433,0,0,0-5.191-11.634,18.75,18.75,0,0,1-3.58-9.128c-1.074-8.591-1.79-22.194-1.79-22.194L347.7,356.7v13.245l13.782,6.8a214.556,214.556,0,0,1,19.867,13.424c.358.179.537.537.895.716a2.471,2.471,0,0,0,.716.537,5.437,5.437,0,0,0,.895,1.253c1.074,3.043,1.969,3.759,5.011,4.3l.537.537a3.6,3.6,0,0,0,.716,1.432,3.372,3.372,0,0,0,1.432.358c.537,0,1.253.179,1.969.179.179.179.358.358.537.358a17.04,17.04,0,0,1,1.969,1.611l10.2-12.171A4.6,4.6,0,0,1,404.438,387.668Z" transform="translate(-298.301 -53.686)"/></g><g transform="translate(282.829 258.729)"><g transform="translate(17.719 176.542)"><path class="ct" d="M207.276,279.2l32.754,87.344s3.938,45.1,6.264,72.309v.358c.179.179.179.358.358.537.716,3.759-1.969,5.549,1.253,8.054v.537a9.44,9.44,0,0,1-.537,2.148c0,.179.179.358.179.537.895,1.79,1.432,3.4.358,5.727v.358l.179,1.432-8.054.716a.554.554,0,0,0-.179-.358c-.537-1.253-4.117-.358-3.222-3.043a4.3,4.3,0,0,0,1.074-2.685c0-.179-.179-.179-.179-.358-1.79-.895-2.327-1.969-2.327-3.4v-1.074c-1.074-1.253.716-3.043-.895-4.3a.625.625,0,0,0-.179-.358c-4.475-11.455-9.665-25.237-9.665-25.237a79.672,79.672,0,0,1-3.4-25.953l.537-12.171L167.9,299.067Z" transform="translate(-167.9 -279.2)"/><path class="o" d="M230.177,389.186c-6.264-4.3-11.634-7.517-12.35-8.949,0-.179-.179-.358-.179-.537-2.864.358-5.906.716-8.77.895-.716,3.043-2.327,8.77-1.074,10.2s6.264,1.611,9.665,1.074c3.759-.537,4.475,1.432,8.054,1.79,2.327.358,14.14.179,13.066-1.79C237.873,390.618,230.356,389.186,230.177,389.186Z" transform="translate(-136.748 -199.822)"/></g><g transform="translate(2.327 198.378)"><path class="w" d="M219.238,302.6H164.29a1.766,1.766,0,0,0-1.79,1.611,1.653,1.653,0,0,0,1.79,1.611h23.984v51.905h3.4V305.822h27.384a1.766,1.766,0,0,0,1.79-1.611A1.6,1.6,0,0,0,219.238,302.6Z" transform="translate(-156.773 -282.554)"/><rect class="w" width="7.159" height="5.369" transform="translate(29.711 76.426)"/><path class="w" d="M208.872,388.373h-17.54V337.9h-7.159v50.473h-17.54a1.412,1.412,0,0,0-1.432,1.432h0a1.412,1.412,0,0,0,1.432,1.432h17.54v27.384h7.159V391.237h17.54a1.412,1.412,0,0,0,1.432-1.432h0A1.317,1.317,0,0,0,208.872,388.373Z" transform="translate(-154.64 -254.673)"/><path class="w" d="M186.01,383.8l-22.91,4.475h52.979l-22.91-4.475Z" transform="translate(-156.299 -218.42)"/><path class="bo" d="M219.8,311.446H168.07a8.784,8.784,0,0,1-8.77-8.77V300.17a8.784,8.784,0,0,1,8.77-8.77H219.8a8.784,8.784,0,0,1,8.77,8.77v2.506A8.784,8.784,0,0,1,219.8,311.446Z" transform="translate(-159.3 -291.4)"/></g><g transform="translate(53.874 130.901)"><path class="cu" d="M191.5,253.7l47.251,10.023-.179,6.085-50.473,3.4Z" transform="translate(-188.1 -253.7)"/><path class="cv" d="M223.264,256.542c1.074-.895,2.506-1.969,4.117-1.611a3.343,3.343,0,0,1,2.148,1.969,5.668,5.668,0,0,1,.716,2.864c.358,1.79-9.844,10.918-13.6,9.307-1.074-.537-.716-1.611-.716-2.864C215.567,262.091,220.221,259.048,223.264,256.542Z" transform="translate(-166.168 -252.783)"/><path class="cw" d="M221.4,255.088c1.79-1.432,7.7,1.074,8.949,2.685a3.584,3.584,0,0,1-.895,4.117c-.895-.716,0-1.79-.358-2.685-.179-.716-1.074-.716-1.79-1.074C225.159,257.773,222.116,258.489,221.4,255.088Z" transform="translate(-161.799 -252.94)"/><path class="cx" d="M220.7,256.588c1.79-1.432,7.7,1.074,8.949,2.685a3.584,3.584,0,0,1-.895,4.117c-.895-.716,0-1.79-.358-2.685-.179-.716-1.074-.716-1.79-1.074C224.459,259.273,221.416,259.989,220.7,256.588Z" transform="translate(-162.352 -251.755)"/><path class="cy" d="M220.2,257.688c1.79-1.432,7.7,1.074,8.949,2.685a3.583,3.583,0,0,1-.895,4.117c-.895-.716,0-1.79-.358-2.685-.179-.716-1.074-.716-1.79-1.074C223.78,260.373,220.737,261.089,220.2,257.688Z" transform="translate(-162.747 -250.887)"/><path class="cz" d="M220.4,258.845c1.253-1.074,5.727.716,6.622,1.969a2.537,2.537,0,0,1-.716,3.043c-.716-.537,0-1.253-.179-1.969-.179-.537-.716-.537-1.432-.716C223.264,260.814,220.937,261.351,220.4,258.845Z" transform="translate(-162.589 -249.896)"/><path class="da" d="M221.043,257.79c.895,2.148,7.517-1.432,9.128-1.79,1.253,1.79-3.222,3.4-4.117,4.117-1.074.895-1.253,2.685-2.506,3.58a4.042,4.042,0,0,1-3.759.358,3.093,3.093,0,0,0-1.79-.179" transform="translate(-164.484 -251.883)"/></g><path class="db" d="M212.953,285.993c-4.654-4.654-4.654-7.159-3.58-13.961L163.733,270.6c-3.222,13.245-5.727,25.237,2.685,35.26,9.307,11.1,64.792,40.629,63.9,45.462-1.074,5.37-14.856,26.311-27.742,43.493,0,.179-.179.179-.179.358-.537,3.043-4.117,3.043-5.906,5.37a.658.658,0,0,0-.179.537c-.358,1.253-.179,2.864-1.074,3.4,0,.179-.179.179-.179.358a20.256,20.256,0,0,0-1.79,2.327c2.685,3.4,3.759,4.833,6.443,8.412a6.456,6.456,0,0,1,.895-.716l.358-.358c3.938.716,3.938-1.074,4.475-3.58.179-.179.358-.179.358-.358l.358-.358c3.938.537,3.043-1.253,4.833-3.759.179-.179.358-.179.537-.358,16.824-13.424,46.536-37.586,57.1-47.251a5.318,5.318,0,0,0,.537-7.338C252.688,331.812,218.144,291,212.953,285.993Z" transform="translate(-155.858 -109.451)"/><path class="dc" d="M197.018,211h0c-19.151,0-36.512,15.393-39.018,34.544l5.37,70.161c.179,5.012-1.074,10.56,2.685,13.961,12.171,10.739,45.283-2.148,45.283-2.148,4.654,0,.895-6.085,1.432-10.56l5.37-65.687C220.107,236.595,211.516,211,197.018,211Z" transform="translate(-158 -156.525)"/><g transform="translate(24.428)"><path class="dd" d="M178.2,204.4l-3.4,14.14,15.929,12.171,3.4-2.148,1.074-15.572Z" transform="translate(-169.159 -161.738)"/><path class="de" d="M218.1,188.146c-.716-4.475-4.654-7.159-8.949-7.517a10.91,10.91,0,0,0-5.369.716c-.537.179-4.475,1.969-4.117,2.506-4.833-5.012-15.393-3.222-16.108,5.012h-2.148c-3.4,0-6.98,2.506-8.591,5.548a8.133,8.133,0,0,0,.358,8.949c.358.537,1.253,1.79,1.79,1.969-.179.358.179,1.253.179,1.79.179,1.074,4.475,14.14,4.475,16.466a15.751,15.751,0,0,1,2.506.358c0-1.79,1.432-5.011,2.327-6.443.179-.358.537-.716.716-1.074v-.716c.537-2.327,0-5.012,1.79-6.8.537-.537,1.611-.716,1.969-1.432.358-.537,0-7.338.895-8.949,1.074-1.611,15.393-1.79,16.645-.716,1.253,1.253,1.074,11.813,1.253,11.634.179-.358.179-.895.358-1.432.358-2.506,1.611-4.832,1.969-7.517.179-1.79,1.969-1.969,3.222-2.506A9.629,9.629,0,0,0,218.1,188.146Z" transform="translate(-171.648 -180.564)"/><path class="df" d="M207.328,222.907l-.179-34.007H186.566l-.716,8.412-2.148,2.327-1.611,9.486H180.3l-.179-2.148a3.52,3.52,0,0,0-3.4-3.4h0a3.365,3.365,0,0,0-3.222,3.4V209.3a3.656,3.656,0,0,0,3.4,3.4,2.31,2.31,0,0,1,2.148,2.148v3.222c0,4.833,26.847,15.393,28.279,6.622A2.986,2.986,0,0,0,207.328,222.907Z" transform="translate(-170.186 -173.98)"/><path class="dg" d="M207.535,194.8h-5.011a2.653,2.653,0,0,0-2.506,2.148h-.895a2.851,2.851,0,0,0-2.685-2.148h-5.37a2.851,2.851,0,0,0-2.685,2.148h-8.77a9.648,9.648,0,0,0-6.264,2.327l-.358.179a.633.633,0,1,0,.895.895l.358-.179a8.748,8.748,0,0,1,5.548-1.969h8.591v.895a5.425,5.425,0,0,0,5.549,5.37h.716a4.812,4.812,0,0,0,4.833-4.833v-1.611h.895v.895a5.2,5.2,0,0,0,5.012,5.369h.716a4.608,4.608,0,0,0,4.3-4.832v-2.148A3.06,3.06,0,0,0,207.535,194.8Zm-9.486,4.833a3.59,3.59,0,0,1-3.58,3.58h-.716a4.05,4.05,0,0,1-4.117-4.117v-1.611a1.54,1.54,0,0,1,1.432-1.432h5.549a1.412,1.412,0,0,1,1.432,1.432v2.148Zm10.918,0a3.4,3.4,0,0,1-3.043,3.58h-.716c-1.969,0-3.58-1.79-3.759-4.117v-1.611a1.383,1.383,0,0,1,1.253-1.432h5.012a1.383,1.383,0,0,1,1.253,1.432Z" transform="translate(-170.751 -169.32)"/></g><g transform="translate(87.007 69.331)"><rect class="cf" width="1.79" height="2.148" transform="matrix(0.99, -0.139, 0.139, 0.99, 0, 2.625)"/><rect class="cf" width="16.466" height="2.148" transform="matrix(0.99, -0.139, 0.139, 0.99, 2.048, 2.395)"/><path class="cf" d="M217.716,219.3H217l.358,2.148h.716Z" transform="translate(-198.407 -219.3)"/><path class="cf" d="M217.879,221.269c1.253-.358,3.043-.895,3.043-1.432,0-.358-1.969-.537-3.222-.537Z" transform="translate(-197.854 -219.3)"/></g><path class="dh" d="M210.629,262.818a4.5,4.5,0,0,1-3.4.537,16.369,16.369,0,0,1-2.506-1.253c-.895-.179-4.654-10.56-5.012-11.276-.358-.537-1.074-.895-1.432-1.611a7.553,7.553,0,0,1-.537-2.148c-.179-2.148-1.432-4.117-2.506-6.085A65.7,65.7,0,0,1,190.4,228.1c0-.179,0-.179-.179-.358-3.222-10.918-17.182-14.5-24.879-6.085a15.663,15.663,0,0,0-3.043,5.012c-2.685,7.875,1.074,16.466,4.475,24.163a4.263,4.263,0,0,1,.537,2.506c-.179,1.253-1.253,2.327-1.074,3.759.358,1.969,3.58,2.327,4.3,4.3a15.664,15.664,0,0,1,.358,2.864,4.634,4.634,0,0,0,1.253,1.969,53.315,53.315,0,0,1,8.233,12.708c1.253,2.685,7.7,11.455,9.665,13.782,1.79,2.327,5.012,3.938,7.7,3.222,4.117-1.074,6.98-6.8,11.1-5.727a2.586,2.586,0,0,0,1.253.358c1.79.179,2.327-2.327,2.327-4.117h0a2.9,2.9,0,0,0,3.043-1.79,4.487,4.487,0,0,1,.716-1.253c.716-.895,1.969-1.611,2.685-2.685.179-.179.358-.537.537-.716C218.683,276.421,212.06,266.577,210.629,262.818Z" transform="translate(-155.323 -151.784)"/><g transform="translate(55.127 68.428)"><path class="di" d="M188.8,253.974,224.418,228.2l4.3,4.117-31.322,39.734Z" transform="translate(-188.8 -211.367)"/><path class="dj" d="M208.61,225.157c0-1.432.179-3.222,1.432-4.117a3.291,3.291,0,0,1,2.864-.358,9.068,9.068,0,0,1,2.685,1.253c1.611.895,1.432,14.677-2.148,16.287-1.074.537-1.611-.716-2.685-1.432C207.536,234.822,208.431,229.094,208.61,225.157Z" transform="translate(-173.35 -217.452)"/><path class="dk" d="M208.8,223.636c0-2.327,5.906-5.012,8.054-4.833,1.253.179,2.685,2.148,2.327,3.4-1.074.358-1.253-1.074-2.148-1.432-.716-.358-1.253.179-1.969.716C213.1,222.741,211.664,225.426,208.8,223.636Z" transform="translate(-173.003 -218.795)"/><path class="dl" d="M209.4,225.136c0-2.327,5.906-5.011,8.054-4.832,1.253.179,2.685,2.148,2.327,3.4-1.074.358-1.253-1.074-2.148-1.432-.716-.358-1.253.179-1.969.716C213.7,224.241,212.264,226.926,209.4,225.136Z" transform="translate(-172.53 -217.611)"/><path class="dm" d="M209.9,226.336c0-2.327,5.906-5.011,8.054-4.833,1.253.179,2.685,2.148,2.327,3.4-1.074.358-1.253-1.074-2.148-1.432-.716-.358-1.253.179-1.969.716C214.2,225.441,212.764,228.126,209.9,226.336Z" transform="translate(-172.135 -216.663)"/><path class="dn" d="M210.9,226.384c0-1.611,4.3-3.759,5.906-3.58a2.692,2.692,0,0,1,1.79,2.506c-.895.179-.895-.895-1.611-1.074-.537-.179-.895.179-1.432.537C214.122,225.668,213.048,227.637,210.9,226.384Z" transform="translate(-171.345 -215.637)"/></g><path class="o" d="M192.838,372.895c.537-.895-.179-1.432-.895-1.79l.179-.179a1.377,1.377,0,0,0-.179-1.79c-2.864-2.864-4.475-12.171-3.58-13.782.179-.179.179-.358.358-.537-2.148-2.506-4.3-5.011-6.622-7.517-3.222,1.253-8.591,2.506-9.128,4.475-.537,2.148.358,6.622,1.432,8.412,2.148,3.58,4.3,7.159,6.264,10.739,1.253,2.327,1.79,6.443,3.58,8.054,1.79,1.432,13.066,2.864,15.035,1.074C202.324,377.548,194.091,374.147,192.838,372.895Z" transform="translate(-146.302 -48.871)"/></g></g></g></svg>