<svg xmlns="http://www.w3.org/2000/svg" viewBox="0 0 24.997 23.608">
  <defs>
    <style>
      .cls-1 {
        fill: #001e48;
      }
    </style>
  </defs>
  <path id="Path_438" data-name="Path 438" class="cls-1" d="M25,14.472v9.136H19.638V15.086c0-2.141-.773-3.6-2.715-3.6a2.929,2.929,0,0,0-2.748,1.938A3.546,3.546,0,0,0,14,14.712v8.9H8.637s.072-14.436,0-15.93H14V9.936c-.01.017-.025.035-.035.052H14V9.936A5.331,5.331,0,0,1,18.829,7.3C22.355,7.3,25,9.581,25,14.472ZM3.033,0a2.762,2.762,0,1,0-.07,5.5H3A2.764,2.764,0,1,0,3.033,0ZM.318,23.608H5.675V7.678H.318Zm0,0"/>
</svg>
