<svg xmlns="http://www.w3.org/2000/svg" viewBox="0 0 39.088 36.917">
  <defs>
    <style>
      .cls-1 {
        fill: #89ff00;
      }
    </style>
  </defs>
  <path id="Path_438" data-name="Path 438" class="cls-1" d="M39.088,22.631V36.917H30.709V23.59c0-3.348-1.209-5.634-4.245-5.634a4.581,4.581,0,0,0-4.3,3.031A5.546,5.546,0,0,0,21.89,23V36.917H13.506s.113-22.573,0-24.91H21.89v3.531c-.016.027-.04.054-.055.081h.055v-.081a8.337,8.337,0,0,1,7.553-4.117c5.514,0,9.646,3.561,9.646,11.21ZM4.743,0C1.874,0,0,1.861,0,4.3a4.315,4.315,0,0,0,4.633,4.3h.052c2.924,0,4.743-1.912,4.743-4.3A4.333,4.333,0,0,0,4.743,0ZM.5,36.917H8.875V12.006H.5Zm0,0" transform="translate(0)"/>
</svg>
