<svg xmlns="http://www.w3.org/2000/svg" viewBox="0 0 43.255 34.604">
  <defs>
    <style>
      .cls-1 {
        fill: #89ff00;
      }
    </style>
  </defs>
  <path id="Path_436" data-name="Path 436" class="cls-1" d="M43.255,4.1a17.954,17.954,0,0,1-5.1,1.375,8.81,8.81,0,0,0,3.9-4.832,18.01,18.01,0,0,1-5.636,2.119A8.928,8.928,0,0,0,29.947,0a8.805,8.805,0,0,0-8.874,8.735,8.6,8.6,0,0,0,.229,1.992A25.328,25.328,0,0,1,3.012,1.6,8.579,8.579,0,0,0,1.81,5.99a8.7,8.7,0,0,0,3.945,7.272,8.934,8.934,0,0,1-4.02-1.095v.112a8.777,8.777,0,0,0,7.119,8.564A9,9,0,0,1,4.847,21a8.871,8.871,0,0,0,8.293,6.066A17.978,17.978,0,0,1,2.117,30.8,17.939,17.939,0,0,1,0,30.679,25.4,25.4,0,0,0,13.6,34.6a25.289,25.289,0,0,0,15.937-5.422c5.916-4.516,9.316-12.312,9.316-19.435,0-.379-.01-.754-.026-1.13A17.861,17.861,0,0,0,43.255,4.1Zm0,0"/>
</svg>
