<svg xmlns="http://www.w3.org/2000/svg" viewBox="0 0 27.662 22.13">
  <defs>
    <style>
      .cls-1 {
        fill: #001e48;
      }
    </style>
  </defs>
  <path id="Path_436" data-name="Path 436" class="cls-1" d="M27.662,2.62A11.481,11.481,0,0,1,24.4,3.5,5.634,5.634,0,0,0,26.9.409a11.517,11.517,0,0,1-3.6,1.355A5.71,5.71,0,0,0,19.151,0a5.631,5.631,0,0,0-5.675,5.586,5.5,5.5,0,0,0,.147,1.274,16.2,16.2,0,0,1-11.7-5.839A5.486,5.486,0,0,0,1.158,3.83,5.564,5.564,0,0,0,3.681,8.481a5.713,5.713,0,0,1-2.571-.7v.071a5.613,5.613,0,0,0,4.553,5.477,5.757,5.757,0,0,1-2.563.1,5.673,5.673,0,0,0,5.3,3.879A11.5,11.5,0,0,1,1.354,19.7,11.472,11.472,0,0,1,0,19.619a16.246,16.246,0,0,0,8.7,2.51A16.173,16.173,0,0,0,18.89,18.662,16.1,16.1,0,0,0,24.847,6.233c0-.242-.006-.482-.016-.722A11.422,11.422,0,0,0,27.662,2.62Zm0,0"/>
</svg>
